<svg width="944" height="250" viewBox="0 0 944 250" fill="none" xmlns="http://www.w3.org/2000/svg">
<path d="M855.076 249.742C835.766 248.103 817.662 239.693 803.975 226.003C790.288 212.313 781.903 194.228 780.307 174.956C780.183 173.417 780.116 171.89 780.082 170.373C779.946 163.408 777.873 156.618 774.093 150.761C770.322 144.926 764.933 140.309 758.581 137.474C752.245 134.665 745.239 133.717 738.382 134.739C731.526 135.762 725.103 138.713 719.868 143.247C704.757 156.224 685.403 163.223 665.469 162.919C645.535 162.614 626.404 155.028 611.698 141.596C607.057 137.48 601.316 134.802 595.175 133.889C589.034 132.975 582.759 133.866 577.117 136.451L572.783 138.395C567.001 140.973 562.091 145.166 558.645 150.468C555.199 155.77 553.365 161.954 553.364 168.273C553.403 183.973 548.898 199.351 540.392 212.559C531.885 225.768 519.738 236.245 505.409 242.733L505.218 242.822C504.092 243.317 502.966 243.788 501.841 244.238L501.21 244.496C500.186 244.889 499.139 245.26 498.092 245.619C497.766 245.732 497.439 245.855 497.101 245.956C496.145 246.271 495.165 246.563 494.186 246.832L492.902 247.214C491.991 247.45 491.068 247.664 490.156 247.877L488.602 248.236C487.735 248.416 486.869 248.573 486.002 248.731L484.212 249.034C483.39 249.158 482.568 249.259 481.735 249.36C480.902 249.461 480.407 249.528 479.743 249.596C479.079 249.663 478.178 249.719 477.401 249.775C476.625 249.831 475.938 249.876 475.15 249.91C474.362 249.944 473.664 249.91 472.899 249.966C472.133 250.022 471.323 249.966 470.523 249.966C469.724 249.966 469.105 249.966 468.396 249.899C467.687 249.831 466.707 249.831 465.863 249.764C465.582 249.764 465.311 249.764 465.041 249.764L463.51 249.607L462.249 249.494L461.833 249.427C460.021 249.214 458.231 248.933 456.452 248.596L454.516 248.214C453.007 247.888 451.51 247.518 450.013 247.091C449.112 246.844 448.223 246.585 447.345 246.304C446.219 245.967 445.184 245.597 444.114 245.181C442.853 244.732 441.615 244.249 440.377 243.743L440.05 243.597C428.574 238.765 418.351 231.387 410.159 222.024C401.967 212.66 396.02 201.558 392.771 189.558C392.714 189.367 392.669 189.176 392.613 188.985C392.129 187.121 391.713 185.245 391.364 183.369C391.217 182.583 391.082 181.785 390.958 180.999C390.834 180.213 390.699 179.629 390.609 178.932C390.256 176.092 390.046 173.235 389.979 170.373C389.901 163.426 387.845 156.643 384.05 150.818C380.255 144.993 374.877 140.364 368.546 137.474C362.218 134.653 355.214 133.698 348.36 134.721C341.507 135.744 335.089 138.702 329.866 143.247C326.021 146.555 321.875 149.499 317.483 152.042C316.358 152.671 315.288 153.278 314.163 153.85L313.859 154.008C312.823 154.536 311.776 155.052 310.718 155.535L310.256 155.749C309.232 156.209 308.185 156.647 307.138 157.074L306.632 157.276C305.562 157.692 304.493 158.085 303.412 158.467L302.95 158.624C301.825 159.017 300.609 159.388 299.416 159.747L299.224 159.804C295.379 160.898 291.459 161.709 287.495 162.23L286.493 162.342C285.536 162.466 284.568 162.567 283.6 162.645C283.138 162.645 282.677 162.713 282.204 162.746L279.671 162.881C279.131 162.881 278.545 162.881 278.039 162.881C277.532 162.881 277.161 162.881 276.71 162.881H275.731H273.806C273.108 162.881 272.41 162.881 271.723 162.78L270.598 162.724L269.472 162.612L268.279 162.499C267.356 162.41 266.433 162.297 265.521 162.174L264.586 162.039C263.63 161.893 262.684 161.736 261.738 161.556L260.838 161.387C259.926 161.208 259.003 161.005 258.091 160.792L257.089 160.556L254.613 159.893L253.363 159.534L251.281 158.871C250.751 158.692 250.211 158.523 249.682 158.332L248.117 157.759C247.431 157.501 246.755 157.243 246.08 156.962L245.123 156.569L242.568 155.445L242.32 155.322C234.793 151.813 227.843 147.185 221.708 141.596C217.067 137.48 211.326 134.802 205.185 133.889C199.043 132.975 192.769 133.866 187.126 136.451L182.792 138.395C177.014 140.974 172.108 145.166 168.664 150.466C165.221 155.765 163.387 161.946 163.385 168.262V168.531C163.385 170.643 163.306 172.732 163.149 174.799C163.036 176.169 162.901 177.54 162.732 178.887C162.642 179.573 162.552 180.258 162.44 180.943C162.124 182.95 161.749 184.938 161.314 186.907C157.819 201.752 150.235 215.326 139.418 226.097C128.601 236.869 114.982 244.409 100.098 247.866C98.7921 248.169 97.4751 248.439 96.1355 248.686C94.7959 248.933 93.4337 249.124 92.0716 249.304C90.7095 249.483 89.3474 249.607 87.9628 249.719C85.8915 249.876 83.7977 249.955 81.6814 249.955C80.9046 249.955 80.1391 249.955 79.3624 249.955L77.0209 249.854L74.6682 249.685L72.5856 249.483C72.1128 249.483 71.6288 249.382 71.156 249.315C69.8389 249.158 68.5331 248.955 67.2273 248.719H67.1372C65.156 248.367 63.201 247.941 61.2723 247.439C58.677 246.779 56.1181 245.985 53.6062 245.058L51.8501 244.395C50.2441 243.766 48.6569 243.081 47.0884 242.339L46.1315 241.89C45.1184 241.396 44.1165 240.89 43.1259 240.363C42.1353 239.835 41.1671 239.239 40.199 238.711C32.9868 234.439 26.466 229.098 20.8594 222.874C18.6698 220.43 16.6251 217.861 14.7355 215.179C14.0489 214.213 13.3959 213.236 12.7655 212.237C12.1351 211.237 11.6961 210.54 11.1895 209.676L10.7505 208.912C10.4466 208.406 10.1652 207.89 9.88374 207.362C9.24208 206.238 8.64544 205.048 8.07133 203.857C4.25649 196.008 1.758 187.588 0.67542 178.932C0.67542 178.786 0.67542 178.652 0.67542 178.506C0.517821 177.259 0.405265 176.023 0.303951 174.799C0.303951 174.732 0.303951 174.653 0.303951 174.585C0.20639 173.17 0.138856 171.766 0.101332 170.373V170.283C0.101332 169.699 0.101332 169.16 0.101332 168.531C0.0894448 157.171 2.46457 145.935 7.07349 135.547C11.6824 125.16 18.4227 115.852 26.8594 108.224L26.9607 108.134C27.3097 107.854 27.6587 107.573 27.9964 107.27C38.0244 98.4718 50.0664 92.2691 63.0622 89.2078C63.67 89.0618 64.2667 88.927 64.8745 88.8035C66.0002 88.5676 67.126 88.3542 68.2517 88.1632C69.0284 88.0284 69.8052 87.9049 70.5932 87.8038C71.1335 87.7364 71.7188 87.6578 72.2029 87.6016L73.8464 87.4219L74.5894 87.3545L75.974 87.2534L77.8765 87.1411C78.5181 87.1411 79.1485 87.0849 79.7902 87.0737H81.7151C83.7077 87.0737 85.6776 87.1411 87.6251 87.2871L89.2461 87.4219H89.6514C90.2705 87.478 90.8784 87.5454 91.4976 87.6241L92.9272 87.8038L93.884 87.9498C94.3681 88.006 94.8409 88.0846 95.325 88.1744L97.2161 88.5114L99.0848 88.8933L100.942 89.3202C114.301 92.5719 126.619 99.1404 136.751 108.415C137.089 108.73 137.438 109.033 137.798 109.325L137.865 109.381C142.503 113.114 148.091 115.483 154.003 116.221C159.915 116.959 165.917 116.037 171.333 113.56L175.667 111.628C181.449 109.047 186.36 104.852 189.806 99.5484C193.252 94.2446 195.085 88.059 195.085 81.7383C195.002 62.0127 202.125 42.9329 215.123 28.0698C215.978 27.0926 216.845 26.1378 217.746 25.2055L217.937 25.0033C218.793 24.1122 219.671 23.2473 220.571 22.4086L220.909 22.0829C221.776 21.2741 222.654 20.4879 223.554 19.7129L224.016 19.3197C224.894 18.5784 225.794 17.8595 226.706 17.1519L227.269 16.7138C228.158 16.0398 229.07 15.3771 229.993 14.7257L230.646 14.2764C231.554 13.6548 232.477 13.0483 233.416 12.4567L234.147 12.0186C235.082 11.4458 236.016 10.8954 236.973 10.3562L237.761 9.92943C238.706 9.41273 239.674 8.90725 240.654 8.42425L241.464 8.04235C242.444 7.57059 243.434 7.09883 244.436 6.672L245.269 6.33504C246.282 5.90821 247.307 5.49261 248.342 5.11071L249.085 4.84114C250.211 4.45924 251.247 4.07734 252.339 3.7179L252.744 3.59432C256.35 2.49362 260.029 1.64537 263.753 1.05579L264.71 0.887307C265.509 0.774983 266.309 0.685113 267.108 0.595254L269.112 0.359382L271.239 0.213355C272.027 0.213355 272.804 0.101037 273.592 0.0785718H275.585C276.429 0.0785718 277.284 0.0785718 278.14 0.0785718L280.042 0.145964C280.707 0.145964 281.359 0.145972 282.024 0.224599L282.8 0.291991H283.296L284.421 0.415565L286.38 0.606497L288.215 0.853612L290.016 1.12318L291.952 1.48262C292.504 1.58372 293.078 1.68482 293.607 1.80837C294.136 1.93193 294.958 2.11165 295.622 2.26891C296.286 2.42616 296.647 2.50477 297.153 2.63956L299.224 3.21243L300.643 3.63926C301.341 3.85268 302.027 4.08857 302.725 4.31322L304.087 4.78496C304.774 5.03207 305.461 5.30165 306.136 5.56L307.476 6.08792C308.14 6.3575 308.793 6.64956 309.457 6.9416L310.797 7.53692C311.427 7.82896 312.046 8.14346 312.665 8.44674L314.061 9.14314L315.784 10.0754L317.247 10.8842L318.789 11.8165C319.318 12.131 319.836 12.4455 320.354 12.7824C320.872 13.1194 321.243 13.3665 321.694 13.6586C322.144 13.9506 322.819 14.4111 323.382 14.7818L324.508 15.5681L326.354 16.9384L327.187 17.6012C327.862 18.1403 328.538 18.7244 329.191 19.2299L329.765 19.7241C330.497 20.3531 331.228 20.9934 331.937 21.6448L332.23 21.9256C333.029 22.667 333.806 23.4196 334.572 24.1721C348.215 37.8042 356.548 55.8386 358.076 75.0438C358.189 76.5714 358.268 78.0877 358.302 79.5929C358.437 86.5577 360.511 93.3478 364.29 99.2047C366.999 103.383 370.545 106.958 374.706 109.703C378.866 112.448 383.551 114.305 388.465 115.156C393.379 116.007 398.417 115.835 403.261 114.65C408.105 113.465 412.651 111.292 416.613 108.269C417.041 107.932 417.469 107.595 417.885 107.236C420.926 104.584 424.158 102.159 427.555 99.9797C428.613 99.3058 429.683 98.6543 430.775 98.0253L431.011 97.8905C432.047 97.2952 433.094 96.7673 434.163 96.1719L434.489 95.9922C435.536 95.4643 436.595 94.9476 437.664 94.4534L438.035 94.2849C439.161 93.7906 440.287 93.3189 441.345 92.8808L441.638 92.7573C442.831 92.2855 444.035 91.8362 445.263 91.4206C449.082 90.1101 452.996 89.0888 456.97 88.3654H457.476C458.602 88.1632 459.728 87.9835 460.854 87.8375L461.979 87.7027C462.902 87.5904 463.825 87.4893 464.749 87.4106L466.212 87.3095C467.045 87.2534 467.867 87.2085 468.7 87.1748H470.377H471.694H472.673H474.598L476.613 87.2422H477.739L478.865 87.3545L480.058 87.4668C480.981 87.5679 481.893 87.669 482.805 87.7925L483.75 87.9273C484.707 88.0733 485.653 88.2306 486.598 88.4103L487.488 88.5788C488.411 88.7585 489.334 88.9607 490.246 89.1741L491.236 89.41L493.736 90.084L494.962 90.4322L497.056 91.0949L498.644 91.634C499.173 91.8138 499.702 92.0159 500.231 92.2181C500.76 92.4203 501.582 92.7236 502.246 92.9931L503.214 93.4087C504.069 93.7682 504.925 94.1389 505.769 94.532L506.006 94.6443C513.539 98.1527 520.493 102.785 526.629 108.382C531.27 112.497 537.011 115.175 543.152 116.089C549.293 117.002 555.568 116.112 561.21 113.526L565.544 111.594C571.332 109.008 576.246 104.806 579.692 99.4935C583.138 94.1814 584.969 87.9874 584.963 81.6596V81.4462C584.95 60.3814 593.113 40.13 607.74 24.9409C622.368 9.75181 642.322 0.805391 663.417 -0.0213846C684.512 -0.84816 705.107 6.50896 720.884 20.5065C736.66 34.504 746.39 54.054 748.033 75.055C748.145 76.5826 748.224 78.099 748.258 79.6041C748.395 86.5671 750.464 93.3558 754.236 99.2159C757.037 103.536 760.733 107.208 765.073 109.986C769.414 112.764 774.3 114.584 779.404 115.323C784.507 116.062 789.71 115.704 794.663 114.273C799.617 112.841 804.206 110.369 808.123 107.022C818.286 98.1984 830.479 92.0208 843.616 89.0402C856.752 86.0597 870.424 86.3688 883.411 89.9402C896.399 93.5115 908.299 100.234 918.051 109.508C927.803 118.783 935.103 130.321 939.302 143.094C943.5 155.867 944.465 169.478 942.112 182.713C939.758 195.949 934.159 208.398 925.813 218.95C917.468 229.502 906.635 237.83 894.281 243.191C881.927 248.552 868.435 250.779 855.009 249.674L855.076 249.742Z" fill="url(#paint0_linear_70_87)"/>
<defs>
<linearGradient id="paint0_linear_70_87" x1="960.927" y1="125.006" x2="-1.45214" y2="125.006" gradientUnits="userSpaceOnUse">
<stop offset="0.04" stop-color="#F5B14C"/>
<stop offset="0.51" stop-color="#FF4262"/>
<stop offset="1" stop-color="#FF007C"/>
</linearGradient>
</defs>
</svg>
