<svg width="41" height="41" viewBox="0 0 41 41" fill="none" xmlns="http://www.w3.org/2000/svg">
<g clip-path="url(#clip0_615_520)">
<path d="M20.5129 20.9941H1.55544C0.326554 20.9941 0 20.6654 0 19.4194V1.4738C0 0.352335 0.345892 7.53373e-07 1.45017 7.53373e-07H39.4123C39.6044 -0.000122842 39.7962 0.0149612 39.986 0.0451152C40.6691 0.156832 40.9979 0.526354 40.9979 1.22458C40.9979 7.41626 40.9979 13.6072 40.9979 19.7975C40.9979 20.6074 40.5682 20.9984 39.7088 21.0006C36.9009 21.0006 34.0951 21.0006 31.2892 21.0006L20.5129 20.9941ZM39.9988 20.0188C40.0096 19.8039 40.0246 19.6449 40.0246 19.4881C40.0246 13.5048 40.0246 7.52368 40.0375 1.5404C40.0375 1.05271 39.8721 0.966779 39.4295 0.966779C26.8256 0.976805 14.2217 0.976805 1.61774 0.966779C0.973217 0.966779 0.973217 0.966775 0.973217 1.60055V19.3549C0.973217 19.9994 0.973223 19.9994 1.63708 19.9994L39.408 20.0123L39.9988 20.0188Z" fill="#1C2355"/>
<path d="M30.432 41.0001H21.2412C20.2723 41.0001 19.9113 40.6413 19.9113 39.6616C19.9113 34.8965 19.9113 30.1328 19.9113 25.3705C19.9113 24.3693 20.2637 24.0148 21.2777 24.0127H39.61C40.6262 24.0127 41 24.3994 41 25.4113C41 30.1378 41 34.8693 41 39.6058C41 40.6413 40.6477 41.0001 39.6229 41.0001H30.432ZM39.986 25.0203H20.934V40.0054H39.986V25.0203Z" fill="#1C2355"/>
<path d="M-1.98909e-06 32.5547C-1.98909e-06 30.18 -1.98909e-06 27.8068 -1.98909e-06 25.4349C-1.98909e-06 24.481 0.348038 24.1094 1.28904 24.1094C5.98686 24.1094 10.6854 24.1094 15.3847 24.1094C16.3235 24.1094 16.693 24.4853 16.693 25.4263C16.693 30.1729 16.693 34.9194 16.693 39.6659C16.693 40.6284 16.3042 40.9979 15.3438 40.9979H1.3449C0.343744 40.9979 -0.00430298 40.6456 -0.00430298 39.6272C-0.00143845 37.2712 -1.98909e-06 34.9137 -1.98909e-06 32.5547ZM15.6661 40.0247V25.1385H0.975365V25.6841C0.975365 30.271 0.975365 34.86 0.975365 39.4468C0.975365 39.9065 1.09568 40.0354 1.55974 40.0354C6.07137 40.0183 10.6045 40.0354 15.129 40.0354L15.6661 40.0247Z" fill="#1C2355"/>
<path d="M28.3846 10.9311V15.9433C28.3846 16.07 28.3846 16.2011 28.3846 16.3278C28.3567 16.6501 28.2192 16.8907 27.8583 16.8864C27.4973 16.8821 27.3921 16.6501 27.3577 16.3493C27.3523 16.2534 27.3523 16.1573 27.3577 16.0614V5.80713C27.3577 5.72764 27.3577 5.646 27.3577 5.56651C27.3856 5.23995 27.5253 5.00577 27.8862 5.01007C28.2471 5.01436 28.3588 5.23995 28.3889 5.54502C28.3889 5.65459 28.3889 5.75986 28.3889 5.88017L28.3846 10.9311Z" fill="#1C2355"/>
<path d="M32.0648 10.9182C32.0648 12.6154 32.0648 14.3134 32.0648 16.012C32.0648 16.156 32.1121 16.3364 32.0433 16.4417C31.9295 16.605 31.7404 16.8155 31.5814 16.8155C31.4224 16.8155 31.2441 16.6007 31.1131 16.4503C31.0551 16.3837 31.0916 16.2355 31.0916 16.1237V5.73624C31.0916 5.67179 31.0916 5.60949 31.0916 5.54504C31.1066 5.23782 31.2205 5.00579 31.5707 5.01223C31.6395 5.00668 31.7088 5.0167 31.7732 5.04157C31.8376 5.06644 31.8956 5.1055 31.9429 5.15587C31.9902 5.20623 32.0255 5.2666 32.0462 5.33249C32.067 5.39837 32.0726 5.46808 32.0627 5.53644C32.0627 5.921 32.0627 6.30557 32.0627 6.69013L32.0648 10.9182Z" fill="#1C2355"/>
<path d="M6.07781 11.1158C6.07781 12.8152 6.07781 14.5146 6.07781 16.214C6.07781 16.5684 6.03056 16.8993 5.61377 16.9079C5.19698 16.9165 5.09385 16.5942 5.096 16.2118C5.096 12.7987 5.096 9.38492 5.096 5.9704V5.77704C5.096 5.43115 5.26143 5.21201 5.61162 5.2249C5.9618 5.23779 6.07353 5.45264 6.07353 5.77919C6.07209 7.55807 6.07352 9.33694 6.07781 11.1158Z" fill="#1C2355"/>
<path d="M12.5123 11.9945C12.5123 10.6152 12.5123 9.23811 12.5123 7.85884C12.5123 7.50006 12.5789 7.20144 13.0085 7.19069C13.4382 7.17995 13.5263 7.49791 13.5263 7.84595C13.5263 10.6346 13.5263 13.4225 13.5263 16.2097C13.5263 16.5684 13.421 16.8735 12.9999 16.8542C12.5789 16.8348 12.508 16.5341 12.5101 16.171C12.5187 14.781 12.5123 13.3888 12.5123 11.9945Z" fill="#1C2355"/>
<path d="M24.6378 12.755C24.6378 13.9237 24.6378 15.0924 24.6378 16.2633C24.6378 16.6221 24.5153 16.8907 24.1501 16.8971C23.7849 16.9035 23.6517 16.6414 23.6538 16.2784C23.6538 13.908 23.6538 11.5369 23.6538 9.16503C23.6538 8.83202 23.7118 8.53554 24.1308 8.53984C24.5497 8.54414 24.6335 8.83417 24.6314 9.19725C24.6335 10.3832 24.6378 11.5691 24.6378 12.755Z" fill="#1C2355"/>
<path d="M34.8298 12.6883C34.8298 11.5046 34.8298 10.3251 34.8298 9.1349C34.8298 8.69018 35.0296 8.49037 35.3884 8.54838C35.7042 8.5892 35.8181 8.78901 35.8181 9.08334C35.8095 11.4666 35.8016 13.8506 35.7944 16.2353C35.7944 16.5812 35.6462 16.8455 35.2681 16.839C34.89 16.8326 34.7954 16.5619 34.7954 16.2396V12.6883H34.8298Z" fill="#1C2355"/>
<path d="M9.81602 13.1846C9.81602 14.1944 9.81602 15.2041 9.81602 16.2139C9.81602 16.577 9.7215 16.8863 9.32404 16.9078C8.92659 16.9293 8.80197 16.607 8.80197 16.2526C8.80197 14.2016 8.80197 12.1498 8.80197 10.0974C8.80197 9.74936 8.92229 9.45288 9.29396 9.45288C9.66564 9.45288 9.82032 9.73217 9.81817 10.1081C9.80958 11.1329 9.81602 12.1577 9.81602 13.1846Z" fill="#1C2355"/>
<path d="M19.935 14.6541V13.0192C19.935 12.6797 20.0875 12.4455 20.4334 12.4391C20.7793 12.4326 20.9361 12.669 20.9361 13.0084C20.9361 14.1148 20.9361 15.2213 20.9361 16.3277C20.9361 16.6671 20.7793 16.9185 20.4441 16.9142C20.109 16.9099 19.9285 16.6478 19.9328 16.289C19.9393 15.7283 19.935 15.189 19.935 14.6541Z" fill="#1C2355"/>
<path d="M17.228 14.6541V16.2847C17.228 16.6242 17.0798 16.8476 16.721 16.8455C16.3622 16.8433 16.2505 16.6306 16.2526 16.3084C16.2526 15.1891 16.2526 14.0676 16.2526 12.9483C16.2526 12.611 16.4223 12.4241 16.7425 12.4327C16.8113 12.4315 16.8797 12.4451 16.9428 12.4727C17.0059 12.5003 17.0623 12.5412 17.1082 12.5926C17.1541 12.644 17.1883 12.7047 17.2086 12.7705C17.2289 12.8363 17.2348 12.9057 17.2258 12.9741C17.2287 13.5298 17.2294 14.0898 17.228 14.6541Z" fill="#1C2355"/>
<path d="M26.1417 34.6471L27.5081 33.2743C27.1085 32.3698 27.2782 31.6759 27.9592 31.4052C28.6832 31.1195 29.2289 31.446 29.5813 32.3978H31.2377C31.6674 31.3579 32.2625 31.1259 33.2056 31.6609L34.6923 30.2902C34.5869 30.017 34.5148 29.732 34.4775 29.4416C34.4775 28.7971 35.0232 28.3566 35.7085 28.3867C35.9986 28.4055 36.27 28.536 36.4659 28.7507C36.6618 28.9654 36.7669 29.2477 36.7591 29.5383C36.744 30.1634 36.2155 30.7156 35.5946 30.5931C35.0554 30.4857 34.7697 30.7177 34.4603 31.0507C34.2968 31.2261 34.1239 31.3924 33.9425 31.5492C33.6439 31.807 33.4333 32.0497 33.5128 32.5181C33.5859 33.038 33.2228 33.4376 32.7265 33.5794C32.4872 33.6542 32.2293 33.643 31.9974 33.5477C31.7655 33.4523 31.5743 33.2788 31.4568 33.0573C31.4372 33.0138 31.415 32.9714 31.3902 32.9306C31.2205 32.7157 29.5748 32.7587 29.4309 32.995C29.3093 33.2235 29.1161 33.4059 28.8809 33.5142C28.6458 33.6224 28.3817 33.6506 28.129 33.5944C28.0967 33.5944 28.0538 33.5665 28.0366 33.5794C27.6985 33.7987 27.3833 34.0513 27.0956 34.3335C26.8528 34.6106 26.3286 34.7309 26.5198 35.3131C26.6723 35.775 26.3694 36.2864 25.9183 36.5012C25.6958 36.6173 25.4403 36.6536 25.1943 36.6039C24.9483 36.5543 24.7269 36.4217 24.5669 36.2284C24.4015 36.0314 24.307 35.7846 24.2984 35.5276C24.2898 35.2705 24.3677 35.018 24.5197 34.8104C24.6665 34.6189 24.8725 34.4814 25.1057 34.4192C25.3388 34.357 25.586 34.3737 25.8087 34.4667C25.9235 34.5195 26.0347 34.5798 26.1417 34.6471V34.6471Z" fill="#1C2355"/>
<path d="M13.0794 32.7545C13.0107 35.2553 11.1802 37.3736 8.37444 37.4101C5.7534 37.4445 3.66515 35.2488 3.67375 32.5805C3.67375 30.2173 5.84578 28.0152 8.13382 28.0173C10.9203 28.0216 13.0794 30.0905 13.0794 32.7545ZM7.8932 29.0894C7.07682 29.1973 6.32051 29.5768 5.74606 30.1668C5.17162 30.7569 4.81247 31.5231 4.72647 32.3421C4.63413 33.1264 4.79972 33.9194 5.1982 34.6012C5.59667 35.2831 6.20635 35.8166 6.93501 36.1211C8.29924 36.7119 9.99218 36.3746 10.9396 35.309C10.0266 34.6065 9.12208 33.8953 8.19827 33.21C8.0925 33.1412 8.00758 33.0448 7.95267 32.9312C7.89776 32.8176 7.87497 32.6911 7.88676 32.5655C7.9018 31.4225 7.8932 30.271 7.8932 29.0894ZM8.91369 29.0894C8.91369 30.1765 8.91369 31.2614 8.91369 32.3463C8.93059 32.4385 8.98208 32.5208 9.05763 32.5762C9.89335 33.2207 10.7312 33.8653 11.5713 34.5098C12.8882 32.3163 11.4123 29.2784 8.91369 29.0894Z" fill="#1C2355"/>
</g>
<defs>
<clipPath id="clip0_615_520">
<rect width="41" height="41" fill="white"/>
</clipPath>
</defs>
</svg>
