<svg width="42" height="49" viewBox="0 0 42 49" fill="none" xmlns="http://www.w3.org/2000/svg">
<g clip-path="url(#clip0_615_536)">
<path d="M24.3514 1.17866H2.2027C1.35572 1.17866 1.15277 1.37093 1.08782 2.24315C1.08782 2.40477 1.08782 2.56361 1.08782 2.72524C1.08782 16.4912 1.08782 30.2589 1.08782 44.0286C1.08782 44.1874 1.08782 44.349 1.08782 44.5079C1.15277 45.3717 1.35842 45.5752 2.19999 45.5752H12.2393C12.3962 45.5752 12.5857 45.5194 12.6993 45.5919C12.9077 45.7256 13.2405 45.9541 13.2162 46.1046C13.1891 46.3303 12.9293 46.556 12.7237 46.7205C12.6262 46.8013 12.4233 46.7511 12.2691 46.7511H2.05386C0.865923 46.7511 0.132599 46.0572 0.0216527 44.8311C4.62501e-06 44.5943 0 44.3518 0 44.1122V2.68901C0 2.44936 1.98186e-06 2.20692 0.0189441 1.96728C0.11636 0.696575 0.830749 0.0166382 2.0674 0.0166382C9.48187 0.0166382 16.8945 0.0166382 24.3054 0.0166382C24.5477 0.00811176 24.7888 0.0534804 25.0125 0.149659C25.2362 0.245838 25.4371 0.390566 25.6016 0.573963C28.3401 3.41911 31.1029 6.24195 33.836 9.09267C34.0626 9.34788 34.1972 9.67544 34.2175 10.0206C34.2716 11.6229 34.2662 13.2252 34.2797 14.8275C34.3123 15.025 34.2984 15.2276 34.2392 15.4183C34.112 15.644 33.9063 15.945 33.698 15.9756C33.3435 16.0286 33.1568 15.7304 33.1568 15.3514C33.1568 13.908 33.1568 12.4645 33.1568 11.021V10.2993H25.1821C24.4326 10.2993 24.2946 10.1572 24.2973 9.38806C24.3081 6.92468 24.3216 4.4613 24.3379 1.99792L24.3514 1.17866ZM32.0419 9.10939L25.4771 2.34625V9.10939H32.0419Z" fill="#1C2355"/>
<path d="M26.3105 18.7512L22.8171 19.3085C22.7603 19.3085 22.7034 19.3392 22.6466 19.3503C22.2678 19.4256 21.9079 19.3893 21.8213 18.9295C21.7428 18.5143 22.0161 18.3388 22.3787 18.2385C23.9372 17.7975 25.5542 17.616 27.1684 17.7006C30.7268 17.8901 33.9334 19.1107 36.6394 21.5211C39.9434 24.4498 41.751 28.1616 41.9811 32.6509C42.3707 40.2974 36.9749 47.3057 29.6254 48.6879C24.2783 49.6939 19.5536 48.3229 15.6191 44.4439C12.8979 41.8042 11.2754 38.1818 11.0919 34.3368C10.8787 31.1372 11.6596 27.9507 13.3217 25.2385C13.3731 25.1549 13.4191 25.0657 13.4759 24.9849C13.6762 24.7062 13.982 24.4833 14.2499 24.7592C14.3349 24.8776 14.3917 25.015 14.4157 25.1602C14.4397 25.3054 14.4301 25.4544 14.3879 25.5951C14.1641 26.0821 13.9138 26.5556 13.6383 27.0135C11.0135 32.2162 11.9552 38.8846 15.8843 43.1147C19.0314 46.5004 22.8874 48.0943 27.4038 47.8519C34.1228 47.4674 39.6999 42.4013 40.7255 35.5685C41.2749 31.8235 40.3787 28.0059 38.2287 24.9329C36.0787 21.86 32.8458 19.7761 29.2222 19.1274C28.3319 18.9463 27.42 18.8822 26.3105 18.7512Z" fill="#1C2355"/>
<path d="M16.5418 33.6345C16.5565 36.1218 17.4437 38.5197 19.04 40.3863C20.6363 42.253 22.8341 43.4624 25.2281 43.7918C26.5817 43.9469 27.9518 43.7976 29.2439 43.3543C29.6119 43.24 29.9718 43.1927 30.126 43.6329C30.2965 44.1122 29.9664 44.324 29.5848 44.4494C26.0156 45.6309 22.7278 44.9622 19.7999 42.652C18.5456 41.678 17.5094 40.4376 16.7615 39.0149C16.0136 37.5923 15.5716 36.0206 15.4653 34.4066C15.3591 32.7925 15.5911 31.1738 16.1457 29.6603C16.7003 28.1467 17.5644 26.7736 18.6796 25.6341C21.7753 22.4407 25.5935 21.4291 29.7742 22.775C33.955 24.121 36.4797 27.1166 37.3673 31.5306C37.9626 34.4817 37.3024 37.1986 35.7626 39.7205C35.5489 40.0716 35.3189 40.459 34.848 40.1552C34.3772 39.8515 34.6045 39.4725 34.8264 39.1214C36.0482 37.2425 36.6155 34.9926 36.4357 32.7388C36.2558 30.4851 35.3394 28.3608 33.836 26.7126C31.0731 23.703 27.6581 22.6803 23.794 23.8117C19.9298 24.943 17.6107 27.699 16.7421 31.734C16.6425 32.3634 16.5757 32.9978 16.5418 33.6345V33.6345Z" fill="#1C2355"/>
<path d="M25.9452 27.6906C25.906 27.4434 25.9134 27.1908 25.9669 26.9465C26.0643 26.6679 26.2916 26.2833 26.5081 26.2471C26.9167 26.1774 27.0899 26.5425 27.0845 26.9605C27.0845 27.2977 27.0845 27.6376 27.0845 27.841C28.2345 28.3482 29.2953 28.8136 30.356 29.2845C30.4639 29.3324 30.5664 29.3922 30.6618 29.4629C30.9514 29.6746 31.1083 30.0007 30.8621 30.2738C30.7572 30.3563 30.6349 30.4122 30.5051 30.4369C30.3754 30.4616 30.2418 30.4544 30.1152 30.4159C29.5902 30.2208 29.114 29.8892 28.5998 29.6635C28.1398 29.4629 27.6527 29.3319 27.1223 29.1508V33.0325C27.94 33.3603 28.7403 33.7324 29.5199 34.1472C30.6645 34.8299 31.1435 35.9585 30.8242 37.0759C30.6967 37.5102 30.4688 37.9062 30.1601 38.2299C29.8514 38.5536 29.4711 38.7954 29.0517 38.9346C28.4061 39.1481 27.7493 39.3239 27.0845 39.4613C27.0845 39.7121 27.0845 40.0186 27.0845 40.3418C27.0845 40.6651 26.9654 40.9856 26.5703 41.0134C26.1752 41.0413 25.9858 40.7348 25.9561 40.3725C25.9263 40.0102 25.9561 39.6563 25.9561 39.4055C24.8737 38.9402 23.8616 38.5083 22.8523 38.0708C22.7097 38.0069 22.5753 37.9255 22.4518 37.8283C22.1812 37.6221 21.9782 37.3769 22.1812 37.0174C22.3841 36.6579 22.7061 36.6997 23.0444 36.8586C23.8156 37.2236 24.5976 37.5719 25.3797 37.9119C25.5616 37.9691 25.7482 38.0092 25.9371 38.0317C25.9371 36.7722 25.9371 35.5739 25.9209 34.3757C25.9209 34.2531 25.7206 34.097 25.5772 34.0246C24.8412 33.6818 24.024 33.4672 23.361 33.0186C21.7211 31.9039 21.7374 29.7861 23.4016 28.7077C24.1241 28.2423 25.0062 28.0556 25.9452 27.6906ZM25.9128 33.0799V28.9418C25.1875 29.2204 24.4975 29.3653 23.9211 29.7192C23.02 30.2766 22.9686 31.3048 23.8129 31.9485C24.4163 32.3972 25.1524 32.6758 25.9128 33.0799V33.0799ZM27.1196 38.1265C27.9271 38.1987 28.7296 37.9392 29.3521 37.4047C29.4909 37.3017 29.6059 37.1683 29.6887 37.0141C29.7715 36.8599 29.82 36.6887 29.8309 36.5128C29.8418 36.337 29.8147 36.1608 29.7515 35.997C29.6884 35.8332 29.5908 35.6859 29.4658 35.5656C28.8461 34.8606 28.0262 34.5512 27.1196 34.3701V38.1265Z" fill="#1C2355"/>
<path d="M11.0487 14.8442H5.4472C5.25565 14.8776 5.05916 14.8642 4.87353 14.8052C4.66787 14.6798 4.38645 14.4346 4.39457 14.2479C4.40268 14.0612 4.69493 13.8578 4.89788 13.7101C4.98989 13.6432 5.16849 13.6934 5.30108 13.6934H16.7367C16.9126 13.6934 17.1264 13.646 17.2508 13.7296C17.344 13.7853 17.4256 13.8596 17.4906 13.9481C17.5556 14.0366 17.6029 14.1376 17.6297 14.2451C17.6105 14.3539 17.5689 14.4571 17.5078 14.548C17.4466 14.6388 17.3673 14.7151 17.2752 14.7718C17.0942 14.8426 16.8985 14.8647 16.7069 14.8359L11.0487 14.8442Z" fill="#1C2355"/>
<path d="M8.79725 22.2343C7.57413 22.2343 6.36184 22.2343 5.12519 22.2343C4.71929 22.2343 4.39186 22.1061 4.37292 21.6769C4.35398 21.2478 4.70035 21.0862 5.09001 21.0862H12.4937C12.8671 21.0862 13.2378 21.1837 13.2405 21.6435C13.2432 22.1033 12.8833 22.2287 12.4693 22.2231C11.2462 22.2259 10.0231 22.2343 8.79725 22.2343Z" fill="#1C2355"/>
<path d="M6.58373 29.6747C6.09665 29.6747 5.61227 29.6886 5.12789 29.6747C4.73011 29.6607 4.34586 29.5297 4.37021 29.0449C4.39456 28.6129 4.73282 28.4875 5.13331 28.4875C6.10206 28.5015 7.07352 28.4875 8.04227 28.4875C8.45358 28.4875 8.8216 28.5712 8.8216 29.0672C8.8216 29.5632 8.42923 29.6551 8.03686 29.6635C7.55248 29.683 7.0681 29.6774 6.58373 29.6747Z" fill="#1C2355"/>
<path d="M6.01546 37.0315C5.64878 37.0708 5.27875 37.0624 4.91411 37.0064C4.69763 36.9451 4.54609 36.633 4.37291 36.4491C4.55692 36.2819 4.73552 35.9809 4.93306 35.967C5.68877 35.9085 6.44768 35.9085 7.2034 35.967C7.39011 35.967 7.72025 36.3292 7.69319 36.4602C7.65573 36.5876 7.59003 36.7042 7.50127 36.801C7.41251 36.8977 7.30312 36.9718 7.18175 37.0175C6.79714 37.073 6.40758 37.0824 6.02087 37.0454L6.01546 37.0315Z" fill="#1C2355"/>
</g>
<defs>
<clipPath id="clip0_615_536">
<rect width="42" height="49" fill="white"/>
</clipPath>
</defs>
</svg>
