<svg width="310" height="231" viewBox="0 0 310 231" fill="none" xmlns="http://www.w3.org/2000/svg">
<path d="M308.92 26.071H0.550087C0.404218 26.071 0.264324 26.0131 0.161179 25.9099C0.0580336 25.8068 8.39233e-05 25.6669 8.39233e-05 25.521C8.39233e-05 25.3751 0.0580336 25.2352 0.161179 25.1321C0.264324 25.029 0.404218 24.971 0.550087 24.971H308.92C309.066 24.971 309.206 25.029 309.309 25.1321C309.412 25.2352 309.47 25.3751 309.47 25.521C309.47 25.6669 309.412 25.8068 309.309 25.9099C309.206 26.0131 309.066 26.071 308.92 26.071Z" fill="#E2EAF4"/>
<path d="M16.1501 9.55101C18.7182 9.55101 20.8001 7.41988 20.8001 4.79101C20.8001 2.16213 18.7182 0.0310059 16.1501 0.0310059C13.582 0.0310059 11.5001 2.16213 11.5001 4.79101C11.5001 7.41988 13.582 9.55101 16.1501 9.55101Z" fill="#E2EAF4"/>
<path d="M32.2301 9.55101C34.7982 9.55101 36.8801 7.41988 36.8801 4.79101C36.8801 2.16213 34.7982 0.0310059 32.2301 0.0310059C29.662 0.0310059 27.5801 2.16213 27.5801 4.79101C27.5801 7.41988 29.662 9.55101 32.2301 9.55101Z" fill="#E2EAF4"/>
<path d="M48.3001 9.55101C50.8682 9.55101 52.9501 7.41988 52.9501 4.79101C52.9501 2.16213 50.8682 0.0310059 48.3001 0.0310059C45.732 0.0310059 43.6501 2.16213 43.6501 4.79101C43.6501 7.41988 45.732 9.55101 48.3001 9.55101Z" fill="#E2EAF4"/>
<path d="M66.6301 8.55101C66.5568 8.55177 66.4841 8.53701 66.4169 8.50772C66.3497 8.47842 66.2894 8.43524 66.2401 8.38101L63.1001 5.16101C62.9993 5.0582 62.9429 4.91997 62.9429 4.776C62.9429 4.63204 62.9993 4.49382 63.1001 4.39101L66.2401 1.16101C66.2896 1.10865 66.3493 1.06695 66.4155 1.03845C66.4817 1.00995 66.553 0.99525 66.6251 0.99525C66.6972 0.99525 66.7685 1.00995 66.8347 1.03845C66.9009 1.06695 66.9606 1.10865 67.0101 1.16101C67.0612 1.21126 67.1018 1.27118 67.1295 1.33728C67.1572 1.40338 67.1714 1.47434 67.1714 1.54601C67.1714 1.61768 67.1572 1.68863 67.1295 1.75473C67.1018 1.82082 67.0612 1.88075 67.0101 1.931L64.2501 4.751L67.0101 7.581C67.0624 7.63054 67.1041 7.69023 67.1326 7.75643C67.1611 7.82262 67.1758 7.89393 67.1758 7.96601C67.1758 8.03808 67.1611 8.10939 67.1326 8.17559C67.1041 8.24178 67.0624 8.30148 67.0101 8.35101C66.9634 8.40813 66.9057 8.45527 66.8404 8.48963C66.7751 8.52399 66.7036 8.54486 66.6301 8.55101Z" fill="#E2EAF4"/>
<path d="M71.9101 8.55101C71.8379 8.55101 71.7663 8.53678 71.6996 8.50914C71.6329 8.4815 71.5723 8.44099 71.5212 8.38992C71.4701 8.33885 71.4296 8.27821 71.4019 8.21148C71.3743 8.14475 71.3601 8.07323 71.3601 8.001C71.3584 7.85958 71.4123 7.72314 71.5101 7.62101L74.2801 4.791L71.5101 1.971C71.4587 1.91989 71.4179 1.85912 71.3901 1.79219C71.3622 1.72526 71.3479 1.65349 71.3479 1.581C71.3479 1.50852 71.3622 1.43675 71.3901 1.36981C71.4179 1.30288 71.4587 1.24212 71.5101 1.191C71.5603 1.13991 71.6203 1.09932 71.6864 1.07162C71.7525 1.04392 71.8234 1.02966 71.8951 1.02966C71.9668 1.02966 72.0377 1.04392 72.1038 1.07162C72.1699 1.09932 72.2298 1.13991 72.2801 1.191L75.4201 4.401C75.5209 4.50381 75.5773 4.64204 75.5773 4.78601C75.5773 4.92997 75.5209 5.0682 75.4201 5.17101L72.2801 8.37101C72.1853 8.47748 72.0523 8.54219 71.9101 8.55101Z" fill="#E2EAF4"/>
<path d="M284.57 0.581002H278.74C278.419 0.581002 278.111 0.708483 277.884 0.935402C277.658 1.16232 277.53 1.47009 277.53 1.791V7.631C277.53 7.95019 277.656 8.25645 277.881 8.48309C278.106 8.70972 278.411 8.83837 278.73 8.841H284.57C284.732 8.84637 284.894 8.81904 285.045 8.76064C285.197 8.70223 285.335 8.61396 285.452 8.50106C285.568 8.38816 285.661 8.25295 285.724 8.10348C285.788 7.954 285.82 7.79333 285.82 7.631V1.791C285.82 1.62868 285.788 1.468 285.724 1.31853C285.661 1.16905 285.568 1.03384 285.452 0.920945C285.335 0.808047 285.197 0.719771 285.045 0.66137C284.894 0.602969 284.732 0.575636 284.57 0.581002Z" fill="#E2EAF4"/>
<path d="M270.27 0.581004H264.43C264.109 0.581004 263.801 0.708486 263.574 0.935405C263.348 1.16232 263.22 1.47009 263.22 1.791V7.63101C263.22 7.95192 263.348 8.25969 263.574 8.48661C263.801 8.71352 264.109 8.84101 264.43 8.84101H270.27C270.591 8.84101 270.899 8.71352 271.126 8.48661C271.353 8.25969 271.48 7.95192 271.48 7.63101V1.791C271.48 1.47009 271.353 1.16232 271.126 0.935405C270.899 0.708486 270.591 0.581004 270.27 0.581004Z" fill="#E2EAF4"/>
<path d="M298.05 0.861003H292.22C291.901 0.860992 291.595 0.987103 291.368 1.21186C291.141 1.43662 291.013 1.74183 291.01 2.06101V7.91101C291.01 8.22927 291.137 8.53449 291.362 8.75953C291.587 8.98458 291.892 9.111 292.21 9.111H298.05C298.369 9.11101 298.676 8.98491 298.902 8.76015C299.129 8.53539 299.257 8.23018 299.26 7.91101V2.06101C299.257 1.74183 299.129 1.43662 298.902 1.21186C298.676 0.987103 298.369 0.860992 298.05 0.861003Z" fill="#E2EAF4"/>
<path d="M179.82 3.081H133.13C132.74 3.081 132.366 3.23588 132.091 3.51156C131.815 3.78724 131.66 4.16114 131.66 4.55101C131.66 4.94087 131.815 5.31477 132.091 5.59045C132.366 5.86613 132.74 6.02101 133.13 6.02101H179.82C180.21 6.02101 180.584 5.86613 180.86 5.59045C181.135 5.31477 181.29 4.94087 181.29 4.55101C181.29 4.16114 181.135 3.78724 180.86 3.51156C180.584 3.23588 180.21 3.081 179.82 3.081Z" fill="#E2EAF4"/>
<path d="M98.7301 150.781H48.0401C45.6119 150.86 43.3098 151.881 41.6202 153.627C39.9306 155.372 38.986 157.707 38.986 160.136C38.986 162.565 39.9306 164.9 41.6202 166.645C43.3098 168.391 45.6119 169.412 48.0401 169.491H98.7301C101.158 169.412 103.46 168.391 105.15 166.645C106.84 164.9 107.784 162.565 107.784 160.136C107.784 157.707 106.84 155.372 105.15 153.627C103.46 151.881 101.158 150.86 98.7301 150.781Z" fill="white"/>
<path d="M98.7301 170.091H48.0401C45.5632 169.855 43.2631 168.705 41.5892 166.864C39.9153 165.023 38.9877 162.624 38.9877 160.136C38.9877 157.648 39.9153 155.249 41.5892 153.408C43.2631 151.567 45.5632 150.417 48.0401 150.181H98.7301C101.207 150.417 103.507 151.567 105.181 153.408C106.855 155.249 107.782 157.648 107.782 160.136C107.782 162.624 106.855 165.023 105.181 166.864C103.507 168.705 101.207 169.855 98.7301 170.091ZM48.0401 151.391C46.8668 151.351 45.6975 151.548 44.6019 151.97C43.5062 152.391 42.5066 153.029 41.6626 153.845C40.8186 154.661 40.1474 155.639 39.689 156.719C39.2306 157.8 38.9943 158.962 38.9943 160.136C38.9943 161.31 39.2306 162.472 39.689 163.553C40.1474 164.633 40.8186 165.611 41.6626 166.427C42.5066 167.243 43.5062 167.881 44.6019 168.302C45.6975 168.724 46.8668 168.921 48.0401 168.881H98.7301C99.9034 168.921 101.073 168.724 102.168 168.302C103.264 167.881 104.264 167.243 105.108 166.427C105.952 165.611 106.623 164.633 107.081 163.553C107.54 162.472 107.776 161.31 107.776 160.136C107.776 158.962 107.54 157.8 107.081 156.719C106.623 155.639 105.952 154.661 105.108 153.845C104.264 153.029 103.264 152.391 102.168 151.97C101.073 151.548 99.9034 151.351 98.7301 151.391H48.0401Z" fill="#1D2355"/>
<path d="M293.32 62.531H156.36C147.446 62.531 140.22 69.7571 140.22 78.671V213.891C140.22 222.805 147.446 230.031 156.36 230.031H293.32C302.234 230.031 309.46 222.805 309.46 213.891V78.671C309.46 69.7571 302.234 62.531 293.32 62.531Z" fill="#F2F2F2"/>
<path d="M254.58 130.841C254.157 130.382 253.931 129.775 253.949 129.151C253.968 128.526 254.23 127.934 254.68 127.501C254.771 127.413 254.872 127.336 254.98 127.271L252.98 119.151L256.73 116.681L258.3 128.091C258.556 128.553 258.653 129.086 258.576 129.609C258.498 130.132 258.25 130.614 257.87 130.981C257.652 131.188 257.396 131.349 257.116 131.457C256.835 131.564 256.536 131.615 256.236 131.607C255.936 131.599 255.641 131.531 255.367 131.408C255.093 131.285 254.846 131.11 254.64 130.891L254.58 130.841Z" fill="#FFB6B6"/>
<path d="M258.47 122.851L253.54 123.301L246.23 97.581C246.23 97.511 244.04 90.281 241.86 89.151C241.04 88.731 240.74 88.481 240.75 88.221C240.76 87.961 241.1 87.831 241.56 87.641C242.021 87.4786 242.456 87.2495 242.85 86.961C243.85 86.171 243.41 85.411 242.85 84.361C242.73 84.161 242.61 83.941 242.49 83.721C242.14 83.071 242.49 80.281 243.64 75.441C243.968 73.9919 244.748 72.6847 245.868 71.7085C246.988 70.7323 248.39 70.1378 249.87 70.011C250.791 69.9245 251.72 70.0213 252.603 70.2958C253.486 70.5703 254.306 71.017 255.015 71.6103C255.725 72.2035 256.31 72.9314 256.736 73.752C257.163 74.5725 257.422 75.4695 257.5 76.391C257.505 76.4509 257.505 76.5111 257.5 76.571L258.5 91.461L258.47 122.851Z" fill="#EF636B"/>
<path d="M239.13 214.461L235.7 214.441L234.18 200.911L239.24 200.951L239.13 214.461Z" fill="#FFB6B6"/>
<path d="M228.15 219.921C228.15 220.326 228.31 220.715 228.594 221.003C228.879 221.291 229.265 221.456 229.67 221.461L236.48 221.521L237.68 219.101L238.11 221.531H240.68L240.04 212.871L239.14 212.811L234.32 212.481V214.931L228.82 218.661C228.616 218.803 228.449 218.991 228.333 219.21C228.216 219.429 228.153 219.673 228.15 219.921Z" fill="#1D2355"/>
<path d="M275.2 211.961L271.92 212.971L266.39 200.531L271.23 199.051L275.2 211.961Z" fill="#FFB6B6"/>
<path d="M266.38 220.471C266.506 220.855 266.778 221.175 267.137 221.362C267.495 221.549 267.913 221.588 268.3 221.471L274.81 219.471L275.21 216.811L276.37 218.991L278.82 218.241L275.59 210.161L274.72 210.381L271.16 211.241L270.02 211.521L270.74 213.861L266.64 219.051C266.484 219.248 266.379 219.481 266.333 219.729C266.288 219.976 266.304 220.231 266.38 220.471Z" fill="#1D2355"/>
<path d="M232.24 100.761L225.7 119.761L225.48 121.281C223.83 122.841 225.9 123.361 225.13 123.771C224.36 124.181 223.83 125.341 224.88 125.541C225.93 125.741 225.51 200.961 229.96 203.841C234.41 206.721 244.67 209.911 243.86 205.701C243.05 201.491 243.34 149.451 243.34 149.451C243.34 149.451 265.17 204.851 266.66 204.871C268.15 204.891 278.82 200.871 278.33 198.961C277.84 197.051 258.46 148.961 259.77 147.091C261.08 145.221 261.59 144.441 260.29 144.311C258.99 144.181 258.61 144.901 258.54 143.111C258.47 141.321 258.25 136.891 258.25 136.891C258.25 136.891 257.31 119.391 250.73 109.721L250.17 103.981L232.24 100.761Z" fill="#1D2355"/>
<path d="M248.57 64.481L239.9 65.711L239.38 71.991L235.1 78.681C235.1 78.681 225.59 85.381 232.22 95.951L231.79 101.811L253.24 110.451L255.31 72.841L248.57 64.481Z" fill="#EF636B"/>
<path d="M234.03 133.011C233.759 132.45 233.717 131.805 233.913 131.213C234.109 130.622 234.528 130.13 235.08 129.841C235.194 129.78 235.315 129.733 235.44 129.701L235.81 121.351L240.11 120.041L238.36 131.431C238.478 131.945 238.421 132.484 238.198 132.962C237.976 133.44 237.6 133.831 237.13 134.071C236.59 134.344 235.964 134.391 235.389 134.204C234.814 134.017 234.336 133.609 234.06 133.071L234.03 133.011Z" fill="#FFB6B6"/>
<path d="M240.04 126.451L235.19 125.451L235.5 98.711C235.5 98.631 235.5 91.091 233.7 89.381C233.04 88.751 232.82 88.381 232.91 88.181C233 87.981 233.35 87.901 233.84 87.851C234.327 87.8236 234.809 87.7294 235.27 87.571C236.45 87.091 236.27 86.241 235.97 85.061C235.91 84.831 235.85 84.591 235.8 84.351C235.66 83.621 236.8 81.061 239.26 76.741C239.986 75.4433 241.106 74.4104 242.458 73.7919C243.81 73.1734 245.324 73.0014 246.78 73.301C247.688 73.4799 248.551 73.837 249.32 74.3516C250.088 74.8662 250.748 75.528 251.259 76.2989C251.771 77.0698 252.124 77.9344 252.299 78.8428C252.475 79.7511 252.468 80.6852 252.28 81.591C252.284 81.6476 252.284 81.7044 252.28 81.761L248.97 96.311L240.04 126.451Z" fill="#EF636B"/>
<path d="M243.36 64.251C248.712 64.251 253.05 59.9126 253.05 54.561C253.05 49.2094 248.712 44.871 243.36 44.871C238.008 44.871 233.67 49.2094 233.67 54.561C233.67 59.9126 238.008 64.251 243.36 64.251Z" fill="#FFB6B6"/>
<path d="M256.2 68.001C257.5 69.86 258.371 71.9844 258.75 74.221C257.699 74.8812 256.481 75.2281 255.24 75.221C255.24 75.051 255.15 74.891 255.11 74.731C254.749 73.4679 254.21 72.2625 253.51 71.151C253.61 72.3511 253.449 73.5585 253.04 74.691C252.381 74.388 251.673 74.2051 250.95 74.151C250.366 74.148 249.79 74.2852 249.27 74.551C248.66 72.551 248.09 70.671 247.7 69.331C247.7 72.681 242.79 75.591 237.44 75.171C237.25 75.051 239.18 69.551 239 69.421C238.57 69.141 238.15 68.831 237.73 68.531C239.48 65.831 241.39 62.931 241.06 62.531C241.06 63.061 239.16 65.651 237.06 68.081C235.9 67.231 242.48 53.391 239.23 52.271C239.17 52.761 238.46 52.761 237.58 52.661C237.359 51.8536 237.022 51.0823 236.58 50.371C236.637 51.0872 236.552 51.8076 236.33 52.491C235.466 52.4901 234.605 52.5806 233.76 52.761C233.564 52.4532 233.347 52.1592 233.11 51.881C233.148 52.2132 233.148 52.5488 233.11 52.881C232.516 52.9418 231.944 53.1404 231.44 53.461C230.76 53.211 231.91 52.091 231.49 51.461C230.42 50.011 232.01 47.901 233.02 46.461C234.103 44.962 235.69 43.9041 237.491 43.4816C239.291 43.059 241.183 43.3003 242.82 44.161C242.96 43.661 243.7 43.331 244.66 43.101C245.064 43.0137 245.477 42.9767 245.89 42.991C249.99 43.061 255.69 46.451 255.89 50.541C255.89 50.951 255.94 51.401 255.97 51.881C256.26 56.461 255.9 60.691 259.03 64.051C260.17 65.261 260.18 71.051 259.74 73.961C258.64 72.791 257.82 68.161 256.2 68.001Z" fill="#1D2355"/>
<path d="M200.68 221.041C200.68 221.232 200.756 221.415 200.891 221.55C201.026 221.685 201.209 221.761 201.4 221.761H301.13C301.231 221.773 301.333 221.763 301.431 221.733C301.528 221.702 301.617 221.652 301.693 221.584C301.769 221.517 301.83 221.434 301.872 221.341C301.913 221.248 301.935 221.148 301.935 221.046C301.935 220.944 301.913 220.844 301.872 220.751C301.83 220.658 301.769 220.575 301.693 220.508C301.617 220.44 301.528 220.39 301.431 220.359C301.333 220.329 301.231 220.319 301.13 220.331H201.4C201.306 220.33 201.213 220.347 201.125 220.382C201.038 220.417 200.959 220.469 200.892 220.535C200.825 220.601 200.771 220.68 200.735 220.767C200.699 220.854 200.68 220.947 200.68 221.041Z" fill="#CCCCCC"/>
<path d="M136.53 64.311H13.2001C12.4946 64.311 11.818 64.0308 11.3192 63.5319C10.8203 63.0331 10.5401 62.3565 10.5401 61.651C10.5401 60.9455 10.8203 60.2689 11.3192 59.7701C11.818 59.2713 12.4946 58.991 13.2001 58.991H136.53C137.236 58.991 137.912 59.2713 138.411 59.7701C138.91 60.2689 139.19 60.9455 139.19 61.651C139.19 62.3565 138.91 63.0331 138.411 63.5319C137.912 64.0308 137.236 64.311 136.53 64.311Z" fill="#1D2355"/>
<path d="M136.53 121.031H13.2001C12.4946 121.031 11.818 120.751 11.3192 120.252C10.8203 119.753 10.5401 119.076 10.5401 118.371C10.5401 117.666 10.8203 116.989 11.3192 116.49C11.818 115.991 12.4946 115.711 13.2001 115.711H136.53C137.236 115.711 137.912 115.991 138.411 116.49C138.91 116.989 139.19 117.666 139.19 118.371C139.19 119.076 138.91 119.753 138.411 120.252C137.912 120.751 137.236 121.031 136.53 121.031Z" fill="#ED467C"/>
<path d="M198.97 92.691H13.2001C12.4946 92.691 11.818 92.4108 11.3192 91.9119C10.8203 91.4131 10.5401 90.7365 10.5401 90.031C10.5401 89.3255 10.8203 88.6489 11.3192 88.1501C11.818 87.6512 12.4946 87.371 13.2001 87.371H198.97C199.676 87.371 200.352 87.6512 200.851 88.1501C201.35 88.6489 201.63 89.3255 201.63 90.031C201.63 90.7365 201.35 91.4131 200.851 91.9119C200.352 92.4108 199.676 92.691 198.97 92.691Z" fill="#E6B66D"/>
<path d="M139.19 129.021C139.031 129.021 138.878 128.958 138.766 128.845C138.653 128.733 138.59 128.58 138.59 128.421V108.321C138.609 108.174 138.681 108.039 138.792 107.941C138.904 107.843 139.047 107.789 139.195 107.789C139.343 107.789 139.487 107.843 139.598 107.941C139.709 108.039 139.781 108.174 139.8 108.321V128.421C139.8 128.501 139.784 128.579 139.753 128.653C139.723 128.726 139.678 128.793 139.621 128.849C139.564 128.905 139.497 128.949 139.423 128.978C139.349 129.008 139.27 129.022 139.19 129.021Z" fill="#1D2355"/>
<path d="M8.33424e-05 51.401C8.33424e-05 51.2419 0.063297 51.0893 0.175819 50.9767C0.288341 50.8642 0.440952 50.801 0.600082 50.801H20.7001C20.7861 50.7899 20.8734 50.7973 20.9563 50.8226C21.0392 50.848 21.1158 50.8907 21.1809 50.9479C21.246 51.0052 21.2981 51.0757 21.3338 51.1546C21.3695 51.2336 21.388 51.3193 21.388 51.406C21.388 51.4927 21.3695 51.5784 21.3338 51.6574C21.2981 51.7364 21.246 51.8068 21.1809 51.8641C21.1158 51.9213 21.0392 51.964 20.9563 51.9894C20.8734 52.0147 20.7861 52.0221 20.7001 52.011H0.600082C0.52044 52.011 0.441595 51.9952 0.368141 51.9644C0.294686 51.9336 0.228088 51.8885 0.172241 51.8318C0.116393 51.775 0.0724117 51.7076 0.0428537 51.6337C0.0132958 51.5597 -0.00124402 51.4806 8.33424e-05 51.401Z" fill="#1D2355"/>
<path d="M10.6501 72.301C10.491 72.301 10.3383 72.2378 10.2258 72.1253C10.1133 72.0128 10.0501 71.8601 10.0501 71.701V51.601C10.069 51.4539 10.1409 51.3188 10.2522 51.2209C10.3636 51.123 10.5068 51.069 10.6551 51.069C10.8034 51.069 10.9466 51.123 11.0579 51.2209C11.1693 51.3188 11.2411 51.4539 11.2601 51.601V71.701C11.2601 71.7806 11.2442 71.8595 11.2135 71.933C11.1827 72.0064 11.1376 72.073 11.0808 72.1288C11.024 72.1847 10.9567 72.2287 10.8828 72.2582C10.8088 72.2878 10.7297 72.3023 10.6501 72.301Z" fill="#1D2355"/>
</svg>
