<svg width="310" height="230" viewBox="0 0 310 230" fill="none" xmlns="http://www.w3.org/2000/svg">
<path d="M86.1001 178.571H17.1801C13.1408 178.568 9.26747 176.963 6.41028 174.108C3.55308 171.253 1.94542 167.38 1.94012 163.341V15.271C1.94542 11.2308 3.55276 7.35746 6.40967 4.50055C9.26658 1.64364 13.1398 0.0362976 17.1801 0.0310059H86.0801C90.1195 0.0363025 93.9917 1.64397 96.847 4.50116C99.7024 7.35835 101.307 11.2317 101.31 15.271V163.341C101.307 167.379 99.702 171.252 96.8464 174.107C93.9908 176.963 90.1186 178.568 86.0801 178.571H86.1001Z" fill="#1D2355"/>
<path d="M101.33 54.501C101.16 54.501 100.998 54.5685 100.878 54.6885C100.758 54.8085 100.69 54.9713 100.69 55.141V75.771C100.71 75.9282 100.786 76.0729 100.905 76.1778C101.024 76.2827 101.177 76.3406 101.335 76.3406C101.494 76.3406 101.647 76.2827 101.765 76.1778C101.884 76.0729 101.96 75.9282 101.98 75.771V55.141C101.977 54.9704 101.908 54.8076 101.786 54.6879C101.665 54.5681 101.501 54.501 101.33 54.501Z" fill="#1D2355"/>
<path d="M99.8801 15.271V163.331C99.8825 166.831 98.5526 170.202 96.1605 172.757C93.7683 175.313 90.4932 176.862 87.0001 177.091H86.1101L84.1101 176.941C82.8001 176.851 80.9001 176.701 78.5201 176.511L76.2701 176.331L71.1001 175.901L68.8001 175.701C64.8001 175.361 60.3201 174.951 55.5901 174.501L53.1701 174.261L52.5301 174.201C49.1601 173.871 3.43011 165.031 3.43011 163.301V15.271C3.4301 11.6206 4.87747 8.11909 7.45496 5.53411C10.0324 2.94913 13.5297 1.49159 17.1801 1.48101H25.4101C26.0432 1.48693 26.6509 1.73096 27.1123 2.16454C27.5737 2.59812 27.8549 3.18948 27.9001 3.821V4.08101C28.0327 4.71942 28.384 5.29152 28.8934 5.69863C29.4027 6.10573 30.0382 6.32233 30.6901 6.31102H72.5101C73.1621 6.32233 73.7975 6.10573 74.3068 5.69863C74.8162 5.29152 75.1675 4.71942 75.3001 4.08101V3.821C75.3453 3.18948 75.6266 2.59812 76.088 2.16454C76.5493 1.73096 77.157 1.48693 77.7901 1.48101H86.0201C87.8373 1.47046 89.6386 1.81942 91.3204 2.50783C93.0021 3.19624 94.5311 4.2105 95.8193 5.49221C97.1075 6.77391 98.1296 8.29774 98.8265 9.976C99.5234 11.6543 99.8815 13.4538 99.8801 15.271Z" fill="white"/>
<path d="M1.64014 39.031C1.4704 39.031 1.30758 39.0985 1.18756 39.2185C1.06754 39.3385 1.00012 39.5013 1.00012 39.671V44.831C1.01974 44.9883 1.09613 45.1329 1.2149 45.2378C1.33368 45.3427 1.48669 45.4005 1.64514 45.4005C1.8036 45.4005 1.95654 45.3427 2.07532 45.2378C2.19409 45.1329 2.27048 44.9883 2.2901 44.831V39.671C2.28747 39.5004 2.21787 39.3376 2.09625 39.2179C1.97464 39.0981 1.81081 39.031 1.64014 39.031Z" fill="#1D2355"/>
<path d="M1.64014 54.501C1.4704 54.501 1.30759 54.5685 1.18756 54.6885C1.06754 54.8085 1.00012 54.9713 1.00012 55.141V65.141C0.988716 65.2324 0.996851 65.3253 1.02405 65.4133C1.05125 65.5014 1.0969 65.5827 1.1579 65.6517C1.21889 65.7208 1.29387 65.7761 1.37787 65.814C1.46187 65.8519 1.55299 65.8715 1.64514 65.8715C1.7373 65.8715 1.82835 65.8519 1.91236 65.814C1.99636 65.7761 2.07133 65.7208 2.13233 65.6517C2.19332 65.5827 2.23898 65.5014 2.26618 65.4133C2.29337 65.3253 2.30151 65.2324 2.2901 65.141V55.141C2.28748 54.9704 2.21787 54.8076 2.09625 54.6879C1.97464 54.5681 1.81081 54.501 1.64014 54.501Z" fill="#1D2355"/>
<path d="M1.64014 68.681C1.4704 68.681 1.30759 68.7484 1.18756 68.8685C1.06754 68.9885 1.00012 69.1513 1.00012 69.321V79.321C0.988716 79.4125 0.996851 79.5053 1.02405 79.5933C1.05125 79.6814 1.0969 79.7626 1.1579 79.8317C1.21889 79.9008 1.29387 79.9561 1.37787 79.994C1.46187 80.0319 1.55299 80.0515 1.64514 80.0515C1.7373 80.0515 1.82835 80.0319 1.91236 79.994C1.99636 79.9561 2.07133 79.9008 2.13233 79.8317C2.19332 79.7626 2.23898 79.6814 2.26618 79.5933C2.29337 79.5053 2.30151 79.4125 2.2901 79.321V69.321C2.28748 69.1504 2.21787 68.9876 2.09625 68.8679C1.97464 68.7481 1.81081 68.681 1.64014 68.681Z" fill="#1D2355"/>
<path d="M25.2101 3.74102H12.8801C12.8138 3.74102 12.7601 3.79475 12.7601 3.86102V5.23102C12.7601 5.29729 12.8138 5.35102 12.8801 5.35102H25.2101C25.2764 5.35102 25.3301 5.29729 25.3301 5.23102V3.86102C25.3301 3.79475 25.2764 3.74102 25.2101 3.74102Z" fill="#E2EAF4"/>
<path d="M79.9101 5.35102C80.6226 5.35102 81.2001 4.77347 81.2001 4.06102C81.2001 3.34857 80.6226 2.77102 79.9101 2.77102C79.1977 2.77102 78.6201 3.34857 78.6201 4.06102C78.6201 4.77347 79.1977 5.35102 79.9101 5.35102Z" fill="#E2EAF4"/>
<path d="M83.4501 5.35102C84.1626 5.35102 84.7401 4.77347 84.7401 4.06102C84.7401 3.34857 84.1626 2.77102 83.4501 2.77102C82.7377 2.77102 82.1601 3.34857 82.1601 4.06102C82.1601 4.77347 82.7377 5.35102 83.4501 5.35102Z" fill="#E2EAF4"/>
<path d="M87.0001 5.35102C87.7126 5.35102 88.2901 4.77347 88.2901 4.06102C88.2901 3.34857 87.7126 2.77102 87.0001 2.77102C86.2877 2.77102 85.7101 3.34857 85.7101 4.06102C85.7101 4.77347 86.2877 5.35102 87.0001 5.35102Z" fill="#E2EAF4"/>
<path d="M24.1801 90.911C23.7867 90.8795 23.4195 90.701 23.1517 90.411C22.884 90.121 22.7353 89.7407 22.7353 89.346C22.7353 88.9513 22.884 88.5711 23.1517 88.2811C23.4195 87.991 23.7867 87.8125 24.1801 87.781H78.8601C79.2536 87.8125 79.6207 87.991 79.8885 88.2811C80.1562 88.5711 80.3049 88.9513 80.3049 89.346C80.3049 89.7407 80.1562 90.121 79.8885 90.411C79.6207 90.701 79.2536 90.8795 78.8601 90.911H24.1801Z" fill="#E2EAF4"/>
<path d="M51.6901 151.441C64.1994 151.441 74.3401 141.3 74.3401 128.791C74.3401 116.282 64.1994 106.141 51.6901 106.141C39.1809 106.141 29.0401 116.282 29.0401 128.791C29.0401 141.3 39.1809 151.441 51.6901 151.441Z" fill="#E6B66D"/>
<path d="M55.2801 121.421C53.3701 121.501 51.2101 121.631 49.8001 123.101C49.1714 123.672 48.7927 124.467 48.7459 125.315C48.6991 126.163 48.988 126.995 49.5501 127.631C50.7901 128.991 52.7401 129.171 54.1701 130.241C54.5519 130.533 54.858 130.912 55.0625 131.347C55.267 131.782 55.3641 132.26 55.3455 132.74C55.3268 133.221 55.1931 133.689 54.9555 134.107C54.7179 134.525 54.3834 134.879 53.9801 135.141C52.0501 136.541 49.5601 135.891 47.8001 134.561C47.3501 134.221 46.9101 134.981 47.3601 135.321C48.1293 135.952 49.0345 136.397 50.0045 136.619C50.9745 136.841 51.9829 136.835 52.9501 136.601C53.8215 136.377 54.6029 135.891 55.1879 135.207C55.773 134.524 56.1334 133.677 56.2201 132.781C56.2877 131.884 56.0206 130.993 55.4701 130.281C54.8535 129.575 54.0695 129.035 53.1901 128.711C51.7301 128.071 49.1901 127.241 49.6301 125.151C50.1401 122.631 53.2201 122.391 55.2801 122.301C55.8501 122.301 55.8501 121.401 55.2801 121.421Z" fill="white"/>
<path d="M51.7401 120.201L51.6501 139.491C51.6501 139.608 51.6965 139.72 51.779 139.802C51.8615 139.885 51.9734 139.931 52.0901 139.931C52.2068 139.931 52.3187 139.885 52.4012 139.802C52.4838 139.72 52.5301 139.608 52.5301 139.491L52.6201 120.201C52.6201 120.084 52.5738 119.972 52.4913 119.89C52.4088 119.807 52.2968 119.761 52.1801 119.761C52.0634 119.761 51.9515 119.807 51.869 119.89C51.7864 119.972 51.7401 120.084 51.7401 120.201Z" fill="white"/>
<path d="M55.3501 60.931L52.1801 59.421C53.5772 61.572 54.6141 63.9363 55.2501 66.421C56.3413 64.1026 57.8039 61.9779 59.5801 60.131L56.1801 61.001C58.2801 50.741 66.1801 43.381 75.1801 43.381V42.601C65.7001 42.591 57.4901 50.261 55.3501 60.931Z" fill="#1D2355"/>
<path d="M44.3701 72.551H24.0601C23.6464 72.551 23.2496 72.3867 22.957 72.0941C22.6645 71.8016 22.5001 71.4048 22.5001 70.991C22.5001 70.5773 22.6645 70.1805 22.957 69.8879C23.2496 69.5954 23.6464 69.431 24.0601 69.431H44.3701C44.7839 69.431 45.1806 69.5954 45.4732 69.8879C45.7658 70.1805 45.9301 70.5773 45.9301 70.991C45.9301 71.4048 45.7658 71.8016 45.4732 72.0941C45.1806 72.3867 44.7839 72.551 44.3701 72.551Z" fill="#E2EAF4"/>
<path d="M286.09 221.971C286.294 221.979 286.495 221.924 286.667 221.814C286.838 221.704 286.972 221.544 287.051 221.356C287.129 221.168 287.148 220.96 287.105 220.761C287.062 220.562 286.959 220.38 286.81 220.241L286.75 219.971V219.901C286.949 219.4 287.294 218.971 287.739 218.668C288.185 218.366 288.711 218.204 289.25 218.204C289.789 218.204 290.315 218.366 290.761 218.668C291.207 218.971 291.551 219.4 291.75 219.901C292.714 221.798 293.417 223.816 293.84 225.901C293.949 226.812 293.901 227.736 293.7 228.631C295.594 224.484 296.576 219.98 296.58 215.421C296.582 214.275 296.518 213.13 296.39 211.991C296.28 211.061 296.14 210.131 295.95 209.211C294.927 204.22 292.738 199.543 289.56 195.561C288.022 194.722 286.779 193.43 286 191.861C285.711 191.298 285.509 190.694 285.4 190.071C285.739 189.183 285.915 188.241 285.92 187.291C286.17 186.921 286.6 186.741 286.86 186.381C288.18 184.601 289.99 184.911 290.93 187.381C292.93 188.381 292.93 190.091 291.73 191.721C290.94 192.721 290.84 194.151 290.14 195.261L290.36 195.531C291.662 197.201 292.795 198.996 293.74 200.891C293.514 198.77 293.791 196.625 294.55 194.631C295.479 192.815 296.65 191.133 298.03 189.631C298.367 189.2 298.824 188.879 299.343 188.707C299.863 188.536 300.421 188.522 300.949 188.667C301.476 188.813 301.948 189.111 302.306 189.525C302.664 189.938 302.892 190.448 302.96 190.991V191.061C302.77 191.161 302.59 191.281 302.4 191.401C302.174 191.554 301.999 191.771 301.898 192.025C301.797 192.279 301.775 192.557 301.834 192.823C301.894 193.09 302.032 193.332 302.231 193.519C302.43 193.706 302.68 193.829 302.95 193.871C302.879 194.546 302.758 195.214 302.59 195.871C304.22 202.171 300.7 204.471 295.68 204.571L295.35 204.741C295.857 206.177 296.261 207.648 296.56 209.141C296.83 210.462 297.02 211.797 297.13 213.141C297.27 214.825 297.27 216.517 297.13 218.201V218.141C297.498 216.268 298.497 214.577 299.96 213.351C302.14 211.561 305.22 210.911 307.57 209.471C307.82 209.311 308.11 209.225 308.407 209.224C308.704 209.223 308.995 209.307 309.246 209.465C309.497 209.624 309.697 209.85 309.824 210.119C309.95 210.388 309.998 210.687 309.96 210.981V211.041C309.617 211.188 309.284 211.355 308.96 211.541C308.768 211.645 308.581 211.758 308.4 211.881C308.173 212.032 307.996 212.249 307.895 212.502C307.793 212.755 307.77 213.034 307.83 213.3C307.889 213.566 308.028 213.809 308.228 213.994C308.428 214.18 308.68 214.301 308.95 214.341H309.03C308.429 215.769 307.591 217.084 306.55 218.231C305.55 223.731 301.15 224.231 296.46 222.651C295.947 224.885 295.203 227.06 294.24 229.141H286.3C286.269 229.052 286.242 228.962 286.22 228.871C286.956 228.918 287.695 228.874 288.42 228.741L286.65 226.571V226.521L285.75 225.421C285.734 224.286 285.865 223.153 286.14 222.051L286.09 221.971Z" fill="#F2F2F2"/>
<path d="M178.42 228.641C178.42 228.75 178.463 228.854 178.54 228.931C178.617 229.008 178.721 229.051 178.83 229.051H309.53C309.627 229.036 309.714 228.987 309.778 228.912C309.841 228.838 309.876 228.744 309.876 228.646C309.876 228.548 309.841 228.454 309.778 228.38C309.714 228.305 309.627 228.256 309.53 228.241H178.83C178.723 228.241 178.62 228.283 178.544 228.358C178.467 228.432 178.423 228.534 178.42 228.641Z" fill="#CCCCCC"/>
<path d="M222.92 10.971H96.9201C94.6976 10.971 92.5661 11.8539 90.9946 13.4255C89.423 14.997 88.5401 17.1285 88.5401 19.351V105.681C88.5427 107.903 89.4265 110.033 90.9975 111.604C92.5685 113.175 94.6984 114.058 96.9201 114.061H222.92C225.143 114.061 227.274 113.178 228.846 111.607C230.417 110.035 231.3 107.904 231.3 105.681V19.351C231.3 17.1285 230.417 14.997 228.846 13.4255C227.274 11.8539 225.143 10.971 222.92 10.971Z" fill="white"/>
<path d="M159.36 62.301C167.147 62.301 173.46 55.9882 173.46 48.201C173.46 40.4138 167.147 34.101 159.36 34.101C151.573 34.101 145.26 40.4138 145.26 48.201C145.26 55.9882 151.573 62.301 159.36 62.301Z" fill="#E6B66D"/>
<path d="M162.03 41.911C160.28 41.981 158.32 42.091 157.03 43.391C156.469 43.8807 156.111 44.5612 156.024 45.3004C155.937 46.0396 156.128 46.7848 156.56 47.391C157.56 48.721 159.37 48.971 160.75 49.831C161.176 50.0649 161.533 50.4054 161.787 50.8192C162.042 51.2329 162.184 51.7057 162.2 52.191C162.207 52.6648 162.105 53.1337 161.902 53.5619C161.699 53.9901 161.401 54.3661 161.03 54.661C159.2 56.151 156.71 55.531 154.98 54.231C154.64 53.981 154.31 54.551 154.64 54.811C155.337 55.383 156.154 55.7906 157.03 56.0036C157.906 56.2165 158.818 56.2293 159.7 56.041C160.514 55.8605 161.252 55.4332 161.814 54.8176C162.376 54.2019 162.734 53.4278 162.84 52.601C163.03 50.791 161.84 49.551 160.29 48.841C158.74 48.131 156.39 47.501 156.63 45.481C156.92 42.921 160.06 42.631 162.06 42.551C162.48 42.551 162.48 41.871 162.06 41.891L162.03 41.911Z" fill="white"/>
<path d="M158.99 40.711L158.91 58.841C158.924 58.92 158.965 58.9915 159.026 59.0431C159.087 59.0946 159.165 59.1229 159.245 59.1229C159.325 59.1229 159.403 59.0946 159.464 59.0431C159.525 58.9915 159.566 58.92 159.58 58.841L159.65 40.711C159.65 40.6235 159.615 40.5395 159.553 40.4777C159.492 40.4158 159.408 40.381 159.32 40.381C159.233 40.381 159.149 40.4158 159.087 40.4777C159.025 40.5395 158.99 40.6235 158.99 40.711Z" fill="white"/>
<path d="M222.92 10.971H96.9201C94.6976 10.971 92.5661 11.8539 90.9946 13.4255C89.423 14.997 88.5401 17.1285 88.5401 19.351V105.681C88.5427 107.903 89.4265 110.033 90.9975 111.604C92.5685 113.175 94.6984 114.058 96.9201 114.061H222.92C225.143 114.061 227.274 113.178 228.846 111.607C230.417 110.035 231.3 107.904 231.3 105.681V19.351C231.3 17.1285 230.417 14.997 228.846 13.4255C227.274 11.8539 225.143 10.971 222.92 10.971ZM230.42 105.681C230.42 107.67 229.63 109.578 228.223 110.984C226.817 112.391 224.909 113.181 222.92 113.181H96.9201C94.931 113.181 93.0233 112.391 91.6168 110.984C90.2103 109.578 89.4201 107.67 89.4201 105.681V19.351C89.4201 17.3619 90.2103 15.4543 91.6168 14.0477C93.0233 12.6412 94.931 11.851 96.9201 11.851H222.92C224.909 11.851 226.817 12.6412 228.223 14.0477C229.63 15.4543 230.42 17.3619 230.42 19.351V105.681Z" fill="#1D2355"/>
<path d="M145.41 19.491H133.04C132.74 19.491 132.453 19.6101 132.241 19.822C132.029 20.0339 131.91 20.3213 131.91 20.621C131.91 20.9207 132.029 21.2081 132.241 21.42C132.453 21.632 132.74 21.751 133.04 21.751H145.41C145.71 21.751 145.997 21.632 146.209 21.42C146.421 21.2081 146.54 20.9207 146.54 20.621C146.54 20.3213 146.421 20.0339 146.209 19.822C145.997 19.6101 145.71 19.491 145.41 19.491Z" fill="#E2EAF4"/>
<path d="M166.11 19.491H153.75C153.45 19.491 153.163 19.6101 152.951 19.822C152.739 20.0339 152.62 20.3213 152.62 20.621C152.62 20.9207 152.739 21.2081 152.951 21.42C153.163 21.632 153.45 21.751 153.75 21.751H166.11C166.41 21.751 166.697 21.632 166.909 21.42C167.121 21.2081 167.24 20.9207 167.24 20.621C167.24 20.3213 167.121 20.0339 166.909 19.822C166.697 19.6101 166.41 19.491 166.11 19.491Z" fill="#E2EAF4"/>
<path d="M186.82 19.491H174.46C174.16 19.491 173.873 19.6101 173.661 19.822C173.449 20.0339 173.33 20.3213 173.33 20.621C173.33 20.9207 173.449 21.2081 173.661 21.42C173.873 21.632 174.16 21.751 174.46 21.751H186.82C187.12 21.751 187.407 21.632 187.619 21.42C187.831 21.2081 187.95 20.9207 187.95 20.621C187.95 20.3213 187.831 20.0339 187.619 19.822C187.407 19.6101 187.12 19.491 186.82 19.491Z" fill="#E2EAF4"/>
<path d="M207.18 70.231H112.65C110.76 70.2337 108.948 70.9857 107.611 72.3223C106.275 73.6588 105.523 75.4708 105.52 77.361V83.801C105.52 85.6929 106.271 87.5075 107.608 88.8463C108.945 90.185 110.758 90.9384 112.65 90.941H207.18C209.072 90.9384 210.886 90.185 212.222 88.8463C213.559 87.5075 214.31 85.6929 214.31 83.801V77.361C214.307 75.4708 213.555 73.6588 212.219 72.3223C210.882 70.9857 209.07 70.2337 207.18 70.231Z" fill="#ED467C"/>
<path d="M270.97 103.601L270.74 121.591L266.26 137.631L262.68 136.291L264.27 121.591L264.06 101.701L270.97 103.601Z" fill="#FFB6B6"/>
<path d="M266.267 140.233C266.686 137.93 265.916 135.86 264.547 135.61C263.178 135.361 261.728 137.027 261.308 139.33C260.889 141.634 261.658 143.704 263.028 143.953C264.397 144.203 265.847 142.537 266.267 140.233Z" fill="#FFB6B6"/>
<path d="M265.53 82.181C265.53 82.181 273.2 82.281 273.2 86.351C273.2 88.651 272.7 109.541 271.32 122.231C270.26 132.011 268.24 134.561 268.24 134.561L263.39 123.561L265.53 82.191V82.181Z" fill="#E2EAF4"/>
<path d="M265.34 118.941H239.44C241.61 114.091 242.94 109.481 240.86 105.811L265.34 104.421C264.04 109.174 264.04 114.188 265.34 118.941Z" fill="#CA9864"/>
<path d="M262.18 76.011L251.89 75.301L247.64 80.621L245.48 81.011C243.916 81.2968 242.508 82.1384 241.515 83.3807C240.523 84.6231 240.013 86.1823 240.08 87.771L240.92 106.851L265.52 108.651L271.41 83.801L264.31 80.971L262.18 75.971V76.011Z" fill="#E2EAF4"/>
<path d="M199.4 81.761C200.073 82.3524 200.594 83.0965 200.92 83.931L208.27 89.751L205.4 93.161L198.26 86.891C197.393 86.6561 196.597 86.2133 195.94 85.601C194.27 84.101 193.69 82.031 194.65 80.971C195.61 79.911 197.73 80.261 199.4 81.761Z" fill="#CA9864"/>
<path d="M251.36 86.661L223.2 105.661L203.01 91.661L206.01 86.171L221.93 95.421L236.58 84.121C241.8 79.221 248.34 80.171 251.36 86.661Z" fill="#E2EAF4"/>
<path d="M256.39 73.701C260.604 73.701 264.02 70.285 264.02 66.071C264.02 61.8571 260.604 58.441 256.39 58.441C252.176 58.441 248.76 61.8571 248.76 66.071C248.76 70.285 252.176 73.701 256.39 73.701Z" fill="#CA9864"/>
<path d="M271.61 81.551H270.96C270.96 81.331 271.05 81.121 271.09 80.911C271.45 79.131 270.66 76.861 270.6 75.141C270.3 76.961 270.82 79.141 270.28 80.901C270.22 81.091 267.86 82.331 267.8 82.521C265.2 81.521 262.48 78.521 259.41 80.301C257.6 81.301 255.53 80.891 253.47 80.411C252.95 80.291 252.88 77.771 252.38 77.671C251.47 77.491 250.15 79.781 249.3 79.871L252.82 66.211C252.82 65.621 252.82 65.021 252.82 64.421L251.71 64.651C251.639 63.6659 251.349 62.7093 250.86 61.851C251.228 62.8173 251.228 63.8848 250.86 64.851L249.99 65.031C249.851 64.6428 249.578 64.3167 249.22 64.111C249.181 64.0964 249.139 64.0964 249.1 64.111C249.04 64.111 249.04 64.221 249.04 64.281C249.04 64.601 249.04 64.931 249.04 65.281L246.54 65.801V64.321C244.39 59.471 249.28 55.211 254.79 54.381C256.06 53.141 258.14 52.751 261.51 53.681C263.87 54.351 266.22 54.871 267.96 56.821C269.843 59.0289 271.036 61.7412 271.39 64.621C272.597 70.1926 272.672 75.95 271.61 81.551Z" fill="#1D2355"/>
<path d="M265.53 218.891L261.33 218.991L258.99 200.111L265.19 199.971L265.53 218.891Z" fill="#CA9864"/>
<path d="M251.12 227.661C251.101 227.979 251.208 228.291 251.417 228.531C251.627 228.771 251.923 228.918 252.24 228.941H260.58C260.893 227.9 261.428 226.939 262.148 226.124C262.868 225.309 263.756 224.66 264.75 224.221L264.98 228.941H269.28L268.76 221.361C268.76 221.361 269.91 217.301 267.52 215.221C265.13 213.141 267.07 213.441 267.07 213.441L266.12 208.741L259.62 209.501V216.881L256.46 224.191L251.83 226.481C251.621 226.597 251.447 226.768 251.329 226.977C251.211 227.185 251.152 227.422 251.16 227.661H251.12Z" fill="#1D2355"/>
<path d="M252.75 215.811L248.71 216.981L241.66 199.311L247.62 197.601L252.75 215.811Z" fill="#CA9864"/>
<path d="M241.03 227.951C241.055 228.11 241.112 228.262 241.197 228.399C241.282 228.536 241.394 228.654 241.525 228.747C241.656 228.84 241.805 228.906 241.962 228.941C242.119 228.976 242.282 228.98 242.44 228.951L250.51 226.831C250.549 225.746 250.822 224.682 251.311 223.712C251.799 222.742 252.491 221.889 253.34 221.211L254.76 225.721L258.92 224.631L256.5 217.421C256.5 217.421 256.58 213.201 253.74 211.801C250.9 210.401 252.85 210.191 252.85 210.191L250.75 205.881L244.65 208.271L246.48 215.421L245.28 223.291L241.39 226.681C241.214 226.844 241.087 227.053 241.024 227.285C240.96 227.516 240.962 227.761 241.03 227.991V227.951Z" fill="#1D2355"/>
<path d="M262.95 117.821L265.6 118.701C269.73 126.331 271.48 136.471 271.25 148.701L266.55 203.601H258.87L253.25 142.421L243.34 165.421L250.59 203.621L243.34 204.361L228.73 164.641L238.9 118.421L262.9 117.811L262.95 117.821Z" fill="#1D2355"/>
</svg>
