<?xml version="1.0" encoding="iso-8859-1"?>
<!-- Generator: Adobe Illustrator 19.0.0, SVG Export Plug-In . SVG Version: 6.00 Build 0)  -->
<svg version="1.1" width="32" height="32" id="Layer_1" xmlns="http://www.w3.org/2000/svg" xmlns:xlink="http://www.w3.org/1999/xlink" x="0px" y="0px"
	 viewBox="0 0 508 508" style="enable-background:new 0 0 508 508;" xml:space="preserve">
<circle style="fill:#FD8469;" cx="254" cy="254" r="254"/>
<g>
	<path style="fill:#FFFFFF;" d="M209.2,94H140v46.8h69.2c12.8,0,23.2-10.4,23.2-23.2S222,94,209.2,94z"/>
	<path style="fill:#FFFFFF;" d="M243.2,162.4H140v46.8h103.2c12.8,0,23.2-10.4,23.2-23.2C266.4,172.8,256,162.4,243.2,162.4z"/>
	<path style="fill:#FFFFFF;" d="M277.2,230.8H140v46.8h137.2c12.8,0,23.2-10.4,23.2-23.2C300.4,241.2,290,230.8,277.2,230.8z"/>
	<path style="fill:#FFFFFF;" d="M310.8,299.2H140V346h171.2c12.8,0,23.2-10.4,23.2-23.2C334.4,309.6,323.6,299.2,310.8,299.2z"/>
	<path style="fill:#FFFFFF;" d="M344.8,367.6H140v46.8h204.8c12.8,0,23.2-10.4,23.2-23.2C368,378,357.6,367.6,344.8,367.6z"/>
</g>
<path style="fill:#FF7058;" d="M174.8,129.6l-2.4-6h-11.6l-2.8,6h-6.4l12-27.6h6l12,27.6H174.8z M166.4,110l-3.6,8h7.2L166.4,110z"
	/>
<path style="fill:#FFD05B;" d="M167.2,198h-12v-27.6H166c2,0,3.6,0.4,4.8,0.8c1.2,0.4,2.4,1.2,3.2,2c1.2,1.6,2,3.2,2,4.8
	c0,2-0.8,3.6-2,4.8c-0.4,0.4-0.8,0.8-0.8,0.8s-0.4,0.4-0.8,0.4c1.6,0.4,3.2,1.2,4,2.4c1.2,1.2,1.6,2.8,1.6,4.4c0,2-0.8,3.6-2,5.2
	C173.6,197.2,170.8,198,167.2,198z M161.2,181.6h2.8c1.6,0,2.8,0,4-0.4c0.8-0.4,1.2-1.2,1.2-2.4s-0.4-2-1.2-2.4s-2-0.4-4-0.4h-2.8
	V181.6z M161.2,192.8h4.4c1.6,0,3.2-0.4,4-0.8c0.8-0.4,1.2-1.2,1.2-2.4s-0.4-2-1.6-2.4c-0.8-0.4-2.4-0.8-4.4-0.8h-3.6L161.2,192.8
	L161.2,192.8z"/>
<path style="fill:#2C9984;" d="M167.6,261.2c3.2,0,5.6-1.2,7.6-3.6l4,4c-3.2,3.6-6.8,5.2-11.2,5.2s-7.6-1.2-10.4-4
	c-2.8-2.8-4-6-4-10.4s1.6-7.6,4.4-10.4c2.8-2.8,6.4-4,10.4-4c4.4,0,8.4,1.6,11.6,5.2l-4,4.4c-2-2.4-4.4-3.6-7.2-3.6
	c-2.4,0-4.4,0.8-6,2.4c-1.6,1.6-2.4,3.6-2.4,6c0,2.4,0.8,4.8,2.4,6.4C163.6,260.4,165.6,261.2,167.6,261.2z"/>
<path style="fill:#F1543F;" d="M176,310.8c2.8,2.4,4,5.6,4,10s-1.2,7.6-4,10.4c-2.4,2.4-6.4,3.6-12,3.6h-9.6v-27.6h10
	C169.6,307.2,173.6,308.4,176,310.8z M171.6,327.2c1.6-1.6,2.4-3.6,2.4-6.4s-0.8-4.8-2.4-6.4c-1.6-1.6-4-2.4-7.2-2.4h-3.6v16.8h4
	C168,329.6,170,328.8,171.6,327.2z"/>
<path style="fill:#54C0EB;" d="M174.8,375.6v5.6h-14v5.6h12.4v5.2h-12.4v5.6h14.4v5.6h-20.4v-27.6L174.8,375.6L174.8,375.6z"/>
<g>
</g>
<g>
</g>
<g>
</g>
<g>
</g>
<g>
</g>
<g>
</g>
<g>
</g>
<g>
</g>
<g>
</g>
<g>
</g>
<g>
</g>
<g>
</g>
<g>
</g>
<g>
</g>
<g>
</g>
</svg>
