<?xml version="1.0" encoding="iso-8859-1"?>
<!-- Generator: Adobe Illustrator 19.0.0, SVG Export Plug-In . SVG Version: 6.00 Build 0)  -->
<svg version="1.1" width="18" height="18" id="Layer_1" xmlns="http://www.w3.org/2000/svg" xmlns:xlink="http://www.w3.org/1999/xlink" x="0px" y="0px"
	 viewBox="0 0 511.984 511.984" style="enable-background:new 0 0 511.984 511.984;" xml:space="preserve">
<g>
	<path style="fill:#E6E9ED;" d="M111.512,127.996H10.671C4.78,127.996,0,132.777,0,138.667c0,5.891,4.78,10.664,10.671,10.664
		h100.841V127.996z"/>
	<path style="fill:#E6E9ED;" d="M132.855,191.994H31.999c-5.891,0-10.672,4.773-10.672,10.664c0,5.898,4.781,10.671,10.672,10.671
		h100.856V191.994z"/>
	<path style="fill:#E6E9ED;" d="M154.182,255.992H53.326c-5.891,0-10.672,4.773-10.672,10.664c0,5.897,4.781,10.679,10.672,10.679
		h100.856V255.992z"/>
	<path style="fill:#E6E9ED;" d="M74.653,319.99c-5.891,0-10.655,4.781-10.655,10.656c0,5.906,4.765,10.671,10.655,10.671h100.856
		V319.99H74.653z"/>
	<polygon style="fill:#E6E9ED;" points="426.346,170.721 363.255,170.666 321.505,170.666 319.959,362.644 511.765,362.644 
		511.984,255.992 	"/>
</g>
<path style="fill:#A0D468;" d="M362.614,341.317c0,11.781-9.547,21.327-21.328,21.327H106.652c-11.78,0-21.327-9.546-21.327-21.327
	l0.016-213.321c0-11.781,9.562-21.328,21.327-21.328h234.634c11.781,0,21.328,9.547,21.328,21.328L362.614,341.317z"/>
<path style="fill:#434A54;" d="M127.996,351.989c0,29.452,23.874,53.327,53.326,53.327s53.327-23.875,53.327-53.327
	c0-29.468-23.875-53.343-53.327-53.343S127.996,322.521,127.996,351.989z"/>
<path style="fill:#F5F7FA;" d="M170.65,351.989c0,5.891,4.781,10.655,10.672,10.655s10.672-4.765,10.672-10.655
	s-4.781-10.672-10.672-10.672S170.65,346.098,170.65,351.989z"/>
<path style="fill:#434A54;" d="M373.316,351.989c0,29.452,23.874,53.327,53.327,53.327c29.451,0,53.326-23.875,53.326-53.327
	c0-29.468-23.875-53.343-53.326-53.343C397.19,298.646,373.316,322.521,373.316,351.989z"/>
<path style="fill:#F5F7FA;" d="M415.971,351.989c0,5.891,4.781,10.655,10.672,10.655s10.656-4.765,10.656-10.655
	s-4.766-10.672-10.656-10.672S415.971,346.098,415.971,351.989z"/>
<g>
</g>
<g>
</g>
<g>
</g>
<g>
</g>
<g>
</g>
<g>
</g>
<g>
</g>
<g>
</g>
<g>
</g>
<g>
</g>
<g>
</g>
<g>
</g>
<g>
</g>
<g>
</g>
<g>
</g>
</svg>
