<?xml version="1.0" encoding="iso-8859-1"?>
<!-- Generator: Adobe Illustrator 19.0.0, SVG Export Plug-In . SVG Version: 6.00 Build 0)  -->
<svg version="1.1" width="15" height="15" id="Layer_1" xmlns="http://www.w3.org/2000/svg" xmlns:xlink="http://www.w3.org/1999/xlink" x="0px" y="0px"
	 viewBox="0 0 512 512" style="enable-background:new 0 0 512 512;" xml:space="preserve">
<path style="fill:#7FA339;" d="M160.662,78.755c-38.851,38.851-53.683,92.616-44.519,142.864
	c50.249,9.165,104.014-5.668,142.865-44.519s53.683-92.616,44.519-142.864C253.279,25.073,199.512,39.906,160.662,78.755z"/>
<g>
	<polygon style="fill:#9CA9A4;" points="361.178,320.946 361.178,248.956 218.092,321.378 218.092,248.956 75.874,321.378 
		43.193,400.881 75.874,480.382 503.83,480.382 503.83,248.956 	"/>
	<polygon style="fill:#9CA9A4;" points="75.874,64.303 75.874,96.984 42.022,118.771 8.17,96.984 8.17,64.303 	"/>
</g>
<polygon style="fill:#EBEEED;" points="332.647,406.014 354.435,426.859 332.647,447.704 247.056,447.704 225.269,426.859 
	247.056,406.014 "/>
<g>
	<rect x="332.647" y="406.016" style="fill:#CED4D2;" width="85.591" height="41.69"/>
	<rect x="161.465" y="406.016" style="fill:#CED4D2;" width="85.591" height="41.69"/>
	<rect x="8.17" y="96.986" style="fill:#CED4D2;" width="67.704" height="383.401"/>
</g>
<path d="M508.113,241.999c-2.417-1.488-5.429-1.614-7.964-0.337l-130.801,66.01v-58.714c0-2.839-1.474-5.474-3.891-6.961
	c-2.419-1.487-5.435-1.611-7.968-0.329l-131.225,66.418v-59.129c0-2.842-1.477-5.481-3.901-6.966
	c-2.423-1.485-5.445-1.605-7.977-0.315L84.044,308.05v-42.775l34.898-34.899c8.725,1.363,17.47,2.038,26.169,2.038
	c44.496,0,87.677-17.538,119.674-49.534c39.271-39.271,56.759-95.387,46.778-150.108c-0.61-3.344-3.227-5.962-6.571-6.572
	c-54.72-9.979-110.836,7.508-150.109,46.779c-38.251,38.25-55.823,92.479-47.491,145.836l-23.348,23.35V64.299
	c0-4.512-3.658-8.17-8.17-8.17H8.17c-4.512,0-8.17,3.658-8.17,8.17v416.085c0,4.512,3.658,8.17,8.17,8.17h495.66
	c4.513,0,8.17-3.658,8.17-8.17V248.957C512,246.12,510.528,243.487,508.113,241.999z M166.439,84.533
	c34.128-34.126,82.347-50.043,129.973-43.18c6.863,47.63-9.054,95.845-43.18,129.973c-31.636,31.637-75.381,47.607-119.544,44.305
	L279.24,70.075c3.191-3.191,3.191-8.364,0-11.555c-3.192-3.191-8.364-3.191-11.555,0L122.134,204.076
	C118.831,159.915,134.802,116.171,166.439,84.533z M67.704,72.469v16.34H16.34v-16.34H67.704z M495.66,472.213H84.044V354.06
	c0-4.512-3.658-8.17-8.17-8.17c-4.512,0-8.17,3.658-8.17,8.17v118.153H16.34V105.15h51.363v216.23c0,2.842,1.477,5.481,3.901,6.966
	c2.423,1.485,5.444,1.605,7.977,0.315l130.341-66.373v59.092c0,2.839,1.474,5.474,3.892,6.961c2.417,1.486,5.434,1.612,7.968,0.329
	l131.224-66.418v58.696c0,2.837,1.472,5.471,3.888,6.958c2.415,1.487,5.428,1.614,7.963,0.337l130.801-66.011V472.213z"/>
<path d="M161.465,397.847c-4.512,0-8.17,3.658-8.17,8.17v41.685c0,4.512,3.658,8.17,8.17,8.17c4.512,0,8.17-3.658,8.17-8.17v-33.515
	h69.251v33.515c0,4.512,3.658,8.17,8.17,8.17c4.512,0,8.17-3.658,8.17-8.17v-33.515h69.251v33.515c0,4.512,3.657,8.17,8.17,8.17
	c4.512,0,8.17-3.658,8.17-8.17v-33.515h69.25v33.515c0,4.512,3.657,8.17,8.17,8.17c4.513,0,8.17-3.658,8.17-8.17v-41.685
	c0-4.512-3.657-8.17-8.17-8.17H161.465z"/>
<g>
</g>
<g>
</g>
<g>
</g>
<g>
</g>
<g>
</g>
<g>
</g>
<g>
</g>
<g>
</g>
<g>
</g>
<g>
</g>
<g>
</g>
<g>
</g>
<g>
</g>
<g>
</g>
<g>
</g>
</svg>
