<?xml version="1.0" encoding="iso-8859-1"?>
<!-- Generator: Adobe Illustrator 19.0.0, SVG Export Plug-In . SVG Version: 6.00 Build 0)  -->
<svg version="1.1" width="32" height="32" id="Layer_1" xmlns="http://www.w3.org/2000/svg" xmlns:xlink="http://www.w3.org/1999/xlink" x="0px" y="0px"
	 viewBox="0 0 508 508" style="enable-background:new 0 0 508 508;" xml:space="preserve">
<circle style="fill:#324A5E;" cx="254" cy="254" r="254"/>
<path style="fill:#FFFFFF;" d="M386.4,293.2c0,73.2-59.2,132.4-132.4,132.4s-132.4-59.2-132.4-132.4S254,82.4,254,82.4
	S386.4,220,386.4,293.2z"/>
<g>
	<path style="fill:#FF7058;" d="M212.4,262.8h15.2v67.6h-15.2v-26.8h-26.8v26.8h-15.2v-67.6h15.2v28.4h26.8V262.8z"/>
	<path style="fill:#FF7058;" d="M254.8,334.4c1.2-1.6,1.6-3.2,1.6-4.4c0-1.6-0.4-2.8-1.6-3.6c-0.8-0.8-2-1.6-3.6-1.6
		c-2.8,0-5.2,2-7.6,5.6L236,326c2-3.2,4-5.6,6.4-7.2s5.6-2.4,9.2-2.4s6.8,1.2,9.6,3.6s4,5.6,4,9.6c0,2.4-0.4,4.4-1.6,6.4
		s-3.2,4.8-6.4,7.6l-7.6,8h16.8v8.4H236v-7.2l12.4-12.8C252,338,253.6,336,254.8,334.4z"/>
	<path style="fill:#FF7058;" d="M327.2,321.2c-6.8,6.8-15.2,10-25.2,10s-18.4-3.2-25.2-10c-6.8-6.8-10.4-15.2-10.4-24.8
		c0-10,3.6-18.4,10.4-24.8c6.8-6.8,15.2-10,25.2-10s18.4,3.2,25.2,10s10.4,15.2,10.4,24.8C337.6,306.4,334,314.8,327.2,321.2z
		 M322,296.4c0-6-2-11.2-6-15.6s-8.8-6.4-14.4-6.4s-10.4,2-14.4,6.4s-6,9.6-6,15.6s2,11.2,6,15.6s8.8,6.4,14.4,6.4s10.4-2,14.4-6.4
		S322,302.4,322,296.4z"/>
</g>
<g>
</g>
<g>
</g>
<g>
</g>
<g>
</g>
<g>
</g>
<g>
</g>
<g>
</g>
<g>
</g>
<g>
</g>
<g>
</g>
<g>
</g>
<g>
</g>
<g>
</g>
<g>
</g>
<g>
</g>
</svg>
