<svg width="350" height="230" xmlns="http://www.w3.org/2000/svg" data-name="Capa 1">
 <defs>
  <linearGradient y2="0.151" x2="0.50001" y1="0.90233" x1="0.50001" id="Degradado_sin_nombre_18">
   <stop stop-color="#0c2c41" offset="0"/>
   <stop stop-color="#6db32d" offset="0.58"/>
   <stop stop-color="#3ba9e0" offset="1"/>
  </linearGradient>
 </defs>
 <title>manual bia</title>
 <g>
  <title>Layer 1</title>
  <path id="svg_1" fill="#0c2c41" d="m249.65,77.69a11.32,11.32 0 0 1 0.33,-5.57a9.1,9.1 0 0 1 5.89,-5.92a11.31,11.31 0 0 1 5.59,-0.31a11.25,11.25 0 0 1 -0.32,5.58a9,9 0 0 1 -2.23,3.67a9.18,9.18 0 0 1 -3.68,2.23a11.38,11.38 0 0 1 -5.58,0.32zm4.72,15.15l2.63,0a2.75,2.75 0 0 1 2.75,2.75l0,63.58a2.75,2.75 0 0 1 -2.75,2.75l-2.6,0a2.75,2.75 0 0 1 -2.75,-2.75l0,-63.58a2.75,2.75 0 0 1 2.72,-2.75z" class="cls-1"/>
  <path id="svg_2" fill="#0c2c41" d="m175.89,71.1a3.51,3.51 0 0 1 3.51,-3.5l27.6,0c17.4,0 25.24,10.36 25.24,22c0,8.77 -4.52,16.74 -14.61,20.06c12.48,2.79 19.92,12.36 19.92,25.64c0,15.28 -10.09,26.57 -31.75,26.57l-26.4,0a3.51,3.51 0 0 1 -3.51,-3.5l0,-87.27zm29.36,36.09c12.36,0 19,-6.91 19,-16.61c0,-9.3 -6,-15.54 -18.6,-15.54l-21.52,0l0,79.44l21.12,0c16.08,0 24.18,-7.31 24.18,-19.66c0,-12.62 -8.1,-21 -24.18,-21l-10.94,0a3.28,3.28 0 0 1 -3.28,-3.28l0,-1.71a1.54,1.54 0 0 1 1.52,-1.54l12.7,-0.1z" class="cls-1"/>
  <path id="svg_3" fill="#0c2c41" d="m273.14,127.38c0,-23.51 17,-35.87 34.27,-35.87c13,0 23.65,7.18 27.63,16.08l0.4,0l0,-12.3a2.45,2.45 0 0 1 2.45,-2.45l3.21,0a2.45,2.45 0 0 1 2.44,2.45l0,64.18a2.45,2.45 0 0 1 -2.44,2.45l-3.21,0a2.45,2.45 0 0 1 -2.45,-2.45l0,-12.3l-0.44,0c-4,8.9 -14.61,16.08 -27.63,16.08c-17.23,0 -34.23,-12.36 -34.23,-35.87zm34.49,27.62c13.14,0 26.41,-9.15 26.41,-27.57s-13.27,-27.57 -26.41,-27.57s-26.41,9 -26.41,27.57s13.27,27.57 26.41,27.57z" class="cls-1"/>
  <path id="svg_4" fill="url(#Degradado_sin_nombre_18)" d="m64.74,226.39a69.25,69.25 0 0 1 -43.32,-14.65c-6.23,-4.94 -16,-16.28 -16,-16.28a4.82,4.82 0 0 1 -0.45,-6.95l61.19,-66.3l7.06,6.52l-57.76,62.6s3.23,5.43 11.9,12.82c12.62,10.77 29.57,14.29 46,12a61.85,61.85 0 0 0 41.16,-24a67.85,67.85 0 0 0 13.59,-46.65a57.63,57.63 0 0 0 -22.5,-41.28l-0.11,-0.09l-38.1,-30.69l-55.74,57.24a4.8,4.8 0 0 1 -8.24,-3.36l0.19,-120a4.8,4.8 0 0 1 4.81,-4.8l50,0a54.85,54.85 0 0 1 52,72l-9.12,-3a45.37,45.37 0 0 0 2.27,-14.19a45.19,45.19 0 0 0 -45.18,-45.2l-45.2,0l-0.19,103.35l50.51,-51.88a4.82,4.82 0 0 1 6.46,-0.39l41.46,33.39c15.12,11.51 24.42,28.56 26.2,48a76.54,76.54 0 0 1 -15.48,53.4a72.17,72.17 0 0 1 -57.41,28.43l0,-0.04z" class="cls-2"/>
  <circle id="svg_5" fill="#3ba9e0" r="7.84" cy="68.75" cx="106.97" class="cls-3"/>
  <circle id="svg_6" fill="#91c02c" r="7.84" cy="126.94" cx="67.44" class="cls-4"/>
 </g>
</svg>