<svg id="Capa_1" data-name="Capa 1" xmlns="http://www.w3.org/2000/svg" viewBox="0 0 566.93 566.93"><defs><style>.cls-1{fill:#12284c;}</style></defs><title>manual bia </title><path class="cls-1" d="M274.8,360.21a9.59,9.59,0,0,1,.28-4.7,7.62,7.62,0,0,1,5-5,9.42,9.42,0,0,1,4.71-.27,9.54,9.54,0,0,1-.26,4.71,7.62,7.62,0,0,1-5,5A9.53,9.53,0,0,1,274.8,360.21Zm4,12.77H281a2.32,2.32,0,0,1,2.32,2.32v53.62a2.32,2.32,0,0,1-2.32,2.32h-2.19a2.32,2.32,0,0,1-2.32-2.32V375.3A2.32,2.32,0,0,1,278.78,373Z"/><path class="cls-1" d="M212.6,354.65a3,3,0,0,1,3-2.95h23.26c14.68,0,21.29,8.74,21.29,18.59,0,7.4-3.81,14.12-12.32,16.92,10.53,2.35,16.8,10.42,16.8,21.62,0,12.89-8.51,22.41-26.77,22.41H215.55a3,3,0,0,1-3-2.95Zm24.76,30.43c10.42,0,16-5.82,16-14,0-7.84-5-13.11-15.69-13.11H219.54v67h17.82c13.55,0,20.39-6.16,20.39-16.58,0-10.65-6.84-17.7-20.39-17.7h-9.23a2.77,2.77,0,0,1-2.77-2.77v-1.44a1.32,1.32,0,0,1,1.28-1.31Z"/><path class="cls-1" d="M294.61,402.11c0-19.83,14.34-30.25,28.91-30.25,11,0,19.94,6.05,23.3,13.56h.34V375.05a2.07,2.07,0,0,1,2.06-2.07h2.71a2.07,2.07,0,0,1,2.06,2.07v54.13a2.06,2.06,0,0,1-2.06,2.06h-2.71a2.06,2.06,0,0,1-2.06-2.06V418.81h-.34c-3.36,7.5-12.32,13.55-23.3,13.55C309,432.36,294.61,421.94,294.61,402.11Zm29.09,23.25c11.08,0,22.27-7.71,22.27-23.25s-11.19-23.25-22.27-23.25-22.27,7.61-22.27,23.25S312.62,425.36,323.7,425.36Z"/><path class="cls-1" d="M273.2,459a.17.17,0,0,1,.18.19V460a2.14,2.14,0,0,1,1.93-1.18,1.92,1.92,0,0,1,1.85,1.3,2.72,2.72,0,0,1,2.27-1.3c1.38,0,2.18,1,2.18,2.81v3.26c0,.12-.06.18-.17.18h-1a.16.16,0,0,1-.18-.18v-3c0-1-.42-1.73-1.25-1.73a1.38,1.38,0,0,0-1,.5,1.64,1.64,0,0,0-.46,1.16v3.08a.16.16,0,0,1-.18.18h-1a.16.16,0,0,1-.18-.18v-3c0-1-.42-1.73-1.25-1.73a1.33,1.33,0,0,0-1,.51,1.72,1.72,0,0,0-.44,1.15v3.08a.16.16,0,0,1-.18.18h-1a.16.16,0,0,1-.18-.18v-5.76a.17.17,0,0,1,.18-.19Z"/><path class="cls-1" d="M285.65,458.86a2.86,2.86,0,0,1,2.43.86,3.18,3.18,0,0,1,.59,2.13v3.06a.18.18,0,0,1-.2.2h-.93c-.14,0-.2-.06-.2-.2v-.52a3.41,3.41,0,0,1-2.42.84,1.78,1.78,0,0,1-.7-3.5,4.18,4.18,0,0,1,.89-.2,11.24,11.24,0,0,1,1.83-.11h.32v-.05c0-.87-.58-1.3-1.72-1.3a5.74,5.74,0,0,0-1.53.25l-.26.09a.19.19,0,0,1-.25-.11l-.26-.69c-.05-.14,0-.23.08-.27A5.27,5.27,0,0,1,285.65,458.86Zm1.64,3.39h-.17c-1.87,0-2.88.27-2.88,1.12,0,.62.43.94,1.28.94a2.14,2.14,0,0,0,1.23-.36,1,1,0,0,0,.54-.79Z"/><path class="cls-1" d="M294.72,464.44a.16.16,0,0,1-.07.25,3.14,3.14,0,0,1-1.81.54,3,3,0,0,1-2.23-.93,3.28,3.28,0,0,1,0-4.51,3,3,0,0,1,2.23-.93,3.23,3.23,0,0,1,1.8.55c.13.08.15.16.06.27l-.55.77c-.06.1-.14.11-.25,0a1.89,1.89,0,0,0-1.06-.3,1.71,1.71,0,0,0-1.27.53,1.89,1.89,0,0,0-.5,1.33,1.85,1.85,0,0,0,.51,1.32,1.7,1.7,0,0,0,1.26.54,2,2,0,0,0,1.08-.31.17.17,0,0,1,.24,0Z"/><path class="cls-1" d="M298.5,458.86a2.86,2.86,0,0,1,2.43.86,3.17,3.17,0,0,1,.58,2.13v3.06c0,.14-.06.2-.19.2h-.93c-.14,0-.2-.06-.2-.2v-.52a3.41,3.41,0,0,1-2.42.84,1.8,1.8,0,0,1-2.12-1.81,1.78,1.78,0,0,1,1.42-1.69,4.18,4.18,0,0,1,.89-.2,11.24,11.24,0,0,1,1.83-.11h.32v-.05c0-.87-.58-1.3-1.72-1.3a5.67,5.67,0,0,0-1.53.25l-.26.09c-.12,0-.21,0-.25-.11l-.26-.69c0-.14,0-.23.08-.27A5.27,5.27,0,0,1,298.5,458.86Zm1.64,3.39H300c-1.87,0-2.88.27-2.88,1.12,0,.62.43.94,1.28.94a2.14,2.14,0,0,0,1.23-.36,1,1,0,0,0,.54-.79Z"/><path class="cls-1" d="M304.31,459a.17.17,0,0,1,.18.19v.95h0a1.9,1.9,0,0,1,1.66-1.26,1.68,1.68,0,0,1,.87.19c.08,0,.11.13.06.25l-.27.95c0,.11-.13.13-.25.07a1.64,1.64,0,0,0-.56-.1,1.32,1.32,0,0,0-1.08.59,2.29,2.29,0,0,0-.44,1.42v2.7a.16.16,0,0,1-.18.18h-1a.16.16,0,0,1-.18-.18v-5.76a.17.17,0,0,1,.18-.19Z"/><path class="cls-1" d="M312,463.65a.2.2,0,0,1,.26.06l.46.65a.16.16,0,0,1-.06.25,4.25,4.25,0,0,1-2.25.62,3,3,0,0,1-2.23-.93,3.11,3.11,0,0,1-.92-2.25,3.27,3.27,0,0,1,.83-2.24,2.75,2.75,0,0,1,2.16-.95,2.68,2.68,0,0,1,2.19,1,3.58,3.58,0,0,1,.82,2.39c0,.14-.07.21-.22.21h-4.47a1.84,1.84,0,0,0,1.87,1.61A3.13,3.13,0,0,0,312,463.65Zm-.07-2.07a1.68,1.68,0,0,0-3.35,0Z"/><path class="cls-1" d="M318.74,465.11c-.13,0-.19-.06-.19-.18v-3c0-1.06-.48-1.73-1.42-1.73a1.42,1.42,0,0,0-1.1.51,1.62,1.62,0,0,0-.45,1.15v3.08a.17.17,0,0,1-.19.18h-1a.16.16,0,0,1-.18-.18v-5.76a.17.17,0,0,1,.18-.19h1a.17.17,0,0,1,.19.19v.89a2.38,2.38,0,0,1,2-1.2c1.53,0,2.34,1,2.34,2.81v3.26a.17.17,0,0,1-.19.18Z"/><path class="cls-1" d="M322.1,455.8a.84.84,0,1,1,0,1.67.84.84,0,0,1,0-1.67Zm-.49,9.31a.16.16,0,0,1-.18-.18v-5.76a.17.17,0,0,1,.18-.19h1a.17.17,0,0,1,.18.19v5.76a.16.16,0,0,1-.18.18Z"/><path class="cls-1" d="M327.05,458.86a2.86,2.86,0,0,1,2.43.86,3.17,3.17,0,0,1,.58,2.13v3.06c0,.14-.06.2-.19.2h-.93c-.14,0-.2-.06-.2-.2v-.52a3.41,3.41,0,0,1-2.42.84,1.81,1.81,0,0,1-2.12-1.81,1.78,1.78,0,0,1,1.42-1.69,4.18,4.18,0,0,1,.89-.2,11.24,11.24,0,0,1,1.83-.11h.32v-.05c0-.87-.58-1.3-1.72-1.3a5.67,5.67,0,0,0-1.53.25l-.26.09c-.12,0-.21,0-.25-.11l-.26-.69c-.05-.14,0-.23.08-.27A5.27,5.27,0,0,1,327.05,458.86Zm1.64,3.39h-.17c-1.87,0-2.88.27-2.88,1.12,0,.62.43.94,1.28.94a2.14,2.14,0,0,0,1.23-.36,1,1,0,0,0,.54-.79Z"/><circle class="cls-1" cx="271.64" cy="451.59" r="1.92"/><circle class="cls-1" cx="263.44" cy="455.56" r="1.92"/><circle class="cls-1" cx="265.03" cy="448.35" r="1.92"/><path class="cls-1" d="M269.69,454.86s-1.26-1.1-1-1.47a8.33,8.33,0,0,1,2.58-2.46l.79,1.31C271.45,452.59,269.89,453.75,269.69,454.86Z"/><path class="cls-1" d="M268.35,458.46a8.7,8.7,0,0,1-5.44-2.36L264,455l-.53.55L264,455s2.75,2.61,5.62,1.74c0,0-.08,1.6-.3,1.63A6.07,6.07,0,0,1,268.35,458.46Z"/><path class="cls-1" d="M263.69,460.5a5.09,5.09,0,0,1-5.07-4.65,4.53,4.53,0,0,1,0-.64,5.11,5.11,0,0,1,2.23-4,5.27,5.27,0,0,1-.7-1.83,4.57,4.57,0,0,1-.06-1.28,5.08,5.08,0,0,1,9.43-2.13,4.65,4.65,0,0,1,.39.85,5.11,5.11,0,0,1,4.61.8,3.23,3.23,0,0,1,.52.46,5.08,5.08,0,0,1-1.4,8.13,5.25,5.25,0,0,1-1.64.48c-.25,0-.61-.9-.77-1.31a.14.14,0,0,1,.14-.19,3.54,3.54,0,0,0,.59-7,3.42,3.42,0,0,0-1.94.26l-.26.12L269,449a.13.13,0,0,1-.2-.09l-.14-.88a3.45,3.45,0,0,0-.6-1.49,3.54,3.54,0,0,0-6.08,3.58,3.21,3.21,0,0,0,.59.86l.59.65a.13.13,0,0,1,0,.21l-.95.42a3.53,3.53,0,0,0-1.8,2,3.47,3.47,0,0,0,.16,2.7,3.54,3.54,0,0,0,4.46,1.76.16.16,0,0,1,.2.18c-.12.49-.37,1.46-.53,1.49A5,5,0,0,1,263.69,460.5Z"/><path class="cls-1" d="M268.63,456.78a10.3,10.3,0,0,1-3.82,8.25.09.09,0,0,0,.06.16h1.81a.33.33,0,0,0,.25-.11,11.4,11.4,0,0,0,3.22-8.37,11.79,11.79,0,0,0-4.56-8.75l-.9,1.23A10.24,10.24,0,0,1,268.63,456.78Z"/><path class="cls-1" d="M237.56,456.26v3.42h0A2.57,2.57,0,0,1,240,458.3a3.07,3.07,0,0,1,0,6.13,2.57,2.57,0,0,1-2.36-1.38h0v1.26h-.7v-8.05Zm2.3,7.53a2.43,2.43,0,1,0-2.33-2.43A2.27,2.27,0,0,0,239.86,463.79Z"/><path class="cls-1" d="M245.66,464.27l-2.49-5.85h.72l2.11,5,2.11-5h.73l-2.52,5.89-.95,2.16h-.68Z"/><path class="cls-1" d="M250.2,458.61a.43.43,0,1,1-.43.43A.41.41,0,0,1,250.2,458.61Zm-.43,5.38a.43.43,0,1,1,.43.44A.42.42,0,0,1,249.77,464Z"/><path class="cls-1" d="M277.21,336.21a73,73,0,0,1-45.62-15.43c-6.56-5.2-16.89-17.15-16.89-17.15a5.06,5.06,0,0,1-.47-7.31l64.44-69.83,7.43,6.86-60.83,65.93s3.41,5.72,12.53,13.51c13.3,11.34,31.15,15,48.46,12.68a65.21,65.21,0,0,0,43.35-25.32A71.51,71.51,0,0,0,343.92,251c-1.61-17.66-10-33.1-23.7-43.48l-.11-.09L280,175.13l-58.69,60.28a5.06,5.06,0,0,1-8.69-3.54l.2-126.36a5.06,5.06,0,0,1,5.06-5.05h0l52.65,0a57.73,57.73,0,0,1,57.7,57.73,57.86,57.86,0,0,1-2.91,18.12l-9.61-3.18a47.61,47.61,0,0,0-45.18-62.55h-47.6l-.18,108.82,53.2-54.64a5.06,5.06,0,0,1,6.8-.41l43.66,35.16c15.93,12.12,25.73,30.08,27.6,50.57a80.59,80.59,0,0,1-16.33,56.18,75.23,75.23,0,0,1-50,29.22A76.25,76.25,0,0,1,277.21,336.21Z"/><circle class="cls-1" cx="321.68" cy="170.19" r="8.26"/><circle class="cls-1" cx="280.05" cy="231.47" r="8.26"/></svg>