<svg id="Capa_1" data-name="Capa 1" xmlns="http://www.w3.org/2000/svg" viewBox="0 0 566.93 566.93"><defs><style>.cls-1{fill:#fff;}</style></defs><title>manual bia </title><path class="cls-1" d="M274.8,377.26a9.6,9.6,0,0,1,.28-4.7,7.7,7.7,0,0,1,1.88-3.1,7.57,7.57,0,0,1,3.09-1.89,9.66,9.66,0,0,1,4.71-.27,9.59,9.59,0,0,1-.26,4.72,7.68,7.68,0,0,1-1.89,3.09,7.88,7.88,0,0,1-3.1,1.88A9.66,9.66,0,0,1,274.8,377.26Zm4,12.77H281a2.32,2.32,0,0,1,2.32,2.32V446a2.31,2.31,0,0,1-2.32,2.32h-2.19a2.32,2.32,0,0,1-2.32-2.32V392.35A2.32,2.32,0,0,1,278.78,390Z"/><path class="cls-1" d="M212.6,371.7a3,3,0,0,1,3-2.95h23.26c14.68,0,21.29,8.74,21.29,18.6,0,7.39-3.81,14.11-12.32,16.91,10.53,2.36,16.8,10.42,16.8,21.63,0,12.88-8.51,22.4-26.77,22.4H215.55a3,3,0,0,1-3-3Zm24.76,30.44c10.42,0,16-5.83,16-14,0-7.84-5-13.11-15.69-13.11H219.54v67h17.82c13.55,0,20.39-6.16,20.39-16.58,0-10.64-6.84-17.7-20.39-17.7h-9.23a2.77,2.77,0,0,1-2.77-2.77v-1.44a1.3,1.3,0,0,1,1.28-1.3Z"/><path class="cls-1" d="M294.61,419.16c0-19.83,14.34-30.24,28.91-30.24,11,0,19.94,6.05,23.3,13.55h.34V392.1a2.07,2.07,0,0,1,2.06-2.07h2.71A2.07,2.07,0,0,1,354,392.1v54.13a2.06,2.06,0,0,1-2.06,2.06h-2.71a2.06,2.06,0,0,1-2.06-2.06V435.86h-.34c-3.36,7.5-12.32,13.55-23.3,13.55C309,449.41,294.61,439,294.61,419.16Zm29.09,23.25c11.08,0,22.27-7.71,22.27-23.25s-11.19-23.25-22.27-23.25-22.27,7.61-22.27,23.25S312.62,442.41,323.7,442.41Z"/><path class="cls-1" d="M277.21,353.26a72.91,72.91,0,0,1-45.62-15.43c-6.56-5.2-16.89-17.15-16.89-17.15a5.06,5.06,0,0,1-.47-7.31l64.44-69.83,7.43,6.87-60.83,65.93s3.41,5.71,12.53,13.5c13.3,11.34,31.15,15.05,48.46,12.68a65.21,65.21,0,0,0,43.35-25.32,71.51,71.51,0,0,0,14.31-49.13c-1.61-17.66-10-33.1-23.7-43.48l-.11-.09L280,192.18l-58.69,60.28a5.06,5.06,0,0,1-8.69-3.54l.2-126.35a5.07,5.07,0,0,1,5.06-5.06h0l52.65,0a57.75,57.75,0,0,1,54.79,75.85l-9.61-3.17a47.84,47.84,0,0,0,2.4-15,47.59,47.59,0,0,0-47.58-47.61h-47.6l-.18,108.82,53.2-54.64a5.06,5.06,0,0,1,6.8-.41l43.66,35.17c15.93,12.12,25.73,30.07,27.6,50.57a80.58,80.58,0,0,1-16.33,56.17,75.2,75.2,0,0,1-50,29.23A77.85,77.85,0,0,1,277.21,353.26Z"/><circle class="cls-1" cx="321.68" cy="187.25" r="8.26"/><circle class="cls-1" cx="280.05" cy="248.52" r="8.26"/></svg>