<svg width="150" height="150" id="Capa_1" data-name="Capa 1" xmlns="http://www.w3.org/2000/svg" xmlns:xlink="http://www.w3.org/1999/xlink" viewBox="0 0 566.93 566.93"><defs><style>.cls-1{fill:#0c2c41;}.cls-2{fill:url(#Degradado_sin_nombre_18);}.cls-3{fill:#3ba9e0;}.cls-4{fill:#91c02c;}</style><linearGradient id="Degradado_sin_nombre_18" x1="180.68" y1="373.56" x2="180.68" y2="205.33" gradientUnits="userSpaceOnUse"><stop offset="0" stop-color="#0c2c41"/><stop offset="0.58" stop-color="#6db32d"/><stop offset="1" stop-color="#3ba9e0"/></linearGradient></defs><title>manual bia </title><path class="cls-1" d="M359.65,246.69a11.32,11.32,0,0,1,.33-5.57,9.1,9.1,0,0,1,5.89-5.92,11.31,11.31,0,0,1,5.59-.31,11.25,11.25,0,0,1-.32,5.58,9,9,0,0,1-2.23,3.67,9.18,9.18,0,0,1-3.68,2.23A11.38,11.38,0,0,1,359.65,246.69Zm4.72,15.15H367a2.75,2.75,0,0,1,2.75,2.75v63.58a2.75,2.75,0,0,1-2.75,2.75h-2.6a2.75,2.75,0,0,1-2.75-2.75V264.59A2.75,2.75,0,0,1,364.37,261.84Z"/><path class="cls-1" d="M285.89,240.1a3.51,3.51,0,0,1,3.51-3.5H317c17.4,0,25.24,10.36,25.24,22,0,8.77-4.52,16.74-14.61,20.06,12.48,2.79,19.92,12.36,19.92,25.64,0,15.28-10.09,26.57-31.75,26.57H289.4a3.51,3.51,0,0,1-3.51-3.5Zm29.36,36.09c12.36,0,19-6.91,19-16.61,0-9.3-6-15.54-18.6-15.54H294.13v79.44h21.12c16.08,0,24.18-7.31,24.18-19.66,0-12.62-8.1-21-24.18-21H304.31a3.28,3.28,0,0,1-3.28-3.28v-1.71a1.54,1.54,0,0,1,1.52-1.54Z"/><path class="cls-1" d="M383.14,296.38c0-23.51,17-35.87,34.27-35.87,13,0,23.65,7.18,27.63,16.08h.4v-12.3a2.45,2.45,0,0,1,2.45-2.45h3.21a2.45,2.45,0,0,1,2.44,2.45v64.18a2.45,2.45,0,0,1-2.44,2.45h-3.21a2.45,2.45,0,0,1-2.45-2.45v-12.3H445c-4,8.9-14.61,16.08-27.63,16.08C400.14,332.25,383.14,319.89,383.14,296.38ZM417.63,324c13.14,0,26.41-9.15,26.41-27.57s-13.27-27.57-26.41-27.57-26.41,9-26.41,27.57S404.49,324,417.63,324Z"/><path class="cls-2" d="M174.74,395.39a69.25,69.25,0,0,1-43.32-14.65c-6.23-4.94-16-16.28-16-16.28a4.82,4.82,0,0,1-.45-6.95l61.19-66.3,7.06,6.52-57.76,62.6s3.23,5.43,11.9,12.82c12.62,10.77,29.57,14.29,46,12a61.85,61.85,0,0,0,41.16-24,67.85,67.85,0,0,0,13.59-46.65,57.63,57.63,0,0,0-22.5-41.28l-.11-.09-38.1-30.69-55.74,57.24a4.8,4.8,0,0,1-8.24-3.36l.19-120a4.8,4.8,0,0,1,4.81-4.8h50a54.85,54.85,0,0,1,52,72l-9.12-3a45.37,45.37,0,0,0,2.27-14.19,45.19,45.19,0,0,0-45.18-45.2l-45.2,0L123,284.48l50.51-51.88a4.82,4.82,0,0,1,6.46-.39l41.46,33.39c15.12,11.51,24.42,28.56,26.2,48A76.54,76.54,0,0,1,232.15,367a72.17,72.17,0,0,1-57.41,28.43Z"/><circle class="cls-3" cx="216.97" cy="237.75" r="7.84"/><circle class="cls-4" cx="177.44" cy="295.94" r="7.84"/></svg>