<svg width="300" height="300" id="Capa_1" data-name="Capa 1" xmlns="http://www.w3.org/2000/svg" xmlns:xlink="http://www.w3.org/1999/xlink" viewBox="0 0 566.93 566.93"><defs><style>.cls-1{fill:#0c2c41;}.cls-2{fill:url(#Degradado_sin_nombre_18);}.cls-3{fill:#3ba9e0;}.cls-4{fill:#91c02c;}</style><linearGradient id="Degradado_sin_nombre_18" x1="180.68" y1="373.56" x2="180.68" y2="205.33" gradientUnits="userSpaceOnUse"><stop offset="0" stop-color="#0c2c41"/><stop offset="0.58" stop-color="#6db32d"/><stop offset="1" stop-color="#3ba9e0"/></linearGradient></defs><title>manual bia </title><path class="cls-1" d="M359.65,235.7a11.36,11.36,0,0,1,.33-5.58,9.18,9.18,0,0,1,2.23-3.68,9,9,0,0,1,3.66-2.23,11.29,11.29,0,0,1,5.59-.32,11.29,11.29,0,0,1-.32,5.59,9.14,9.14,0,0,1-2.23,3.67,9.27,9.27,0,0,1-3.68,2.22A11.36,11.36,0,0,1,359.65,235.7Zm4.72,15.14H367a2.76,2.76,0,0,1,2.75,2.76v63.57a2.75,2.75,0,0,1-2.75,2.75h-2.6a2.75,2.75,0,0,1-2.75-2.75V253.6A2.76,2.76,0,0,1,364.37,250.84Z"/><path class="cls-1" d="M285.89,229.11a3.5,3.5,0,0,1,3.51-3.5H317c17.4,0,25.24,10.36,25.24,22,0,8.77-4.52,16.73-14.61,20.06,12.48,2.79,19.92,12.35,19.92,25.63,0,15.28-10.09,26.57-31.75,26.57H289.4a3.5,3.5,0,0,1-3.51-3.5Zm29.36,36.08c12.36,0,19-6.91,19-16.6,0-9.3-6-15.55-18.6-15.55H294.13v79.44h21.12c16.08,0,24.18-7.3,24.18-19.66,0-12.62-8.1-21-24.18-21H304.31a3.28,3.28,0,0,1-3.28-3.28v-1.7a1.55,1.55,0,0,1,1.52-1.55Z"/><path class="cls-1" d="M383.14,285.38c0-23.51,17-35.86,34.27-35.86,13,0,23.65,7.17,27.63,16.07h.4v-12.3a2.45,2.45,0,0,1,2.45-2.45h3.21a2.45,2.45,0,0,1,2.44,2.45v64.19a2.44,2.44,0,0,1-2.44,2.44h-3.21a2.45,2.45,0,0,1-2.45-2.44v-12.3H445c-4,8.9-14.61,16.07-27.63,16.07C400.14,321.25,383.14,308.9,383.14,285.38ZM417.63,313c13.14,0,26.41-9.14,26.41-27.57s-13.27-27.56-26.41-27.56-26.41,9-26.41,27.56S404.49,313,417.63,313Z"/><path class="cls-2" d="M174.74,395.39a69.25,69.25,0,0,1-43.32-14.65c-6.23-4.94-16-16.28-16-16.28a4.82,4.82,0,0,1-.45-6.95l61.19-66.3,7.06,6.52-57.76,62.6s3.23,5.43,11.9,12.82c12.62,10.77,29.57,14.29,46,12a61.85,61.85,0,0,0,41.16-24,67.85,67.85,0,0,0,13.59-46.65,57.63,57.63,0,0,0-22.5-41.28l-.11-.09-38.1-30.69-55.74,57.24a4.8,4.8,0,0,1-8.24-3.36l.19-120a4.8,4.8,0,0,1,4.81-4.8h50a54.85,54.85,0,0,1,52,72l-9.12-3a45.37,45.37,0,0,0,2.27-14.19,45.19,45.19,0,0,0-45.18-45.2l-45.2,0L123,284.48l50.51-51.88a4.82,4.82,0,0,1,6.46-.39l41.46,33.39c15.12,11.51,24.42,28.56,26.2,48A76.54,76.54,0,0,1,232.15,367a72.17,72.17,0,0,1-57.41,28.43Z"/><circle class="cls-3" cx="216.97" cy="237.75" r="7.84"/><circle class="cls-4" cx="177.44" cy="295.94" r="7.84"/><path class="cls-1" d="M334.25,357.18a.21.21,0,0,1,.24.24v1.13A2.78,2.78,0,0,1,337,357a2.49,2.49,0,0,1,2.39,1.68,3.51,3.51,0,0,1,2.93-1.68c1.79,0,2.82,1.34,2.82,3.63v4.22c0,.16-.08.24-.22.24h-1.33a.21.21,0,0,1-.24-.24V361c0-1.35-.54-2.25-1.61-2.25a1.77,1.77,0,0,0-1.33.65,2.11,2.11,0,0,0-.59,1.5v4a.21.21,0,0,1-.24.24h-1.31a.21.21,0,0,1-.24-.24V361c0-1.35-.54-2.25-1.62-2.25a1.71,1.71,0,0,0-1.34.66,2.23,2.23,0,0,0-.57,1.49v4a.21.21,0,0,1-.24.24h-1.32c-.16,0-.23-.08-.23-.24v-7.45c0-.16.07-.24.23-.24Z"/><path class="cls-1" d="M350.36,357c1.54,0,2.59.37,3.14,1.11a4.14,4.14,0,0,1,.76,2.76v4c0,.18-.08.26-.25.26H352.8c-.17,0-.25-.08-.25-.26v-.68a4.4,4.4,0,0,1-3.14,1.09,2.31,2.31,0,0,1-.9-4.53,5.58,5.58,0,0,1,1.16-.25,14.32,14.32,0,0,1,2.36-.14h.41v-.07c0-1.12-.75-1.68-2.22-1.68a7.51,7.51,0,0,0-2,.32l-.33.11a.25.25,0,0,1-.34-.14l-.33-.89c-.06-.17,0-.3.11-.35A6.85,6.85,0,0,1,350.36,357Zm2.13,4.39h-.23c-2.42,0-3.72.35-3.72,1.45,0,.8.55,1.22,1.65,1.22a2.75,2.75,0,0,0,1.6-.48,1.31,1.31,0,0,0,.7-1Z"/><path class="cls-1" d="M362.09,364.23a.23.23,0,0,1-.08.34,4.18,4.18,0,0,1-2.35.69,3.83,3.83,0,0,1-2.88-1.2,4.22,4.22,0,0,1,0-5.83,3.84,3.84,0,0,1,2.88-1.21,4.08,4.08,0,0,1,2.33.72c.16.09.19.2.08.35l-.71,1c-.08.13-.19.15-.33.05a2.48,2.48,0,0,0-1.37-.39,2.18,2.18,0,0,0-1.64.69,2.41,2.41,0,0,0-.65,1.71,2.39,2.39,0,0,0,.66,1.72,2.2,2.2,0,0,0,1.63.69,2.65,2.65,0,0,0,1.4-.39.21.21,0,0,1,.31.06Z"/><path class="cls-1" d="M367,357c1.54,0,2.59.37,3.14,1.11a4.14,4.14,0,0,1,.76,2.76v4c0,.18-.08.26-.25.26h-1.21c-.17,0-.25-.08-.25-.26v-.68a4.4,4.4,0,0,1-3.14,1.09,2.31,2.31,0,0,1-.9-4.53,5.58,5.58,0,0,1,1.16-.25,14.32,14.32,0,0,1,2.36-.14h.41v-.07c0-1.12-.75-1.68-2.22-1.68a7.51,7.51,0,0,0-2,.32l-.33.11a.25.25,0,0,1-.34-.14l-.33-.89c-.06-.17,0-.3.11-.35A6.85,6.85,0,0,1,367,357Zm2.13,4.39h-.23c-2.42,0-3.72.35-3.72,1.45,0,.8.56,1.22,1.65,1.22a2.75,2.75,0,0,0,1.6-.48,1.31,1.31,0,0,0,.7-1Z"/><path class="cls-1" d="M374.49,357.18a.21.21,0,0,1,.24.24v1.24h0a2.45,2.45,0,0,1,2.14-1.64,2.22,2.22,0,0,1,1.12.24c.11.07.14.18.08.34l-.35,1.21c-.05.15-.16.18-.32.1a2.05,2.05,0,0,0-.72-.13,1.71,1.71,0,0,0-1.4.76,3,3,0,0,0-.57,1.84v3.49a.21.21,0,0,1-.24.24h-1.31a.21.21,0,0,1-.24-.24v-7.45a.21.21,0,0,1,.24-.24Z"/><path class="cls-1" d="M384.38,363.22a.25.25,0,0,1,.33.08l.61.84a.22.22,0,0,1-.08.32,5.55,5.55,0,0,1-2.92.8,3.87,3.87,0,0,1-2.88-1.2,4,4,0,0,1-1.19-2.92,4.22,4.22,0,0,1,1.08-2.9,3.56,3.56,0,0,1,2.78-1.22,3.47,3.47,0,0,1,2.84,1.29A4.62,4.62,0,0,1,386,361.4a.25.25,0,0,1-.28.27h-5.79a2.38,2.38,0,0,0,2.43,2.07A4,4,0,0,0,384.38,363.22Zm-.09-2.68a2.19,2.19,0,0,0-2.18-2.12,2.16,2.16,0,0,0-2.15,2.12Z"/><path class="cls-1" d="M393.16,365.11a.21.21,0,0,1-.24-.24V361c0-1.38-.62-2.25-1.84-2.25a1.84,1.84,0,0,0-1.42.66,2.13,2.13,0,0,0-.59,1.49v4a.21.21,0,0,1-.24.24h-1.31a.21.21,0,0,1-.24-.24v-7.45a.21.21,0,0,1,.24-.24h1.31a.21.21,0,0,1,.24.24v1.16a3.11,3.11,0,0,1,2.62-1.56c2,0,3,1.35,3,3.63v4.22a.21.21,0,0,1-.24.24Z"/><path class="cls-1" d="M397.52,353.06a1.08,1.08,0,1,1,0,2.16,1.08,1.08,0,0,1,0-2.16Zm-.64,12.05a.21.21,0,0,1-.24-.24v-7.45a.21.21,0,0,1,.24-.24h1.32a.21.21,0,0,1,.24.24v7.45a.21.21,0,0,1-.24.24Z"/><path class="cls-1" d="M403.92,357c1.53,0,2.58.37,3.13,1.11a4.14,4.14,0,0,1,.76,2.76v4c0,.18-.07.26-.25.26h-1.2c-.18,0-.26-.08-.26-.26v-.68a4.37,4.37,0,0,1-3.13,1.09,2.31,2.31,0,0,1-.91-4.53,5.89,5.89,0,0,1,1.16-.25,14.38,14.38,0,0,1,2.36-.14H406v-.07q0-1.68-2.22-1.68a7.51,7.51,0,0,0-2,.32l-.33.11a.24.24,0,0,1-.33-.14l-.33-.89c-.07-.17,0-.3.11-.35A6.82,6.82,0,0,1,403.92,357Zm2.12,4.39h-.22c-2.43,0-3.72.35-3.72,1.45,0,.8.55,1.22,1.64,1.22a2.75,2.75,0,0,0,1.6-.48,1.31,1.31,0,0,0,.7-1Z"/><circle class="cls-1" cx="332.23" cy="347.62" r="2.49"/><circle class="cls-1" cx="321.63" cy="352.75" r="2.49"/><circle class="cls-1" cx="323.68" cy="343.42" r="2.49"/><path class="cls-1" d="M329.71,351.85s-1.62-1.42-1.33-1.9a10.82,10.82,0,0,1,3.35-3.18l1,1.69C332,348.92,330,350.42,329.71,351.85Z"/><path class="cls-1" d="M328,356.5c-3.86,0-6.9-2.9-7.05-3.05l1.38-1.41-.69.71.69-.71s3.55,3.37,7.26,2.25c0,0-.1,2.07-.39,2.11A7.11,7.11,0,0,1,328,356.5Z"/><path class="cls-1" d="M322,359.15a6.58,6.58,0,0,1-6.55-6,4.5,4.5,0,0,1,0-.82,6.62,6.62,0,0,1,2.88-5.14,6.82,6.82,0,0,1-.91-2.36,5.78,5.78,0,0,1-.06-1.66,6.56,6.56,0,0,1,12.19-2.75,7.32,7.32,0,0,1,.51,1.1,6.59,6.59,0,0,1,6,1,6.39,6.39,0,0,1,.68.59,6.57,6.57,0,0,1-3.94,11.14c-.32,0-.8-1.16-1-1.69a.17.17,0,0,1,.17-.24,4.58,4.58,0,0,0,.77-9.11,4.51,4.51,0,0,0-2.51.33l-.34.17-1,.54a.17.17,0,0,1-.25-.13l-.18-1.13a4.71,4.71,0,0,0-.79-1.93,4.58,4.58,0,0,0-7.86,4.64,4.46,4.46,0,0,0,.76,1.11l.77.84a.17.17,0,0,1-.06.27c-.39.17-1.18.52-1.22.55a4.57,4.57,0,0,0-2.13,6.11,4.59,4.59,0,0,0,5.77,2.28.19.19,0,0,1,.26.22c-.15.65-.47,1.9-.68,1.94A6.23,6.23,0,0,1,322,359.15Z"/><path class="cls-1" d="M328.34,354.33c.12,2.76-.66,6.83-4.94,10.68a.11.11,0,0,0,.08.2h2.34a.42.42,0,0,0,.32-.14,14.79,14.79,0,0,0,4.17-10.82,15.3,15.3,0,0,0-5.9-11.33l-1.17,1.59A13.26,13.26,0,0,1,328.34,354.33Z"/><path class="cls-1" d="M288.14,353.66v4.42h.05a3.3,3.3,0,0,1,3.05-1.78,4,4,0,0,1,0,7.92,3.31,3.31,0,0,1-3.05-1.77h-.05v1.63h-.89V353.66Zm3,9.74a3.14,3.14,0,1,0-3-3.14A2.95,2.95,0,0,0,291.12,363.4Z"/><path class="cls-1" d="M298.63,364l-3.22-7.57h.93l2.73,6.48,2.73-6.48h.94l-3.26,7.63-1.23,2.78h-.88Z"/><path class="cls-1" d="M304.5,356.7a.56.56,0,1,1-.56.55A.54.54,0,0,1,304.5,356.7Zm-.56,7a.56.56,0,1,1,.56.56A.54.54,0,0,1,303.94,363.66Z"/></svg>