<svg width="49" height="44" viewBox="0 0 49 44" fill="none" xmlns="http://www.w3.org/2000/svg">
<g clip-path="url(#clip0_615_546)">
<path d="M18.21 37.4705H2.62607C0.978255 37.4705 0.0100098 36.5327 0.0100098 34.9091C0.0100098 24.1391 0.0100098 13.3675 0.0100098 2.5942C0.0100098 0.98324 0.988477 0.0151517 2.62862 0.0151517C17.2009 0.0151517 31.7714 0.010953 46.3403 0.00254948C46.6933 -0.0076066 47.0447 0.05365 47.3729 0.18255C47.701 0.31145 47.9989 0.505269 48.2483 0.752065C48.4977 0.998862 48.6932 1.29342 48.8229 1.61759C48.9526 1.94177 49.0136 2.28871 49.0023 2.63706C48.9666 13.3667 48.9666 24.0963 49.0023 34.8259C49.0023 36.4797 47.7403 37.5134 46.256 37.4957C41.3713 37.4352 36.4867 37.473 31.602 37.473H30.787V41.0403H33.4439C34.3381 41.0403 35.2323 41.0529 36.1213 41.0403C36.5786 41.0403 36.7753 41.2042 36.7523 41.6706C36.7242 42.2353 36.7268 42.8025 36.7523 43.3672C36.7728 43.8412 36.548 44.0126 36.1009 43.99C35.9961 43.99 35.8888 43.99 35.7841 43.99H13.1567C12.237 43.99 12.237 43.99 12.2345 43.0799C12.2345 42.6185 12.26 42.1546 12.2345 41.6958C12.2013 41.1916 12.4261 41.0353 12.9089 41.0403C14.4571 41.0554 16.0078 41.0403 17.5586 41.0403C17.7655 41.0403 17.975 41.0227 18.2151 41.0126L18.21 37.4705ZM24.5075 36.7293H46.2943C47.6509 36.7293 48.2231 36.1646 48.2538 34.8284C48.2538 34.7452 48.2538 34.6595 48.2538 34.5763C48.2538 24.0181 48.2589 13.4583 48.2691 2.89673C48.2691 1.58578 47.7071 0.710963 46.0976 0.716005C31.6991 0.7513 17.3014 0.7513 2.90453 0.716005C1.33336 0.716005 0.707453 1.5051 0.710007 2.87151C0.733852 13.46 0.738106 24.0408 0.722778 34.6141C0.722778 36.2024 1.25672 36.7293 2.84833 36.7293H24.5075ZM19.0173 40.9596H29.9363V37.5108H19.0173V40.9596ZM35.9808 41.7966H12.9881V43.2185H35.9808V41.7966Z" fill="#1C2355"/>
<path d="M24.4949 31.8283H2.96094C1.95948 31.8283 1.93904 31.8132 1.93904 30.8602V2.94958C1.93904 2.02184 2.01568 1.94116 2.96094 1.94116H46.0288C46.9562 1.94116 47.0507 2.02688 47.0507 2.94958V30.8552C47.0507 31.8232 47.0507 31.8283 46.0467 31.8283H24.4949ZM46.2562 2.70252H2.74634V31.1274H46.2562V2.70252Z" fill="#1C2355"/>
<path d="M25.7518 34.2914C25.7417 34.6153 25.6097 34.9238 25.3816 35.1569C25.1535 35.3899 24.8455 35.5308 24.5179 35.5519C24.1769 35.5448 23.8518 35.4078 23.6109 35.1695C23.3699 34.9313 23.2317 34.6103 23.2252 34.2737C23.237 33.9495 23.375 33.6423 23.6106 33.4159C23.8461 33.1896 24.161 33.0616 24.4898 33.0586C24.8211 33.0624 25.1379 33.1932 25.3734 33.4232C25.6089 33.6532 25.7446 33.9645 25.7518 34.2914V34.2914ZM24.4872 35.0628C24.7427 34.7074 24.9854 34.4981 24.9726 34.3065C24.9396 34.1949 24.8777 34.0937 24.793 34.0128C24.7084 33.9319 24.6039 33.8742 24.4898 33.8452C24.3752 33.8738 24.2702 33.9314 24.1851 34.0123C24.0999 34.0932 24.0377 34.1946 24.0044 34.3065C23.9865 34.4855 24.242 34.7048 24.4872 35.0628Z" fill="#1C2355"/>
<path d="M19.0201 24.7013C16.9271 24.6841 14.9252 23.8545 13.4474 22.3919C11.9696 20.9293 11.1347 18.9514 11.1234 16.886C11.1449 14.8195 11.9916 12.8447 13.4796 11.3905C14.9676 9.93622 16.9769 9.11987 19.0712 9.11865C20.1133 9.11919 21.145 9.32428 22.1061 9.722C23.0671 10.1197 23.9385 10.7021 24.6693 11.4353C25.4001 12.1684 25.9759 13.0377 26.363 13.9926C26.7502 14.9474 26.941 15.9687 26.9244 16.997C26.9096 19.0524 26.0689 21.018 24.587 22.4624C23.1051 23.9068 21.103 24.712 19.0201 24.7013V24.7013ZM19.4084 9.91782C19.4084 12.1364 19.4084 14.3095 19.4084 16.4726C19.4077 16.6166 19.4594 16.7562 19.554 16.8659C21.1516 18.4205 22.7534 19.9718 24.3595 21.5197C26.1197 20.0071 26.6996 16.8028 25.6547 14.2087C24.6558 11.7254 21.9171 9.81194 19.4161 9.91782H19.4084ZM13.6934 21.6281C15.3336 20.0222 16.9328 18.4667 18.5117 16.8911C18.6374 16.7083 18.696 16.4885 18.6777 16.2684C18.6905 14.3423 18.6777 12.4187 18.6777 10.4926C18.6777 10.2935 18.6496 10.0943 18.6369 9.89766C17.2848 9.95611 15.9785 10.3975 14.874 11.1692C13.7694 11.9408 12.9135 13.01 12.4084 14.249C11.3635 16.9087 11.8438 19.3592 13.6934 21.6281ZM14.3679 22.2206C17.081 24.7089 21.4215 24.4492 23.7336 22.1903L19.0507 17.5516L14.3679 22.2206Z" fill="#1C2355"/>
<path d="M37.1026 19.3593C37.1026 17.8945 37.0872 16.4298 37.1179 14.9651C37.1179 14.7558 37.3325 14.5491 37.4474 14.3398C37.5828 14.5592 37.8358 14.7785 37.8358 14.9978C37.863 17.9475 37.863 20.898 37.8358 23.8493C37.8358 24.0686 37.5803 24.2879 37.4449 24.5073C37.3325 24.298 37.1204 24.0913 37.1179 23.8795C37.0872 22.3845 37.1026 20.8719 37.1026 19.3593Z" fill="#1C2355"/>
<path d="M33.9168 20.5216C33.9168 21.6081 33.9168 22.6947 33.9168 23.7813C33.9168 24.0889 33.9755 24.4922 33.5234 24.4746C33.3931 24.4746 33.1785 24.0536 33.1759 23.8242C33.147 21.609 33.147 19.3938 33.1759 17.1787C33.1759 16.9543 33.4161 16.7324 33.5438 16.5081C33.669 16.74 33.8938 16.9644 33.9015 17.1988C33.9372 18.3056 33.9168 19.4123 33.9168 20.5216Z" fill="#1C2355"/>
<path d="M29.9671 21.7669C29.9671 22.5005 29.9927 23.2341 29.9493 23.9627C29.9493 24.1518 29.7168 24.3258 29.5916 24.5073C29.4639 24.3232 29.2288 24.1417 29.2263 23.9552C29.1956 22.5098 29.1956 21.066 29.2263 19.624C29.2263 19.445 29.4817 19.2685 29.5993 19.092C29.7219 19.271 29.939 19.4475 29.9518 19.6341C29.9927 20.3425 29.9671 21.0559 29.9671 21.7669Z" fill="#1C2355"/>
</g>
<defs>
<clipPath id="clip0_615_546">
<rect width="49" height="44" fill="white"/>
</clipPath>
</defs>
</svg>
