<svg width="310" height="231" viewBox="0 0 310 231" fill="none" xmlns="http://www.w3.org/2000/svg">
<path d="M123.61 26.181C124.61 24.081 126.31 22.341 127.33 20.181C128.35 18.021 128.54 15.261 126.85 13.651C125.41 12.281 123.15 12.261 121.43 11.271C117.09 8.79099 117.09 0.760988 112.09 0.0409879C109.65 -0.299012 107.45 1.53099 105.97 3.50099C104.49 5.47099 103.33 7.77099 101.28 9.15099C98.97 10.701 95.98 10.771 93.41 11.841C88.49 13.911 85.9001 19.231 83.7401 24.111C82.3501 27.261 80.93 30.651 81.58 34.031C80.17 34.911 80.8 37.251 82.2 38.131C83.6 39.011 85.36 38.991 86.96 39.371C88.6403 39.8277 90.1902 40.6716 91.4857 41.8351C92.7811 42.9986 93.7861 44.4493 94.42 46.071C95.3117 48.6466 95.7942 51.346 95.85 54.071C96.19 58.7377 96.5234 63.4043 96.85 68.071C97 70.161 97.2 72.371 98.47 74.071C99.74 75.771 102.47 76.431 103.91 74.901C105.35 73.371 104.66 71.131 104.63 69.141C104.6 67.151 106.41 64.651 108.11 65.701L108.71 64.341C112.596 62.9492 115.998 60.4668 118.51 57.1911C121.021 53.9153 122.535 49.985 122.87 45.871C123.29 39.231 120.65 32.121 123.61 26.181Z" fill="#E2EAF4"/>
<path d="M127.58 68.201C128.099 67.708 128.402 67.0294 128.423 66.3137C128.444 65.5979 128.18 64.9031 127.69 64.381C127.252 63.9159 126.664 63.6188 126.03 63.541V63.771C125.3 64.1977 124.466 64.4156 123.62 64.401C122.776 64.3888 121.937 64.5242 121.14 64.801C120.742 64.943 120.397 65.2029 120.151 65.5458C119.904 65.8888 119.768 66.2987 119.76 66.721C119.804 67.0468 119.927 67.3568 120.119 67.6237C120.31 67.8905 120.565 68.106 120.86 68.251C121.444 68.5422 122.073 68.7315 122.72 68.811C124.39 69.131 126.34 69.361 127.58 68.201Z" fill="#E2EAF4"/>
<path d="M160.09 26.291C160.792 25.8146 161.388 25.1984 161.84 24.481C162.056 24.119 162.159 23.7003 162.134 23.2794C162.109 22.8585 161.958 22.4548 161.7 22.121C161.174 21.6641 160.497 21.4183 159.8 21.431C157.908 21.2893 156.007 21.5134 154.2 22.091L159.8 27.041L160.09 26.291Z" fill="#E2EAF4"/>
<path d="M150.85 30.561C151.6 31.391 151.36 32.671 151.14 33.771C150.92 34.871 150.9 36.241 151.85 36.841C152.287 37.0477 152.784 37.0939 153.252 36.9714C153.72 36.8489 154.13 36.5655 154.41 36.171C154.947 35.3606 155.273 34.4292 155.36 33.461C155.654 32.0541 155.785 30.6179 155.75 29.181C155.728 27.7229 155.218 26.3143 154.3 25.181C153.658 24.4449 152.801 23.9292 151.85 23.7067C150.899 23.4842 149.902 23.5662 149 23.941L149.86 23.891C149.235 24.6957 148.76 25.6071 148.46 26.581C148.314 27.0715 148.303 27.5922 148.428 28.0884C148.553 28.5846 148.809 29.038 149.17 29.401C149.68 29.871 150.39 30.041 150.85 30.561Z" fill="#E2EAF4"/>
<path d="M105.53 139.271C101.131 136.123 96.3143 133.602 91.22 131.781C88.08 130.671 84.72 129.781 81.45 130.451C79.6596 130.822 77.982 131.611 76.5537 132.752C75.1254 133.894 73.9866 135.356 73.23 137.021C72.5002 138.697 72.1572 140.515 72.2264 142.342C72.2957 144.168 72.7754 145.955 73.63 147.571C75.13 150.391 77.74 152.631 78.63 155.711C79.0638 157.829 79.0638 160.013 78.63 162.131C78.05 166.504 77.4734 170.871 76.9 175.231C76.37 179.231 75.9001 183.341 77.1201 187.151C78.3401 190.961 81.97 194.321 85.96 193.911L86.75 193.851C84.11 192.061 83.37 188.341 84.15 185.251C84.93 182.161 86.93 179.531 88.88 177.001L106.22 154.491C108.56 151.491 111.03 147.701 109.78 144.081C109.09 142.041 107.3 140.531 105.53 139.271Z" fill="#E2EAF4"/>
<path d="M66.15 120.291C65.8446 120.24 65.5308 120.285 65.2527 120.422C64.9747 120.558 64.7464 120.778 64.6 121.051C64.3135 121.603 63.9788 122.128 63.6 122.621C63.1023 123.034 62.4707 123.251 61.8242 123.231C61.1777 123.211 60.5608 122.955 60.09 122.511C59.1605 121.437 58.5926 120.099 58.467 118.684C58.3413 117.27 58.6642 115.852 59.39 114.631C60.39 113.421 62.15 113.101 63.73 112.851C65.31 112.601 67.18 112.371 68.52 113.341C69.36 113.951 69.85 114.941 70.63 115.631C71.41 116.321 72.79 116.571 73.38 115.721C73.5446 115.413 73.6307 115.07 73.6307 114.721C73.6307 114.372 73.5446 114.029 73.38 113.721C73.0495 113.124 72.8517 112.462 72.8 111.781C72.8758 111.315 73.0565 110.872 73.3285 110.485C73.6004 110.099 73.9566 109.78 74.37 109.551C75.2005 109.097 75.9342 108.486 76.53 107.751C77.15 106.751 77.09 105.511 77.47 104.421C78.41 101.771 81.76 100.591 82.74 97.961C82.9727 97.405 82.9975 96.7838 82.81 96.211C82.41 95.161 81.3 95.371 81.23 94.081C81.2672 93.4561 81.4727 92.8529 81.8248 92.3353C82.1769 91.8178 82.6625 91.4051 83.23 91.141C84.732 90.5743 86.3386 90.3389 87.94 90.451C89.5499 90.5519 91.1428 90.073 92.43 89.101C93.1444 88.3648 93.5372 87.3751 93.5222 86.3494C93.5072 85.3237 93.0856 84.346 92.35 83.631L92.02 83.341C91.14 82.741 90.02 82.531 89.19 81.891C88.13 81.101 87.63 79.781 86.8 78.751C86.1186 77.9607 85.3351 77.2646 84.47 76.681L82.34 75.101C81.1252 74.0616 79.704 73.2914 78.17 72.841C77.3992 72.631 76.5821 72.6654 75.8316 72.9395C75.0812 73.2135 74.4342 73.7137 73.98 74.371C73.6772 74.9955 73.5102 75.6772 73.49 76.371C73.4216 78.0004 73.4885 79.6327 73.69 81.251L74.08 85.151C74.19 86.311 74.08 87.851 72.94 88.151C70.43 88.831 71.28 85.151 70.72 83.981C69.87 82.231 65.95 81.401 64.27 80.671C63.181 80.316 62.2163 79.6567 61.49 78.771C61.1478 78.1473 60.9683 77.4474 60.9683 76.736C60.9683 76.0246 61.1478 75.3247 61.49 74.701C62.194 73.4678 63.0471 72.3258 64.03 71.301C64.96 70.191 65.8 69.021 66.65 67.841L69.59 63.761C70.85 62.021 72.17 59.891 71.46 57.861C71.305 57.5891 71.0733 57.369 70.7938 57.2283C70.5143 57.0875 70.1995 57.0324 69.8888 57.0698C69.5781 57.1071 69.2854 57.2353 69.0472 57.4383C68.8091 57.6414 68.6361 57.9101 68.55 58.211C68.24 59.311 69.08 60.701 68.28 61.521C68.0089 61.7463 67.6675 61.8696 67.315 61.8696C66.9625 61.8696 66.6211 61.7463 66.35 61.521C65.8313 61.0428 65.4366 60.4457 65.2 59.781C64.2 57.631 63.29 55.461 62.3 53.321C61.98 52.651 61.65 51.491 60.7 51.601C59.75 51.711 59.43 52.911 59.46 53.601C59.6055 54.6068 59.9451 55.5748 60.46 56.451C60.7206 56.8885 60.8793 57.3791 60.9244 57.8863C60.9694 58.3936 60.8995 58.9044 60.72 59.381C60.12 60.521 58.61 60.781 57.32 60.741C54.8775 60.6735 52.483 60.0475 50.32 58.911C50.26 60.101 50.21 61.301 50.15 62.491L45.09 60.341L44.09 59.921C42.65 59.321 41.2 58.711 39.71 58.221C38.87 57.951 38.02 57.701 37.16 57.461L35.6 57.021C34.5734 56.6618 33.4859 56.5088 32.4 56.571C31.2772 56.8173 30.196 57.2249 29.19 57.781C26.83 58.781 23.79 57.781 21.26 57.781C20.26 56.3183 18.909 55.1299 17.3308 54.3247C15.7526 53.5194 13.9975 53.123 12.2264 53.1718C10.4552 53.2205 8.72465 53.7129 7.1931 54.6038C5.66155 55.4946 4.37799 56.7555 3.46 58.271C3.01698 59.0387 2.62287 59.8336 2.28001 60.651C1.94001 61.421 1.59001 62.181 1.28001 62.951C0.684733 64.0365 0.368607 65.253 0.360029 66.491C0.377778 67.1096 0.618173 67.701 1.03703 68.1566C1.45589 68.6122 2.02504 68.9014 2.64 68.971C-0.270003 70.281 -0.880003 74.891 1.64 76.911C2.38387 77.3877 3.0985 77.9087 3.78001 78.471C4.08689 78.7867 4.32855 79.1598 4.49113 79.5689C4.65372 79.9781 4.73402 80.4153 4.72752 80.8555C4.72102 81.2957 4.62783 81.7303 4.45323 82.1345C4.27863 82.5387 4.02608 82.9045 3.71 83.211C3.38492 83.5231 3.00069 83.767 2.57994 83.9285C2.15919 84.0899 1.71041 84.1655 1.25999 84.151C2.97796 84.8203 4.87197 84.8882 6.63341 84.3434C8.39484 83.7986 9.91989 82.6734 10.96 81.151C12.02 79.501 12.48 77.431 13.96 76.101C15.86 74.331 18.96 74.471 21.2 75.861C23.319 77.3924 24.9036 79.5506 25.73 82.031C26.98 85.201 27.73 88.811 30.44 90.931C31.73 91.931 33.36 92.531 34.5 93.711C36.12 95.411 36.4 97.961 36.37 100.301C36.34 102.641 36.08 105.071 36.93 107.301C37.78 109.531 40.23 111.301 42.43 110.451C41.8002 112.315 41.818 114.337 42.4804 116.19C43.1428 118.043 44.4111 119.618 46.08 120.661L44.88 113.221C46.88 113.781 48.17 115.711 48.88 117.641C49.59 119.571 50.02 121.641 51.1 123.431C51.9621 124.725 53.1448 125.774 54.5328 126.475C55.9208 127.176 57.4668 127.505 59.02 127.431C62.41 127.431 63.7 125.801 65.93 123.431C66.3822 123.025 66.7259 122.513 66.93 121.941C66.9915 121.782 67.0199 121.612 67.0137 121.441C67.0074 121.271 66.9666 121.103 66.8937 120.949C66.8207 120.795 66.7172 120.657 66.5893 120.544C66.4615 120.43 66.312 120.345 66.15 120.291Z" fill="#E2EAF4"/>
<path d="M75.7401 120.171L70.06 119.281L73.06 121.071C73.8908 121.62 74.7924 122.054 75.7401 122.361C76.2139 122.51 76.7135 122.56 77.2075 122.506C77.7014 122.453 78.1789 122.298 78.61 122.051L78.3701 121.591C77.9601 120.621 76.76 120.331 75.7401 120.171Z" fill="#E2EAF4"/>
<path d="M74.45 130.691C74.3372 130.499 74.1685 130.347 73.9665 130.254C73.7645 130.161 73.5389 130.132 73.32 130.171C72.8828 130.241 72.4372 130.241 72 130.171C71.7228 130.061 71.4758 129.887 71.2794 129.662C71.0829 129.438 70.9426 129.17 70.8701 128.881C70.6801 128.311 70.62 127.711 70.41 127.151C70.2546 126.711 69.9811 126.323 69.6194 126.028C69.2578 125.734 68.8221 125.544 68.36 125.481C67.8951 125.442 67.4335 125.588 67.0758 125.888C66.7181 126.188 66.4932 126.616 66.45 127.081C66.4884 127.558 66.6429 128.018 66.9 128.421L67.51 129.601C67.6817 129.948 67.8789 130.283 68.1 130.601C68.7233 131.442 69.6515 132.005 70.6854 132.17C71.7193 132.335 72.7764 132.087 73.63 131.481C73.938 131.26 74.2111 130.993 74.44 130.691H74.45Z" fill="#E2EAF4"/>
<path d="M63.39 29.951C64.84 30.801 66.64 31.391 67.33 32.951L67.72 33.081L66.4301 34.691C65.8169 35.2908 65.4345 36.0874 65.35 36.941C65.4304 37.5223 65.6954 38.0625 66.1058 38.4819C66.5163 38.9014 67.0505 39.178 67.63 39.271C68.8433 39.5179 70.105 39.3058 71.171 38.6759C72.2369 38.0459 73.0312 37.0429 73.4 35.861C73.54 35.371 73.59 34.861 73.71 34.361C74.0595 33.1806 74.5818 32.0584 75.26 31.031C79.0933 24.5976 82.9201 18.161 86.7401 11.721C87.0348 11.3577 87.2429 10.9321 87.3486 10.4764C87.4543 10.0207 87.4548 9.54691 87.35 9.09099C87.1588 8.73448 86.8677 8.44149 86.5125 8.24789C86.1573 8.05429 85.7533 7.96848 85.35 8.00098C84.5321 8.10238 83.7431 8.36767 83.03 8.78098C82.719 8.22146 82.2756 7.74663 81.7387 7.39799C81.2018 7.04935 80.5877 6.83751 79.95 6.78098C78.6771 6.68509 77.3972 6.79654 76.16 7.11098C73.3701 7.53354 70.6799 8.4585 68.22 9.84099C66.87 10.521 65.39 11.361 65 12.841C64.52 14.631 66.07 16.461 67.85 16.971C69.6794 17.3334 71.5715 17.2127 73.34 16.621C73.5588 17.5056 73.481 18.4377 73.1187 19.2738C72.7563 20.11 72.1294 20.804 71.3343 21.2493C70.5392 21.6945 69.6198 21.8664 68.7175 21.7384C67.8153 21.6105 66.98 21.1898 66.34 20.541C65.05 19.281 64.42 17.101 62.64 16.771C60.86 16.441 59.49 18.291 59.09 20.041C58.7037 21.9344 58.9091 23.9009 59.6783 25.6736C60.4476 27.4464 61.7433 28.9397 63.39 29.951Z" fill="#E2EAF4"/>
<path d="M85.59 60.941C84.7396 58.5386 83.6191 56.2405 82.25 54.091C81.2205 52.385 79.9433 50.8415 78.46 49.511C77.1057 48.3435 75.5505 47.432 73.8701 46.821C72.2542 46.1479 70.461 46.0283 68.77 46.481C67.9367 46.7267 67.2003 47.2253 66.6628 47.9079C66.1254 48.5905 65.8134 49.4233 65.77 50.291C65.77 52.201 67.48 53.711 69.23 54.491C70.98 55.271 72.93 55.631 74.58 56.601C75.7034 57.2807 76.6423 58.2264 77.3137 59.3548C77.9852 60.4831 78.3686 61.7594 78.4301 63.071L78.84 63.761C77.8992 64.072 77.0219 64.5496 76.25 65.171C75.8652 65.4859 75.5702 65.8967 75.3947 66.3619C75.2191 66.8271 75.1692 67.3303 75.25 67.821C75.53 68.991 76.72 69.651 77.79 70.181L83.7401 73.181C82.7401 70.181 86.04 67.371 86.22 64.181C86.2307 63.0695 86.0164 61.9674 85.59 60.941Z" fill="#E2EAF4"/>
<path d="M35.75 52.811C36.3992 53.2115 37.1668 53.3756 37.923 53.2754C38.6792 53.1752 39.3776 52.8168 39.9 52.261C40.9227 51.1178 41.6565 49.7461 42.0401 48.261C41.845 49.6843 41.845 51.1276 42.0401 52.551C42.1538 53.2604 42.4133 53.9386 42.8023 54.5427C43.1913 55.1469 43.7013 55.6638 44.3001 56.061C44.844 56.3597 45.431 56.5722 46.0401 56.691C48.8681 57.3324 51.8228 57.1201 54.53 56.081V55.161C53.17 55.311 52.1401 53.821 52.0501 52.461C51.9601 51.101 52.46 49.751 52.5 48.381C52.54 47.011 51.89 45.381 50.5 45.181C50.7369 45.6541 50.8237 46.1883 50.749 46.7121C50.6742 47.236 50.4414 47.7245 50.0817 48.1125C49.7219 48.5005 49.2523 48.7696 48.7356 48.8836C48.2189 48.9977 47.6797 48.9514 47.19 48.751C45.63 48.111 45.0601 46.211 43.8601 45.041C43.1141 44.3798 42.1897 43.9531 41.2026 43.8144C40.2155 43.6757 39.2093 43.831 38.31 44.261C37.4252 44.7149 36.6491 45.3548 36.0346 46.1366C35.4202 46.9185 34.9819 47.824 34.75 48.791C34.5 50.211 34.6 51.921 35.75 52.811Z" fill="#E2EAF4"/>
<path d="M72.86 43.041L72.92 42.951C72.7073 42.4826 72.3739 42.0793 71.9539 41.7823C71.5339 41.4853 71.0425 41.3054 70.53 41.261C69.5055 41.1973 68.4773 41.2342 67.46 41.371C66.4147 41.5126 65.3529 41.2826 64.46 40.721C63.8372 40.1179 63.2837 39.4471 62.81 38.721C62.5649 38.3586 62.2161 38.0788 61.8092 37.9182C61.4024 37.7576 60.9565 37.7237 60.53 37.821C60.3257 37.9345 60.146 38.0874 60.0011 38.2707C59.8562 38.4541 59.749 38.6643 59.6858 38.8893C59.6226 39.1143 59.6045 39.3496 59.6327 39.5816C59.6609 39.8136 59.7348 40.0377 59.85 40.241C60.3669 41.0812 61.1582 41.7171 62.09 42.041C65.4669 43.5704 69.2593 43.9225 72.86 43.041Z" fill="#E2EAF4"/>
<path d="M61.31 45.971C61.0226 46.1845 60.8311 46.5026 60.7768 46.8564C60.7225 47.2102 60.8099 47.5712 61.02 47.861C61.2191 48.1345 61.5143 48.3226 61.8463 48.3875C62.1783 48.4524 62.5225 48.3894 62.81 48.211L63.11 48.511C63.3404 48.1756 63.4678 47.7802 63.4767 47.3734C63.4856 46.9667 63.3755 46.5661 63.16 46.221C62.9364 45.9591 62.6241 45.7888 62.2828 45.7426C61.9415 45.6965 61.5951 45.7778 61.31 45.971Z" fill="#E2EAF4"/>
<path d="M57.84 48.511C57.8458 48.2582 57.7742 48.0098 57.6347 47.7989C57.4953 47.588 57.2948 47.4247 57.06 47.331C56.9035 47.3039 56.7431 47.3085 56.5884 47.3444C56.4337 47.3803 56.2878 47.4468 56.1592 47.54C56.0306 47.6332 55.9219 47.7512 55.8396 47.887C55.7573 48.0229 55.7031 48.1738 55.68 48.331V48.391C55.6555 48.7167 55.6987 49.044 55.8072 49.3521C55.9156 49.6602 56.0868 49.9425 56.31 50.181C56.4371 50.3758 56.6048 50.541 56.8016 50.6652C56.9983 50.7895 57.2194 50.8699 57.45 50.901C57.92 50.901 58.39 50.431 58.2 50.011H57.49C57.7121 49.5416 57.8314 49.0302 57.84 48.511Z" fill="#E2EAF4"/>
<path d="M43.96 41.241L44.75 41.871C45.2008 42.2493 45.6863 42.5841 46.2 42.871C47.1145 43.3786 48.1914 43.5078 49.2 43.231C49.6927 43.0894 50.142 42.8267 50.5071 42.4669C50.8722 42.1071 51.1414 41.6615 51.2901 41.171C51.4586 39.9587 51.2119 38.7252 50.59 37.671C50.4765 37.3535 50.2918 37.0661 50.0501 36.831C49.9208 36.7236 49.7581 36.6649 49.59 36.6649C49.422 36.6649 49.2593 36.7236 49.13 36.831C49.0315 36.9504 48.9659 37.0935 48.9396 37.2461C48.9133 37.3987 48.9272 37.5555 48.9801 37.701C49.0808 37.9969 49.1283 38.3084 49.1201 38.621C49.1201 38.921 48.75 39.211 48.4701 39.091L48.4201 40.091C47.0701 39.401 46.3501 37.581 44.8501 37.401C44.3597 37.3445 43.867 37.4842 43.4792 37.7895C43.0914 38.0949 42.8402 38.5411 42.78 39.031C42.7386 39.4104 42.8117 39.7935 42.9901 40.131C43.2336 40.5638 43.5638 40.9416 43.96 41.241Z" fill="#E2EAF4"/>
<path d="M40.7401 36.741C41.0587 36.5229 41.3099 36.22 41.4654 35.8666C41.6209 35.5131 41.6745 35.1232 41.6201 34.741C41.5878 34.5765 41.5233 34.4201 41.4303 34.2807C41.3373 34.1413 41.2177 34.0216 41.0782 33.9287C40.9388 33.8357 40.7823 33.7713 40.6179 33.7391C40.4534 33.7069 40.2843 33.7075 40.1201 33.741L39.9 33.801C39.4849 34.0989 39.1961 34.5411 39.09 35.041C38.74 36.041 38.38 37.041 38.02 38.041L38.6201 37.601C39.375 37.4517 40.0945 37.1599 40.7401 36.741Z" fill="#E2EAF4"/>
<path d="M47.69 30.561C47.8822 30.3164 47.9701 30.0059 47.9345 29.6969C47.8989 29.3879 47.7427 29.1055 47.5 28.911C47.4448 28.8642 47.3844 28.8239 47.32 28.791L46.57 28.721C46.2809 28.7939 46.0326 28.9787 45.8798 29.2347C45.727 29.4907 45.682 29.7969 45.755 30.086C45.8279 30.3751 46.0127 30.6233 46.2687 30.7762C46.5247 30.929 46.8309 30.9739 47.12 30.901C47.341 30.8503 47.5404 30.7313 47.69 30.561Z" fill="#E2EAF4"/>
<path d="M54.58 31.721C55.28 32.051 56.17 32.371 56.77 31.891C56.9511 31.728 57.0861 31.5202 57.1616 31.2885C57.2371 31.0568 57.2503 30.8094 57.2 30.571C57.0885 30.0983 56.8771 29.6551 56.58 29.271C55.6467 27.9343 54.4612 26.7929 53.09 25.911L52.75 26.351C52.28 27.581 51.82 29.011 52.48 30.151C53.01 30.8699 53.7405 31.4161 54.58 31.721Z" fill="#E2EAF4"/>
<path d="M59.79 32.811L61.1 33.401C60.9711 33.1778 60.7752 33.0007 60.5401 32.8948C60.305 32.789 60.0427 32.7596 59.79 32.811Z" fill="#E2EAF4"/>
<path d="M56.27 36.931L55.65 37.131C55.4498 37.6057 55.3467 38.1157 55.3467 38.631C55.3467 39.1462 55.4498 39.6562 55.65 40.131C55.8 40.751 56.13 41.511 56.77 41.481C57.41 41.451 57.67 40.701 57.77 40.091C57.9452 39.438 57.9657 38.7533 57.83 38.091C57.7619 37.7377 57.564 37.4227 57.2753 37.208C56.9866 36.9933 56.628 36.8945 56.27 36.931Z" fill="#E2EAF4"/>
<path d="M46.41 34.041L46.8701 34.221C46.9986 34.2036 47.115 34.1359 47.1937 34.0328C47.2725 33.9297 47.3071 33.7996 47.29 33.671C47.2715 33.5384 47.2009 33.4186 47.0941 33.3379C46.9872 33.2573 46.8526 33.2224 46.72 33.241C46.5874 33.2595 46.4676 33.33 46.387 33.4369C46.3063 33.5438 46.2715 33.6784 46.29 33.811C46.3147 33.8947 46.3554 33.9729 46.41 34.041Z" fill="#E2EAF4"/>
<path d="M69.46 68.981C69.0931 68.9915 68.7452 69.1467 68.4923 69.4127C68.2394 69.6787 68.1019 70.034 68.11 70.401C68.1115 70.5576 68.1385 70.713 68.19 70.861C68.3357 71.0775 68.5297 71.2572 68.7566 71.3862C68.9834 71.5152 69.2371 71.5899 69.4977 71.6044C69.7583 71.619 70.0187 71.5729 70.2585 71.47C70.4983 71.367 70.711 71.2099 70.88 71.011C71.2158 70.565 71.3612 70.0042 71.2843 69.4513C71.2075 68.8984 70.9147 68.3985 70.47 68.061L70.33 67.971L69.46 68.981Z" fill="#E2EAF4"/>
<path d="M91.7401 91.891C91.5625 91.9364 91.3956 92.0165 91.249 92.1267C91.1025 92.2368 90.9793 92.3749 90.8863 92.5329C90.7934 92.6909 90.7326 92.8657 90.7075 93.0473C90.6824 93.2289 90.6935 93.4137 90.7401 93.591L92.03 93.681L93.33 93.021C93.278 92.6564 93.0835 92.3275 92.7891 92.1062C92.4948 91.885 92.1246 91.7896 91.76 91.841L91.7401 91.891Z" fill="#E2EAF4"/>
<path d="M86.52 93.481C86.1511 93.7396 85.8552 94.089 85.6607 94.4954C85.4663 94.9018 85.38 95.3515 85.41 95.801C85.4492 96.2507 85.6316 96.676 85.9304 97.0144C86.2292 97.3528 86.6286 97.5864 87.07 97.681C87.5137 97.7503 87.9672 97.6484 88.3385 97.3959C88.7099 97.1433 88.9713 96.7591 89.07 96.321C89.29 94.991 87.86 94.011 87.35 92.771L86.52 93.481Z" fill="#E2EAF4"/>
<path d="M136.38 84.711C136.52 85.711 135.62 86.581 135.59 87.581C135.616 87.8736 135.701 88.158 135.838 88.4176C135.975 88.6773 136.163 88.9069 136.39 89.0931C136.617 89.2793 136.879 89.4184 137.161 89.5022C137.443 89.5859 137.738 89.6127 138.03 89.581C138.621 89.4779 139.179 89.2391 139.661 88.8833C140.144 88.5276 140.537 88.0646 140.81 87.531V87.421L139.07 85.421C138.262 84.7017 137.752 83.7067 137.64 82.631C137.64 82.101 137.86 81.631 137.85 81.061C137.822 80.6807 137.737 80.3067 137.6 79.951C137.44 79.491 137.23 78.951 136.76 78.801C136.29 78.651 135.58 79.121 135.3 79.671C135.049 80.1798 134.928 80.7428 134.947 81.3098C134.966 81.8768 135.125 82.4304 135.41 82.921C135.849 83.4476 136.178 84.056 136.38 84.711Z" fill="#E2EAF4"/>
<path d="M130.93 88.211C131.056 88.28 131.195 88.3211 131.338 88.3314C131.482 88.3418 131.625 88.3212 131.76 88.271C132.276 88.1815 132.77 87.9985 133.22 87.731C133.445 87.5978 133.63 87.4072 133.756 87.1787C133.883 86.9502 133.946 86.6921 133.94 86.431C133.861 86.1014 133.685 85.8028 133.436 85.5732C133.187 85.3435 132.875 85.1931 132.54 85.141C132.309 85.058 132.061 85.0338 131.818 85.0704C131.576 85.1071 131.346 85.2035 131.15 85.351C130.973 85.5865 130.854 85.8607 130.804 86.151C130.753 86.4414 130.773 86.7396 130.86 87.021L130.77 87.181C130.68 87.541 130.63 88.041 130.93 88.211Z" fill="#E2EAF4"/>
<path d="M297.09 65.351C295.605 63.9473 294.386 62.2874 293.49 60.451C292.936 59.264 292.1 58.2311 291.054 57.4429C290.007 56.6548 288.784 56.1357 287.49 55.931C284.16 55.381 280.75 56.251 277.38 56.081C271.98 55.801 267.11 52.901 261.94 51.321C259.042 50.5105 256.092 49.9024 253.11 49.501L247.96 48.681C242.354 47.6251 236.665 47.0696 230.96 47.021C229.32 47.021 227.03 46.561 227.16 44.921C227.32 42.921 230.98 43.151 231.69 41.241C232.12 40.051 231.08 38.811 229.94 38.241C228.8 37.671 227.47 37.541 226.44 36.821C225.41 36.101 224.83 34.441 225.78 33.611L217.85 37.671C215.65 38.801 213.2 40.271 212.85 42.671C211.526 43.0174 210.368 43.8216 209.58 44.941C208.839 45.0259 208.149 45.3585 207.621 45.8849C207.093 46.4112 206.758 47.1005 206.67 47.841C206.543 49.3284 206.765 50.8251 207.32 52.211C206.855 51.1363 206.146 50.1846 205.25 49.431C204.796 49.0632 204.229 48.8625 203.645 48.8625C203.061 48.8625 202.494 49.0632 202.04 49.431C201.696 49.9198 201.511 50.5031 201.511 51.101C201.511 51.6989 201.696 52.2822 202.04 52.771C202.63 53.771 203.54 54.651 204.04 55.711C205.78 59.021 202.63 63.711 198.92 63.311C199.173 59.9043 199.42 56.4876 199.66 53.061C199.818 52.0123 199.732 50.9413 199.41 49.931C199.231 49.4314 198.889 49.0068 198.439 48.7255C197.989 48.4443 197.458 48.3229 196.93 48.381C195.07 48.791 195.23 51.511 196 53.251C196.77 54.991 197.55 57.411 196 58.481C195 59.171 193.6 58.741 192.5 58.191C191.4 57.641 190.22 56.971 189.02 57.191C187.82 57.411 187.02 59.291 188.12 59.911L182.84 58.991C182.674 59.9733 182.124 60.8494 181.312 61.4269C180.5 62.0044 179.493 62.236 178.51 62.071L178.13 61.991L177.62 59.841L176.84 59.621C177.65 59.851 176.38 63.261 175.25 65.871C173.72 65.691 171.49 65.651 171.25 65.221C170.03 63.121 170.18 58.141 168.06 56.961C167 56.3676 165.91 55.8277 164.79 55.341C164.206 55.0608 163.587 54.859 162.95 54.741C161.634 54.6367 160.312 54.8422 159.09 55.341C157.634 55.6162 156.258 56.2157 155.066 57.0952C153.873 57.9746 152.893 59.1113 152.2 60.421C149.773 64.001 147.35 67.5877 144.93 71.181C144.205 72.1356 143.634 73.1986 143.24 74.331C143.057 74.8958 142.996 75.4933 143.064 76.0833C143.131 76.6733 143.324 77.242 143.63 77.751C143.952 78.2484 144.432 78.6227 144.993 78.8132C145.553 79.0038 146.162 78.9995 146.72 78.801C147.42 78.501 148.13 77.801 148.82 78.131C149.061 78.2927 149.248 78.523 149.357 78.7923C149.466 79.0615 149.491 79.3572 149.43 79.641C149.3 80.2069 149.3 80.795 149.43 81.361C149.533 81.5727 149.678 81.762 149.854 81.9178C150.031 82.0737 150.237 82.1932 150.46 82.2694C150.683 82.3456 150.919 82.377 151.154 82.3618C151.389 82.3466 151.619 82.2852 151.83 82.181C152.678 81.7222 153.313 80.9508 153.6 80.031C154.44 77.881 154.35 75.511 154.6 73.211C154.85 70.911 155.44 68.461 157.25 67.031C157.49 66.7832 157.802 66.6178 158.141 66.5585C158.481 66.4992 158.831 66.5491 159.14 66.701C159.35 66.8905 159.495 67.1407 159.556 67.4167C159.617 67.6927 159.59 67.9808 159.48 68.241C159.242 68.7533 158.936 69.231 158.57 69.661C157.953 70.5314 157.521 71.5192 157.301 72.5633C157.08 73.6073 157.077 74.6855 157.29 75.731L157.66 75.961C159.07 75.591 160.96 76.251 162.84 76.881C161.48 77.2833 160.283 78.106 159.42 79.231C157.25 82.231 155.68 85.151 151.42 85.111C150.42 85.111 149.42 84.901 148.42 84.901C147.394 84.8404 146.384 85.177 145.6 85.841C144.83 86.601 144.6 87.741 143.93 88.601C143.07 89.721 141.62 90.181 140.29 90.691C139.28 90.9647 138.412 91.6116 137.86 92.501C137.583 93.2695 137.517 94.0984 137.67 94.901C137.82 96.321 138.09 97.901 139.29 98.701C139.748 98.9404 140.25 99.0859 140.765 99.1288C141.28 99.1717 141.799 99.1113 142.29 98.951C143.496 98.4952 144.763 98.2255 146.05 98.151C147.056 98.2777 147.982 98.7614 148.661 99.5138C149.341 100.266 149.727 101.238 149.75 102.251C149.75 103.251 149.46 104.451 150.14 105.251C150.494 105.575 150.961 105.746 151.441 105.728C151.92 105.709 152.373 105.502 152.7 105.151C153.006 104.776 153.216 104.333 153.314 103.86C153.411 103.386 153.393 102.896 153.26 102.431C152.976 101.51 152.544 100.642 151.98 99.861C152.651 99.688 153.362 99.7528 153.991 100.044C154.62 100.336 155.128 100.837 155.43 101.461C155.738 102.51 155.89 103.598 155.88 104.691C156.02 105.771 156.68 106.971 157.77 107.031C158.127 107.044 158.477 106.93 158.758 106.711C159.04 106.492 159.235 106.18 159.31 105.831C159.32 105.283 159.29 104.735 159.22 104.191C159.246 103.646 159.483 103.133 159.88 102.76C160.278 102.387 160.805 102.183 161.35 102.191C161.02 102.802 160.912 103.51 161.045 104.192C161.178 104.874 161.544 105.489 162.08 105.931C162.982 106.508 164.013 106.852 165.08 106.931C166.137 107.01 167.132 107.46 167.89 108.201C169 109.551 167.64 110.201 167.43 111.301C167.17 112.701 168.34 114.771 168.79 116.111C170.85 119.011 172.917 121.904 174.99 124.791C175.452 125.493 175.996 126.137 176.61 126.711C177.669 127.545 178.99 127.977 180.338 127.929C181.685 127.882 182.972 127.358 183.97 126.451C184.921 125.491 185.539 124.251 185.733 122.914C185.927 121.577 185.688 120.212 185.05 119.021C183.84 116.821 181.44 115.461 180.26 113.241C182.228 114.873 184.644 115.87 187.19 116.101C191.697 117.013 195.979 118.807 199.79 121.381C199.972 125.361 201.498 129.161 204.12 132.161C204.598 128.766 206.183 125.623 208.63 123.221C210.22 121.661 212.4 120.411 214.63 120.831C216.86 121.251 218.48 124.031 217.15 125.831L220.48 126.081C220.97 127.311 221.48 128.551 221.97 129.781C222.059 129.522 222.228 129.298 222.453 129.142C222.678 128.985 222.946 128.905 223.22 128.911C224.22 129.071 224.98 130.041 225.97 130.391C227.83 131.061 229.82 129.201 230.06 127.241C230.3 125.281 229.36 123.391 228.46 121.631C230.463 122.003 232.53 121.782 234.41 120.997C236.289 120.211 237.898 118.894 239.04 117.207C240.182 115.521 240.808 113.538 240.84 111.501C240.872 109.464 240.309 107.463 239.22 105.741C241.372 103.474 243.908 101.605 246.71 100.221C249.31 98.941 252.14 98.061 254.41 96.221C256.68 94.381 258.26 91.301 257.17 88.631C256.4 86.731 254.47 85.451 253.89 83.491C253.06 80.651 255.6 77.721 258.47 77.011C261.34 76.301 264.34 77.171 267.17 78.011C266.73 75.101 270.11 72.371 272.86 73.401L276.32 72.001C274.99 75.001 272.09 76.831 269.96 79.261C267.83 81.691 266.56 85.671 268.78 88.021L278.36 79.351L288.36 70.271L287.88 68.871C290.71 67.841 294.09 66.841 297.09 65.351Z" fill="#E2EAF4"/>
<path d="M131.38 104.281C131.251 104.466 131.182 104.686 131.182 104.911C131.182 105.136 131.251 105.356 131.38 105.541C131.556 105.678 131.772 105.752 131.995 105.752C132.218 105.752 132.434 105.678 132.61 105.541C132.956 105.251 133.224 104.88 133.39 104.461C133.557 104.782 133.818 105.044 134.138 105.212C134.458 105.38 134.821 105.446 135.18 105.401C135.906 105.299 136.595 105.013 137.18 104.571C137.638 104.314 138.045 103.975 138.38 103.571C138.543 103.361 138.655 103.117 138.707 102.856C138.759 102.596 138.75 102.327 138.68 102.071C138.507 101.678 138.239 101.334 137.9 101.071L135.37 98.731L135.08 98.651C134.935 98.4963 134.761 98.3718 134.568 98.2846C134.375 98.1973 134.166 98.149 133.955 98.1425C133.743 98.136 133.532 98.1714 133.334 98.2467C133.135 98.3219 132.954 98.4355 132.8 98.581C132.575 98.9052 132.419 99.2722 132.341 99.6592C132.264 100.046 132.267 100.445 132.35 100.831C132.516 101.603 132.468 102.405 132.21 103.151C131.95 103.571 131.61 103.891 131.38 104.281Z" fill="#E2EAF4"/>
<path d="M180.37 130.921C177.09 130.191 174.087 128.537 171.716 126.156C169.345 123.774 167.706 120.764 166.99 117.481C166.68 115.921 166.54 114.231 165.51 113.031C164.968 112.488 164.317 112.067 163.6 111.794C162.883 111.522 162.116 111.405 161.35 111.451C159.82 111.451 158.35 111.811 156.78 111.901C155.445 112.033 154.098 111.887 152.823 111.472C151.547 111.057 150.372 110.383 149.37 109.491C148.578 108.503 147.694 107.592 146.73 106.771C145.992 106.342 145.167 106.083 144.315 106.014C143.464 105.945 142.608 106.067 141.81 106.371C140 106.961 138.56 108.581 136.59 108.371C134.62 108.161 132.17 107.371 131.37 110.111C131.13 110.891 131.21 111.741 130.92 112.501C130.47 113.661 129.27 114.321 128.32 115.131C126.482 116.873 125.335 119.22 125.09 121.741C124.845 124.249 124.905 126.778 125.27 129.271C125.274 130.636 125.716 131.965 126.53 133.061C127.82 134.451 129.99 134.391 131.88 134.241L138.45 133.691C139.63 133.601 140.98 133.561 141.82 134.391C142.238 134.964 142.625 135.558 142.98 136.171C143.378 136.642 143.923 136.965 144.528 137.087C145.133 137.209 145.761 137.122 146.31 136.841C145.867 137.635 145.626 138.525 145.608 139.434C145.591 140.343 145.797 141.242 146.209 142.053C146.621 142.863 147.226 143.559 147.971 144.08C148.716 144.602 149.578 144.931 150.48 145.041L150.65 145.141C149.25 147.551 147.79 150.241 148.37 152.961C148.87 155.291 150.8 157.161 151.12 159.531C151.41 161.701 150.28 163.911 150.78 166.041C151.101 167.105 151.743 168.043 152.619 168.727C153.494 169.411 154.56 169.807 155.67 169.861C157.912 169.926 160.094 169.132 161.77 167.641C163.419 166.161 164.877 164.481 166.11 162.641C166.991 161.589 167.638 160.362 168.01 159.041C168.31 157.621 168.01 156.041 168.66 154.761C169.46 153.281 171.36 152.761 172.32 151.351C173.56 149.561 172.83 147.131 173.1 144.971C173.75 139.631 180.53 136.301 180.37 130.921Z" fill="#E2EAF4"/>
<path d="M179.4 149.141C179.254 149.544 179.027 149.912 178.733 150.223C178.439 150.535 178.084 150.782 177.69 150.951C176.895 151.274 176.219 151.832 175.75 152.551C175.455 153.382 175.455 154.29 175.75 155.121C176.17 156.888 176.667 158.638 177.24 160.371C178.349 158.274 179.318 156.106 180.14 153.881C180.486 153.053 180.702 152.176 180.78 151.281C180.815 150.832 180.754 150.381 180.603 149.957C180.451 149.533 180.212 149.146 179.9 148.821L179.4 149.141Z" fill="#E2EAF4"/>
<path d="M225.03 139.861L222.23 136.631C221.681 135.817 220.852 135.233 219.9 134.991L219.51 135.241C220.31 137.171 221.12 139.091 221.93 141.021C222.22 141.896 222.721 142.686 223.39 143.321C223.735 143.625 224.18 143.793 224.64 143.793C225.1 143.793 225.545 143.625 225.89 143.321C226.085 143.061 226.208 142.754 226.247 142.431C226.286 142.107 226.238 141.78 226.11 141.481C225.848 140.882 225.482 140.333 225.03 139.861Z" fill="#E2EAF4"/>
<path d="M234.09 141.921C234.441 141.798 234.762 141.604 235.034 141.351C235.306 141.098 235.522 140.792 235.67 140.451C235.959 139.761 236.151 139.034 236.24 138.291C236.4 137.291 236.55 136.371 236.71 135.411L236.51 135.351C236.307 135.254 236.075 135.233 235.858 135.294C235.641 135.355 235.453 135.492 235.33 135.681C235.099 136.065 234.921 136.479 234.8 136.911C234.744 137.132 234.638 137.336 234.491 137.51C234.344 137.683 234.159 137.82 233.95 137.911C233.2 138.131 232.49 137.341 231.71 137.371C231.394 137.411 231.1 137.557 230.878 137.786C230.656 138.015 230.519 138.313 230.49 138.631C230.451 139.268 230.631 139.9 231 140.421C231.3 140.957 231.756 141.389 232.309 141.657C232.862 141.925 233.483 142.017 234.09 141.921Z" fill="#E2EAF4"/>
<path d="M239.21 143.751L241.36 138.091C240.488 138.721 239.82 139.593 239.438 140.599C239.056 141.605 238.977 142.701 239.21 143.751Z" fill="#E2EAF4"/>
<path d="M250.17 139.191H249.73C249.54 139.577 249.442 140.001 249.442 140.431C249.442 140.861 249.54 141.285 249.73 141.671C250.108 142.454 250.662 143.139 251.35 143.671C252.41 144.548 253.619 145.225 254.92 145.671C256.829 146.227 258.802 146.533 260.79 146.581L264.2 146.801C264.75 146.801 265.45 146.801 265.6 146.241C265.75 145.681 265.35 145.411 265.01 145.121C262.003 142.588 258.356 140.934 254.47 140.341C252.972 140.263 251.507 139.872 250.17 139.191Z" fill="#E2EAF4"/>
<path d="M262.3 154.201L259.85 151.821C259.05 151.051 257.85 150.231 256.95 150.821C256.43 151.181 256.27 151.891 255.82 152.341C255.553 152.582 255.231 152.753 254.882 152.838C254.533 152.924 254.168 152.921 253.82 152.831C253.104 152.64 252.428 152.325 251.82 151.901L249.82 150.641L247.72 149.341L246.14 150.871C246.21 150.121 245.2 149.631 244.5 149.931C244.17 150.117 243.885 150.374 243.667 150.683C243.449 150.993 243.303 151.348 243.24 151.721C243.131 152.473 242.929 153.208 242.64 153.911C241.84 155.451 239.89 155.911 238.18 156.161C236.47 156.411 234.52 156.781 233.61 158.251C232.84 159.471 233.07 161.051 233.33 162.471L234.33 167.841C234.381 168.489 234.64 169.103 235.07 169.591C235.92 170.341 237.24 169.891 238.27 169.431C240.434 168.39 242.755 167.714 245.14 167.431C247.546 167.161 249.968 167.78 251.95 169.171C253.18 170.111 254.12 171.401 255.42 172.231C256.314 172.769 257.319 173.096 258.359 173.187C259.398 173.279 260.445 173.133 261.42 172.761C263.374 171.977 264.991 170.534 265.99 168.681C266.874 167.046 267.318 165.209 267.277 163.351C267.237 161.492 266.714 159.676 265.76 158.081C264.771 156.65 263.609 155.347 262.3 154.201Z" fill="#E2EAF4"/>
<path d="M259.89 176.091C259.694 176.329 259.579 176.623 259.563 176.931C259.547 177.239 259.63 177.544 259.8 177.801C259.973 178.06 260.195 178.281 260.454 178.453C260.714 178.625 261.004 178.743 261.31 178.801C261.917 178.911 262.535 178.941 263.15 178.891V178.431C262.98 177.628 262.608 176.881 262.07 176.261C261.793 175.965 261.416 175.784 261.013 175.753C260.61 175.721 260.209 175.842 259.89 176.091Z" fill="#E2EAF4"/>
<path d="M280.94 176.581L280.65 176.471C279.95 177.471 279.25 178.571 278.56 179.631C278.332 179.882 278.164 180.182 278.071 180.508C277.977 180.834 277.96 181.177 278.02 181.511C278.213 181.864 278.526 182.136 278.901 182.279C279.277 182.422 279.691 182.426 280.07 182.291C280.663 182.128 281.198 181.8 281.612 181.345C282.027 180.89 282.303 180.327 282.41 179.721C282.495 179.111 282.401 178.49 282.141 177.933C281.88 177.376 281.463 176.906 280.94 176.581Z" fill="#E2EAF4"/>
<path d="M286.26 173.241L284.33 171.711L284.26 173.841H284.18C284.627 174.23 285.048 174.647 285.44 175.091C285.89 175.471 286.65 175.651 287.03 175.201C287.14 175.037 287.198 174.844 287.198 174.646C287.198 174.448 287.14 174.255 287.03 174.091C286.83 173.761 286.569 173.472 286.26 173.241Z" fill="#E2EAF4"/>
<path d="M158.49 31.971C158.17 32.161 158.26 32.641 158.39 32.971L158.84 34.181L159.05 33.401C159.226 33.0986 159.306 32.7499 159.28 32.401C159.2 32.041 158.79 31.781 158.49 31.971Z" fill="#E2EAF4"/>
<path d="M100.98 25.611L101.1 25.251C100.603 25.5373 100.221 25.9861 100.017 26.5217C99.8128 27.0573 99.7998 27.6469 99.98 28.191C100.36 27.8877 100.652 27.4891 100.828 27.0359C101.004 26.5827 101.056 26.091 100.98 25.611Z" fill="#E2EAF4"/>
<path d="M94.53 30.841C95.164 30.4842 95.7053 29.9833 96.11 29.3788C96.5147 28.7743 96.7717 28.0831 96.8601 27.361C96.922 26.9146 96.8669 26.4597 96.7 26.041C96.6166 25.8297 96.4813 25.6428 96.3065 25.4977C96.1317 25.3526 95.9231 25.254 95.7 25.211L95.4201 25.641C95.0401 25.301 94.42 25.641 94.22 26.131C94.1178 26.6364 94.1629 27.1605 94.3501 27.641C94.542 28.1191 94.542 28.6529 94.3501 29.131C94.1295 29.4115 93.8816 29.6694 93.6101 29.901C93.4683 30.0216 93.3758 30.1901 93.35 30.3744C93.3242 30.5587 93.3669 30.7461 93.47 30.901C93.72 31.151 94.19 31.041 94.53 30.841Z" fill="#E2EAF4"/>
<path d="M91.7801 28.471C92.0101 28.0522 92.1208 27.5783 92.1001 27.101L91.51 26.921C91.1232 27.0666 90.7793 27.3073 90.51 27.621C90.4294 27.701 90.3674 27.7978 90.3286 27.9046C90.2898 28.0113 90.2751 28.1254 90.2855 28.2385C90.296 28.3516 90.3314 28.461 90.3891 28.5588C90.4468 28.6567 90.5254 28.7405 90.6193 28.8044C90.7133 28.8683 90.8202 28.9106 90.9324 28.9283C91.0446 28.946 91.1593 28.9386 91.2683 28.9067C91.3774 28.8749 91.478 28.8193 91.563 28.7439C91.648 28.6686 91.7153 28.5754 91.76 28.471H91.7801Z" fill="#E2EAF4"/>
<path d="M86.77 26.561L86.9301 26.691H87.07L86.77 26.561Z" fill="#E2EAF4"/>
<path d="M85.82 31.741L87.45 30.431C87.7396 30.2265 87.9874 29.9685 88.1801 29.671C88.3089 29.3883 88.3635 29.0775 88.3391 28.7679C88.3146 28.4582 88.2117 28.1599 88.04 27.901C87.7406 27.4382 87.3653 27.0292 86.9301 26.691C86.4499 26.8032 86.0281 27.0889 85.7457 27.4931C85.4633 27.8973 85.3402 28.3915 85.4 28.881C85.49 29.501 85.88 30.171 85.56 30.711C85.4113 30.907 85.251 31.094 85.08 31.271C84.9978 31.3612 84.9523 31.4789 84.9523 31.601C84.9523 31.7231 84.9978 31.8407 85.08 31.931C85.31 32.091 85.61 31.921 85.82 31.741Z" fill="#E2EAF4"/>
<path d="M87.01 34.431C87.2074 34.4467 87.4059 34.42 87.5922 34.3527C87.7784 34.2855 87.9482 34.1792 88.09 34.041C88.8179 33.4501 89.4518 32.7522 89.97 31.971L86.31 33.131L86.69 33.581C86.36 33.761 86.61 34.361 87.01 34.431Z" fill="#E2EAF4"/>
<path d="M90.4301 36.941C90.5035 37.1393 90.6431 37.3062 90.8252 37.4137C91.0073 37.5211 91.221 37.5625 91.4301 37.531C91.6326 37.5052 91.827 37.4355 91.9998 37.3267C92.1725 37.2179 92.3194 37.0726 92.4301 36.901C92.7054 36.4924 92.8074 35.9913 92.7137 35.5076C92.6199 35.0239 92.3381 34.5971 91.9301 34.321C91.6327 34.124 91.2866 34.0132 90.9301 34.001L91.26 34.521C91.36 35.391 90.1601 36.101 90.4301 36.941Z" fill="#E2EAF4"/>
<path d="M114.15 46.571C114.478 46.8192 114.879 46.9535 115.29 46.9535C115.702 46.9535 116.102 46.8192 116.43 46.571C116.639 46.4004 116.812 46.1892 116.937 45.9502C117.063 45.7111 117.138 45.4492 117.16 45.1801C117.181 44.911 117.148 44.6403 117.062 44.3844C116.976 44.1285 116.84 43.8926 116.66 43.691C116.621 43.6569 116.584 43.6201 116.55 43.581L115.93 43.931C115.584 43.71 115.166 43.6313 114.764 43.7115C114.361 43.7916 114.005 44.0243 113.77 44.361C113.557 44.7133 113.477 45.1309 113.547 45.537C113.617 45.943 113.831 46.3102 114.15 46.571Z" fill="#E2EAF4"/>
<path d="M121.4 47.391C121.705 47.3063 121.982 47.1438 122.205 46.9193C122.427 46.6949 122.588 46.4163 122.67 46.111L121.45 45.951C121.117 45.6923 120.726 45.5205 120.31 45.451C120.101 45.4175 119.886 45.4581 119.704 45.5658C119.521 45.6735 119.382 45.8416 119.31 46.041C119.285 46.2091 119.303 46.3808 119.362 46.54C119.422 46.6993 119.521 46.8407 119.65 46.951C119.879 47.1685 120.161 47.3232 120.467 47.4002C120.774 47.4773 121.095 47.4741 121.4 47.391Z" fill="#E2EAF4"/>
<path d="M116.39 49.821C116.413 50.0172 116.491 50.2029 116.615 50.3567C116.739 50.5106 116.903 50.6265 117.09 50.691C117.295 50.7897 117.525 50.8244 117.749 50.7905C117.974 50.7566 118.183 50.6557 118.35 50.501C118.414 50.4325 118.464 50.3518 118.495 50.2636C118.527 50.1754 118.541 50.0817 118.535 49.9881C118.529 49.8945 118.505 49.803 118.463 49.7193C118.421 49.6355 118.362 49.5613 118.29 49.501C118.233 49.4518 118.169 49.4113 118.1 49.381L117.19 49.211C116.84 49.041 116.39 49.421 116.39 49.821Z" fill="#E2EAF4"/>
<path d="M97.54 55.131L96.83 54.491C97.019 54.7519 97.261 54.97 97.54 55.131Z" fill="#E2EAF4"/>
<path d="M92.16 51.351C92.6 53.351 94.76 55.001 96.73 54.351L96.83 54.451C96.2488 53.4812 96.0425 52.3324 96.25 51.221C96.5205 49.3301 97.2634 47.538 98.41 46.0104C99.5567 44.4827 101.07 43.2688 102.81 42.481C103.284 42.3284 103.708 42.0522 104.04 41.681C104.32 41.271 104.21 40.561 103.73 40.451C103.468 40.4207 103.203 40.4807 102.98 40.621L99.32 42.421C97.4251 43.2358 95.6756 44.3538 94.14 45.731C93.374 46.4333 92.7927 47.3133 92.4474 48.2934C92.1021 49.2736 92.0034 50.3237 92.16 51.351Z" fill="#E2EAF4"/>
<path d="M112.24 96.341C111.619 96.2411 110.982 96.3614 110.44 96.681C110.28 96.8229 110.141 96.9881 110.03 97.171L109.85 97.411C109.598 97.7466 109.377 98.1048 109.19 98.481C109.092 98.6581 109.033 98.8543 109.018 99.0562C109.002 99.2581 109.03 99.4609 109.1 99.651C109.136 99.7321 109.187 99.8053 109.251 99.8663C109.316 99.9274 109.391 99.9751 109.474 100.007C109.557 100.038 109.645 100.053 109.734 100.051C109.822 100.048 109.909 100.028 109.99 99.991C110.031 99.979 110.068 99.9585 110.1 99.931C110.37 99.681 110.3 99.241 110.51 98.931C110.599 98.8175 110.713 98.7259 110.843 98.6635C110.973 98.6011 111.116 98.5694 111.26 98.571C111.549 98.5794 111.837 98.6129 112.12 98.671C112.904 98.7775 113.702 98.6577 114.42 98.3256C115.139 97.9935 115.747 97.4631 116.173 96.7968C116.6 96.1305 116.828 95.3561 116.829 94.5648C116.83 93.7736 116.605 92.9985 116.18 92.331L116.13 92.171C115.696 92.1538 115.27 92.2896 114.927 92.5546C114.583 92.8197 114.343 93.1972 114.25 93.621C114.11 94.351 114.4 95.201 113.96 95.801C113.736 96.0193 113.463 96.182 113.164 96.2758C112.866 96.3696 112.549 96.3919 112.24 96.341Z" fill="#E2EAF4"/>
<path d="M117.85 88.611H117.75C117.189 88.7111 116.651 88.9109 116.16 89.201C115.999 89.2716 115.871 89.4001 115.8 89.561C115.78 89.6471 115.781 89.7368 115.804 89.8222C115.827 89.9076 115.87 89.9862 115.93 90.051C116.049 90.1823 116.192 90.2907 116.35 90.371C116.581 90.5285 116.839 90.6436 117.11 90.711C117.246 90.7466 117.389 90.7469 117.526 90.7119C117.662 90.6769 117.788 90.6078 117.89 90.511C117.988 90.3797 118.057 90.2281 118.089 90.0673C118.122 89.9065 118.119 89.7404 118.08 89.581C118.033 89.2513 117.956 88.9267 117.85 88.611Z" fill="#E2EAF4"/>
<path d="M108.2 96.531C108.351 96.2916 108.46 96.0276 108.52 95.751C108.57 95.531 108.63 95.321 108.69 95.101L108.07 94.731C107.769 94.8824 107.493 95.0779 107.25 95.311C107.129 95.4272 107.034 95.5672 106.971 95.7222C106.907 95.8771 106.876 96.0435 106.88 96.211C106.888 96.3792 106.953 96.5397 107.064 96.6667C107.174 96.7937 107.325 96.8797 107.49 96.911C107.631 96.9131 107.77 96.8793 107.894 96.8129C108.018 96.7464 108.124 96.6494 108.2 96.531Z" fill="#E2EAF4"/>
<path d="M195.98 94.961H91.66C89.1466 94.9583 86.7369 93.9587 84.9596 92.1814C83.1823 90.4042 82.1827 87.9944 82.1801 85.481V10.851C82.1801 8.33581 83.1785 5.92351 84.9561 4.14407C86.7336 2.36464 89.1449 1.36364 91.66 1.36098H195.98C198.494 1.36628 200.904 2.36813 202.681 4.14699C204.458 5.92585 205.457 8.33662 205.46 10.851V85.481C205.457 87.9944 204.458 90.4042 202.68 92.1814C200.903 93.9587 198.493 94.9583 195.98 94.961Z" fill="white"/>
<path d="M195.98 94.961H91.66C89.1466 94.9583 86.7369 93.9587 84.9596 92.1814C83.1823 90.4042 82.1827 87.9944 82.1801 85.481V10.851C82.1801 8.33581 83.1785 5.92351 84.9561 4.14407C86.7336 2.36464 89.1449 1.36364 91.66 1.36098H195.98C198.494 1.36628 200.904 2.36813 202.681 4.14699C204.458 5.92585 205.457 8.33662 205.46 10.851V85.481C205.457 87.9944 204.458 90.4042 202.68 92.1814C200.903 93.9587 198.493 94.9583 195.98 94.961ZM91.66 2.19099C89.3641 2.19363 87.1629 3.10687 85.5394 4.73036C83.9159 6.35385 83.0026 8.55502 83 10.851V85.481C83.0053 87.7761 83.9194 89.9758 85.5423 91.5987C87.1652 93.2216 89.3649 94.1357 91.66 94.141H195.98C198.275 94.1357 200.475 93.2216 202.098 91.5987C203.721 89.9758 204.635 87.7761 204.64 85.481V10.851C204.637 8.55502 203.724 6.35385 202.101 4.73036C200.477 3.10687 198.276 2.19363 195.98 2.19099H91.66Z" fill="#1D2355"/>
<path d="M120.09 12.731H103.55C103.112 12.731 102.693 12.5571 102.383 12.2477C102.074 11.9383 101.9 11.5186 101.9 11.081C101.9 10.6434 102.074 10.2237 102.383 9.91426C102.693 9.60483 103.112 9.43098 103.55 9.43098H120.09C120.528 9.43098 120.947 9.60483 121.257 9.91426C121.566 10.2237 121.74 10.6434 121.74 11.081C121.74 11.5186 121.566 11.9383 121.257 12.2477C120.947 12.5571 120.528 12.731 120.09 12.731Z" fill="#CCCCCC"/>
<path d="M155.91 49.841H103.55C103.112 49.841 102.693 49.6671 102.383 49.3577C102.074 49.0483 101.9 48.6286 101.9 48.191C101.9 47.7534 102.074 47.3337 102.383 47.0243C102.693 46.7148 103.112 46.541 103.55 46.541H155.91C156.348 46.541 156.767 46.7148 157.077 47.0243C157.386 47.3337 157.56 47.7534 157.56 48.191C157.56 48.6286 157.386 49.0483 157.077 49.3577C156.767 49.6671 156.348 49.841 155.91 49.841Z" fill="#CCCCCC"/>
<path d="M112.82 39.421C118.928 39.421 123.88 34.4693 123.88 28.361C123.88 22.2527 118.928 17.301 112.82 17.301C106.712 17.301 101.76 22.2527 101.76 28.361C101.76 34.4693 106.712 39.421 112.82 39.421Z" fill="#ED467C"/>
<path d="M104.37 81.331H101.9V82.151H104.37V81.331Z" fill="#1D2355"/>
<path d="M177.01 82.161H171.82V81.331H177.01V82.161ZM166.63 82.161H161.45V81.331H166.63V82.161ZM156.26 82.161H151.09V81.331H156.28L156.26 82.161ZM145.88 82.161H140.69V81.331H145.88V82.161ZM135.5 82.161H130.32V81.331H135.5V82.161ZM125.13 82.161H119.94V81.331H125.09L125.13 82.161ZM114.75 82.161H109.56V81.331H114.75V82.161Z" fill="#1D2355"/>
<path d="M184.67 81.331H182.2V82.151H184.67V81.331Z" fill="#1D2355"/>
<path d="M143.89 66.741H141.83V80.761H143.89V66.741Z" fill="#EF636B"/>
<path d="M164.91 66.741H162.85V80.761H164.91V66.741Z" fill="#ED467C"/>
<path d="M154.19 60.551H152.13V80.751H154.19V60.551Z" fill="#E6B66D"/>
<path d="M47.9 104.621C49.6673 104.621 51.1 103.188 51.1 101.421C51.1 99.6537 49.6673 98.221 47.9 98.221C46.1327 98.221 44.7 99.6537 44.7 101.421C44.7 103.188 46.1327 104.621 47.9 104.621Z" fill="#EF636B"/>
<path d="M80.53 138.461C82.2973 138.461 83.73 137.028 83.73 135.261C83.73 133.494 82.2973 132.061 80.53 132.061C78.7627 132.061 77.33 133.494 77.33 135.261C77.33 137.028 78.7627 138.461 80.53 138.461Z" fill="#E6B66D"/>
<path d="M142.29 126.301C144.057 126.301 145.49 124.868 145.49 123.101C145.49 121.334 144.057 119.901 142.29 119.901C140.523 119.901 139.09 121.334 139.09 123.101C139.09 124.868 140.523 126.301 142.29 126.301Z" fill="#ED467C"/>
<path d="M158.8 225.391C158.651 225.396 158.505 225.343 158.394 225.242C158.284 225.141 158.218 225 158.21 224.851C158.205 224.769 158.219 224.687 158.25 224.611C158.281 224.534 158.329 224.466 158.39 224.411V224.251C158.312 224.067 158.198 223.9 158.054 223.76C157.911 223.62 157.742 223.51 157.556 223.436C157.37 223.361 157.172 223.324 156.972 223.327C156.771 223.33 156.574 223.372 156.39 223.451C156.023 223.606 155.729 223.896 155.57 224.261C155.028 225.334 154.628 226.474 154.38 227.651C154.322 228.169 154.349 228.692 154.46 229.201C153.38 226.848 152.821 224.29 152.82 221.701C152.817 221.049 152.854 220.398 152.93 219.751C152.99 219.221 153.07 218.691 153.18 218.171C153.754 215.34 154.995 212.686 156.8 210.431C157.665 209.95 158.362 209.218 158.8 208.331C158.961 208.016 159.075 207.679 159.14 207.331C158.95 206.825 158.849 206.291 158.84 205.751C158.71 205.541 158.46 205.441 158.31 205.241C157.57 204.241 156.54 204.401 156 205.781C154.86 206.361 154.85 207.311 155.55 208.241C156 208.821 156.06 209.621 156.45 210.241L156.33 210.401C155.595 211.337 154.952 212.342 154.41 213.401C154.539 212.198 154.381 210.981 153.95 209.851C153.414 208.813 152.742 207.851 151.95 206.991C151.758 206.748 151.499 206.567 151.204 206.471C150.91 206.375 150.594 206.369 150.295 206.452C149.997 206.536 149.73 206.705 149.528 206.94C149.326 207.175 149.198 207.464 149.16 207.771L149.48 207.961C149.648 208.077 149.764 208.253 149.803 208.453C149.842 208.653 149.802 208.861 149.69 209.031C149.63 209.118 149.553 209.192 149.464 209.249C149.374 209.305 149.274 209.344 149.17 209.361C149.212 209.748 149.278 210.132 149.37 210.511C148.45 214.081 150.44 215.391 153.3 215.451L153.48 215.541C152.944 217.078 152.608 218.678 152.48 220.301C152.405 221.256 152.405 222.216 152.48 223.171C152.275 222.107 151.71 221.147 150.88 220.451C149.64 219.451 147.88 219.061 146.56 218.251C146.463 218.188 146.354 218.144 146.24 218.123C146.126 218.102 146.009 218.103 145.896 218.127C145.783 218.152 145.675 218.198 145.58 218.264C145.484 218.33 145.403 218.414 145.34 218.511C145.223 218.688 145.177 218.902 145.21 219.111C145.408 219.194 145.602 219.288 145.79 219.391L146.11 219.581C146.278 219.697 146.394 219.873 146.433 220.073C146.472 220.273 146.432 220.481 146.32 220.651C146.261 220.741 146.182 220.817 146.091 220.874C146 220.931 145.897 220.967 145.79 220.981C146.128 221.794 146.605 222.542 147.2 223.191C147.78 226.311 150.26 226.611 152.92 225.701C153.213 226.968 153.635 228.201 154.18 229.381H158.69C158.69 229.331 158.69 229.281 158.69 229.231C158.275 229.258 157.859 229.234 157.45 229.161C157.78 228.751 158.11 228.331 158.45 227.921L158.96 227.291C158.967 226.648 158.893 226.006 158.74 225.381L158.8 225.391Z" fill="#F2F2F2"/>
<path d="M271.09 225.391C271.24 225.396 271.385 225.343 271.496 225.242C271.606 225.141 271.672 225 271.68 224.851C271.685 224.769 271.671 224.687 271.64 224.611C271.609 224.534 271.561 224.466 271.5 224.411V224.251C271.577 224.066 271.691 223.898 271.834 223.758C271.977 223.617 272.146 223.506 272.332 223.432C272.518 223.357 272.718 223.321 272.918 223.324C273.119 223.327 273.316 223.37 273.5 223.451C273.867 223.606 274.161 223.896 274.32 224.261C274.862 225.334 275.262 226.474 275.51 227.651C275.569 228.169 275.542 228.692 275.43 229.201C276.51 226.848 277.069 224.29 277.07 221.701C277.068 221.049 277.032 220.399 276.96 219.751C276.9 219.221 276.82 218.691 276.71 218.171C276.132 215.341 274.892 212.689 273.09 210.431C272.231 209.944 271.535 209.213 271.09 208.331C270.933 208.015 270.822 207.678 270.76 207.331C270.951 206.826 271.05 206.291 271.05 205.751C271.19 205.541 271.44 205.441 271.59 205.241C272.33 204.241 273.36 204.401 273.9 205.781C275.04 206.361 275.05 207.311 274.35 208.241C273.9 208.821 273.84 209.621 273.45 210.241L273.57 210.401C274.305 211.337 274.948 212.342 275.49 213.401C275.361 212.198 275.519 210.981 275.95 209.851C276.486 208.813 277.158 207.851 277.95 206.991C278.142 206.748 278.401 206.567 278.696 206.471C278.99 206.375 279.306 206.369 279.605 206.452C279.903 206.536 280.17 206.705 280.372 206.94C280.574 207.175 280.702 207.464 280.74 207.771C280.63 207.828 280.523 207.892 280.42 207.961C280.325 208.007 280.24 208.073 280.171 208.153C280.102 208.234 280.05 208.328 280.019 208.429C279.988 208.53 279.979 208.637 279.991 208.742C280.003 208.848 280.037 208.949 280.09 209.041C280.15 209.128 280.227 209.202 280.317 209.259C280.406 209.315 280.506 209.354 280.61 209.371C280.569 209.758 280.502 210.142 280.41 210.521C281.33 214.091 279.33 215.401 276.48 215.461L276.29 215.551C276.836 217.086 277.172 218.687 277.29 220.311C277.37 221.266 277.37 222.226 277.29 223.181C277.495 222.117 278.06 221.157 278.89 220.461C280.13 219.461 281.89 219.071 283.21 218.261C283.307 218.198 283.416 218.154 283.53 218.133C283.644 218.112 283.761 218.113 283.874 218.137C283.987 218.162 284.095 218.208 284.19 218.274C284.286 218.34 284.367 218.424 284.43 218.521C284.542 218.7 284.588 218.912 284.56 219.121C284.361 219.202 284.167 219.296 283.98 219.401L283.66 219.591C283.576 219.647 283.504 219.72 283.448 219.804C283.391 219.888 283.353 219.983 283.333 220.082C283.314 220.182 283.314 220.284 283.334 220.383C283.354 220.483 283.393 220.577 283.45 220.661C283.509 220.749 283.586 220.824 283.675 220.881C283.765 220.938 283.865 220.975 283.97 220.991H284.09C283.749 221.802 283.272 222.549 282.68 223.201C282.1 226.321 279.62 226.621 276.96 225.711C276.667 226.978 276.245 228.211 275.7 229.391H271.19C271.19 229.341 271.19 229.291 271.19 229.241C271.605 229.268 272.021 229.244 272.43 229.171L271.43 227.931L270.92 227.301C270.908 226.657 270.982 226.015 271.14 225.391H271.09Z" fill="#F2F2F2"/>
<path d="M234.8 119.411L234.47 118.591C234.32 118.961 234.38 119.341 234.8 119.411Z" fill="#E2EAF4"/>
<path d="M243.94 225.011H239.72L237.72 208.731H243.95L243.94 225.011Z" fill="#9E8377"/>
<path d="M244.09 229.421H231.09V229.261C231.09 228.6 231.221 227.946 231.475 227.336C231.73 226.726 232.103 226.173 232.572 225.708C233.042 225.243 233.599 224.875 234.211 224.627C234.824 224.379 235.479 224.254 236.14 224.261L238.51 222.461L242.93 224.261H244.09V229.421Z" fill="#1D2355"/>
<path d="M212.23 225.011H208.01L206 208.731H212.23V225.011Z" fill="#9E8377"/>
<path d="M212.38 229.421H199.38V229.261C199.38 228.6 199.511 227.946 199.765 227.336C200.02 226.726 200.393 226.173 200.862 225.708C201.332 225.243 201.889 224.875 202.501 224.627C203.114 224.379 203.769 224.254 204.43 224.261L206.8 222.461L211.23 224.261H212.36L212.38 229.421Z" fill="#1D2355"/>
<path d="M244.09 92.571L236.6 91.501C234.09 95.731 233.19 107.041 233.19 107.041L225.86 124.461C225.373 124.79 224.982 125.241 224.726 125.769C224.469 126.297 224.356 126.884 224.399 127.47C224.441 128.055 224.637 128.619 224.967 129.105C225.297 129.591 225.749 129.981 226.278 130.236C226.807 130.492 227.394 130.603 227.979 130.559C228.565 130.515 229.129 130.318 229.613 129.987C230.098 129.656 230.487 129.202 230.741 128.673C230.995 128.144 231.105 127.556 231.06 126.971L243.06 106.691L244.09 92.571Z" fill="#9E8377"/>
<path d="M240.09 71.771C242.183 72.0985 244.06 73.2425 245.31 74.9521C246.561 76.6618 247.082 78.7975 246.76 80.891C246.679 81.3766 246.559 81.8549 246.4 82.321L244.81 86.831C244.81 86.831 246.81 100.391 243.51 104.221L233.38 103.301C233.38 103.301 235.24 96.461 233.81 93.151C232.94 91.151 232.99 84.151 233.81 78.421C234.47 74.041 235.7 71.101 240.09 71.771Z" fill="#E6B66D"/>
<path d="M205.09 112.651C205.09 112.651 197.28 120.261 198.95 122.021C200.62 123.781 204.43 126.241 200.89 126.641C197.35 127.041 195.89 127.911 198.95 128.641C202.01 129.371 201.54 131.251 201.54 131.251C201.54 131.251 196.93 153.251 200.43 167.691C200.43 167.691 202.37 207.181 203.59 210.251C204.81 213.321 205.28 211.461 204.82 213.331C204.36 215.201 203.42 211.931 204.35 215.201C204.858 216.905 205.262 218.638 205.56 220.391L214.68 218.991C214.68 218.991 216.15 214.361 214.68 213.151C213.21 211.941 211.89 212.681 213.48 209.971C215.07 207.261 215.54 210.971 215.08 207.271C214.62 203.571 216.56 183.351 213.48 172.691L219.16 142.761L228.16 173.761C228.16 173.761 232.94 211.601 234.49 212.941C236.04 214.281 238.38 211.941 236.05 214.271C233.72 216.601 233.75 216.201 233.71 216.601C233.28 220.881 246.63 216.201 246.63 216.201C246.56 215.115 246.56 214.027 246.63 212.941C246.77 211.941 245.09 211.621 246.63 210.611C248.17 209.601 245.88 210.611 245.88 210.611C245.88 210.611 242.44 182.691 239.82 174.231L236.82 133.031C236.82 133.031 236.62 133.851 236.82 131.851C237.02 129.851 238.41 131.251 237.01 129.851C235.61 128.451 234.68 127.741 235.61 126.701C236.54 125.661 239.11 123.541 237.61 122.271C236.11 121.001 233.1 112.661 233.1 112.661L203.95 112.891" fill="#1D2355"/>
<path d="M216.09 66.391L221.35 60.481L229.65 61.401L234.97 68.841C237.8 69.4916 240.272 71.2018 241.879 73.62C243.487 76.0381 244.106 78.9802 243.61 81.841C241.55 93.731 234.53 105.251 236.85 111.111C240.36 120.011 240.58 123.641 232.17 122.391C223.76 121.141 195.56 118.271 201.03 112.801C206.5 107.331 207.69 98.211 207.69 98.211L207.91 77.311C207.466 74.8898 208.002 72.3914 209.398 70.3646C210.795 68.3378 212.939 66.9482 215.36 66.501C215.6 66.451 215.85 66.421 216.09 66.391Z" fill="#E6B66D"/>
<path d="M217.53 89.301L210.03 88.231C207.5 92.471 206.6 103.741 206.6 103.741L199.27 121.171C198.785 121.501 198.396 121.953 198.141 122.481C197.886 123.009 197.775 123.595 197.819 124.18C197.862 124.765 198.059 125.328 198.389 125.813C198.72 126.297 199.172 126.686 199.7 126.941C200.228 127.196 200.814 127.307 201.399 127.263C201.984 127.219 202.547 127.022 203.031 126.691C203.516 126.361 203.905 125.909 204.159 125.38C204.413 124.852 204.524 124.266 204.48 123.681L216.48 103.401L217.53 89.301Z" fill="#9E8377"/>
<path d="M213.47 68.511C215.559 68.841 217.432 69.9845 218.68 71.6916C219.928 73.3987 220.449 75.5306 220.13 77.621C220.06 78.1121 219.939 78.5946 219.77 79.061L218.18 83.561C218.18 83.561 220.18 97.131 216.89 100.961L206.76 100.041C206.76 100.041 208.61 93.201 207.19 89.881C206.32 87.881 206.37 80.881 207.19 75.151C207.88 70.801 209.09 67.841 213.47 68.511Z" fill="#E6B66D"/>
<path d="M227.78 59.971C233.325 59.971 237.82 55.4759 237.82 49.931C237.82 44.386 233.325 39.891 227.78 39.891C222.235 39.891 217.74 44.386 217.74 49.931C217.74 55.4759 222.235 59.971 227.78 59.971Z" fill="#9E8377"/>
<path d="M229.63 59.751C226.83 59.051 226.74 58.261 223.94 57.561C223.05 57.331 222.02 56.981 221.76 56.101C221.698 55.7796 221.711 55.4482 221.797 55.1326C221.884 54.8169 222.042 54.5255 222.26 54.281C222.7 53.7993 223.111 53.2918 223.49 52.761C223.704 52.4224 223.848 52.0443 223.914 51.6491C223.979 51.2539 223.965 50.8496 223.872 50.46C223.779 50.0704 223.608 49.7034 223.371 49.3807C223.134 49.058 222.834 48.7861 222.49 48.581C222.167 48.3897 221.811 48.2608 221.44 48.201C220.58 48.051 219.68 48.281 218.81 48.201C217.62 48.041 215.86 43.621 216.63 42.691C217.4 41.761 218.63 41.241 219.01 40.151C219.166 39.4009 219.246 38.6371 219.25 37.871C219.43 36.751 221.7 39.871 221.39 38.761C220.65 36.071 233.2 35.651 234.5 39.101C234.99 40.381 236.31 40.591 237.33 41.521C238.4 42.5401 239.247 43.7691 239.82 45.131C240.009 46.1935 239.971 47.2839 239.71 48.331C238.71 53.241 236.95 57.591 232.36 59.641" fill="#1D2355"/>
<path d="M308.79 230.041L127.02 230.181C126.947 230.184 126.873 230.171 126.805 230.145C126.736 230.118 126.674 230.078 126.621 230.027C126.569 229.975 126.528 229.913 126.5 229.845C126.472 229.777 126.459 229.704 126.46 229.631C126.462 229.485 126.521 229.345 126.623 229.241C126.726 229.137 126.864 229.076 127.01 229.071L308.78 228.931C308.914 228.949 309.038 229.015 309.127 229.117C309.216 229.219 309.265 229.35 309.265 229.486C309.265 229.622 309.216 229.753 309.127 229.855C309.038 229.957 308.914 230.023 308.78 230.041H308.79Z" fill="#CACACA"/>
</svg>
