<svg width="310" height="231" viewBox="0 0 310 231" fill="none" xmlns="http://www.w3.org/2000/svg">
<path d="M83.3101 170.171C69.0061 170.172 54.943 166.489 42.4752 159.478C30.0075 152.466 19.5552 142.363 12.1253 130.14C4.6953 117.917 0.537951 103.987 0.0536819 89.6912C-0.430587 75.3955 2.77453 61.2158 9.36032 48.5182C15.9461 35.8206 25.6907 25.0327 37.6553 17.1938C49.62 9.35483 63.4017 4.72894 77.6729 3.76167C91.9441 2.79439 106.224 5.51833 119.137 11.6711C132.05 17.8239 143.161 27.1982 151.4 38.891L150.61 39.441C140.616 25.2658 126.399 14.6096 109.99 8.99281C93.5801 3.37606 75.8157 3.08582 59.2313 8.16352C42.647 13.2412 28.0902 23.4274 17.638 37.2685C7.18592 51.1096 1.37258 67.8985 1.02758 85.2393C0.682579 102.58 5.82353 119.587 15.7169 133.833C25.6102 148.079 39.7503 158.836 56.1196 164.569C72.4888 170.302 90.2508 170.719 106.871 165.759C123.491 160.8 138.12 150.717 148.67 136.951L149.43 137.531C141.681 147.712 131.678 155.957 120.206 161.621C108.733 167.284 96.1041 170.211 83.3101 170.171Z" fill="#E2EAF4"/>
<path d="M117.73 72.931C116.816 72.933 115.922 72.6637 115.161 72.1573C114.4 71.6508 113.806 70.9299 113.455 70.0859C113.103 69.2419 113.01 68.3127 113.188 67.4158C113.365 66.519 113.804 65.6948 114.45 65.0477C115.095 64.4006 115.919 63.9596 116.815 63.7805C117.712 63.6015 118.641 63.6924 119.486 64.0417C120.331 64.3911 121.053 64.9833 121.561 65.7432C122.069 66.5032 122.34 67.3968 122.34 68.311C122.34 69.5346 121.855 70.7082 120.99 71.5743C120.126 72.4405 118.954 72.9284 117.73 72.931Z" fill="#E2EAF4"/>
<path d="M119.31 69.281L118.31 68.281L119.31 67.281C119.377 67.1919 119.41 67.0815 119.402 66.9701C119.394 66.8588 119.345 66.7542 119.266 66.6758C119.186 66.5975 119.081 66.5508 118.97 66.5444C118.858 66.5379 118.748 66.5723 118.66 66.641L117.66 67.641L116.66 66.641C116.618 66.599 116.568 66.5656 116.513 66.5429C116.458 66.5201 116.399 66.5085 116.34 66.5085C116.281 66.5085 116.222 66.5201 116.167 66.5429C116.112 66.5656 116.062 66.599 116.02 66.641C115.978 66.683 115.945 66.7329 115.922 66.7878C115.899 66.8427 115.888 66.9016 115.888 66.961C115.888 67.0204 115.899 67.0793 115.922 67.1342C115.945 67.1891 115.978 67.239 116.02 67.281L117.02 68.281L116.02 69.281C115.935 69.3659 115.888 69.481 115.888 69.601C115.888 69.721 115.935 69.8361 116.02 69.921C116.105 70.0059 116.22 70.0536 116.34 70.0536C116.46 70.0536 116.575 70.0059 116.66 69.921L117.66 68.921L118.66 69.921C118.746 70.0071 118.863 70.0555 118.985 70.0555C119.107 70.0555 119.224 70.0071 119.31 69.921C119.391 69.8341 119.436 69.7197 119.436 69.601C119.436 69.4823 119.391 69.3679 119.31 69.281Z" fill="white"/>
<path d="M94.7601 18.411C99.8356 18.411 103.95 14.2965 103.95 9.22101C103.95 4.14551 99.8356 0.0310059 94.7601 0.0310059C89.6846 0.0310059 85.5701 4.14551 85.5701 9.22101C85.5701 14.2965 89.6846 18.411 94.7601 18.411Z" fill="#E2EAF4"/>
<path d="M93.51 14.001C93.3506 14.003 93.1929 13.9668 93.0503 13.8955C92.9077 13.8242 92.7841 13.7198 92.6901 13.591L90.1901 10.251C90.0269 10.0348 89.9564 9.76276 89.9939 9.49458C90.0314 9.22641 90.1739 8.98411 90.3901 8.821C90.6062 8.65789 90.8783 8.58732 91.1465 8.62483C91.4146 8.66234 91.6569 8.80486 91.82 9.02101L93.46 11.211L97.6701 4.89101C97.7435 4.77766 97.8392 4.68038 97.9513 4.60503C98.0634 4.52967 98.1897 4.47782 98.3224 4.45259C98.4551 4.42736 98.5915 4.42926 98.7234 4.45821C98.8554 4.48715 98.9801 4.54255 99.09 4.62102C99.2014 4.69369 99.2971 4.78783 99.3716 4.89793C99.4461 5.00803 99.4979 5.13187 99.5239 5.26222C99.55 5.39258 99.5498 5.52683 99.5234 5.65712C99.497 5.7874 99.4448 5.91111 99.37 6.02101L94.37 13.541C94.2815 13.679 94.1605 13.7932 94.0175 13.8734C93.8745 13.9536 93.714 13.9974 93.5501 14.001H93.51Z" fill="white"/>
<path d="M106.01 25.791H83.9201C82.567 25.791 81.4701 26.8879 81.4701 28.241V29.111C81.4701 30.4641 82.567 31.561 83.9201 31.561H106.01C107.363 31.561 108.46 30.4641 108.46 29.111V28.241C108.46 26.8879 107.363 25.791 106.01 25.791Z" fill="#E2EAF4"/>
<path d="M119.71 37.331H70.2201C68.867 37.331 67.7701 38.4279 67.7701 39.781V40.651C67.7701 42.0041 68.867 43.101 70.2201 43.101H119.71C121.063 43.101 122.16 42.0041 122.16 40.651V39.781C122.16 38.4279 121.063 37.331 119.71 37.331Z" fill="#E2EAF4"/>
<path d="M119.71 48.881H70.2201C68.867 48.881 67.7701 49.9779 67.7701 51.331V52.201C67.7701 53.5541 68.867 54.651 70.2201 54.651H119.71C121.063 54.651 122.16 53.5541 122.16 52.201V51.331C122.16 49.9779 121.063 48.881 119.71 48.881Z" fill="#E2EAF4"/>
<path d="M89.6101 171.921C88.6959 171.921 87.8022 171.65 87.0423 171.142C86.2823 170.634 85.6902 169.911 85.3408 169.067C84.9914 168.222 84.9005 167.292 85.0796 166.396C85.2586 165.5 85.6996 164.676 86.3468 164.031C86.9939 163.385 87.818 162.946 88.7149 162.769C89.6117 162.591 90.541 162.684 91.385 163.036C92.229 163.387 92.9499 163.981 93.4563 164.742C93.9628 165.503 94.232 166.397 94.23 167.311C94.23 167.917 94.1105 168.518 93.8782 169.078C93.6459 169.637 93.3054 170.146 92.8763 170.574C92.4471 171.003 91.9378 171.342 91.3773 171.573C90.8168 171.804 90.2163 171.922 89.6101 171.921Z" fill="#E2EAF4"/>
<path d="M91.2201 168.271L90.2201 167.271L91.2201 166.271C91.2717 166.231 91.3141 166.18 91.3444 166.122C91.3748 166.064 91.3925 166 91.3962 165.935C91.4 165.869 91.3898 165.804 91.3662 165.743C91.3427 165.682 91.3064 165.627 91.2597 165.581C91.2131 165.535 91.1572 165.499 91.0958 165.477C91.0343 165.454 90.9688 165.445 90.9035 165.45C90.8382 165.454 90.7747 165.473 90.7172 165.504C90.6597 165.536 90.6095 165.579 90.57 165.631L89.57 166.631L88.57 165.631C88.528 165.589 88.4781 165.556 88.4232 165.533C88.3683 165.51 88.3095 165.498 88.2501 165.498C88.1906 165.498 88.1318 165.51 88.0769 165.533C88.022 165.556 87.9721 165.589 87.93 165.631C87.888 165.673 87.8547 165.723 87.8319 165.778C87.8092 165.833 87.7975 165.892 87.7975 165.951C87.7975 166.01 87.8092 166.069 87.8319 166.124C87.8547 166.179 87.888 166.229 87.93 166.271L88.93 167.271L87.93 168.271C87.8439 168.357 87.7956 168.474 87.7956 168.596C87.7956 168.718 87.8439 168.835 87.93 168.921C87.9719 168.963 88.0217 168.997 88.0767 169.02C88.1316 169.043 88.1905 169.055 88.2501 169.055C88.3096 169.055 88.3685 169.043 88.4234 169.02C88.4784 168.997 88.5282 168.963 88.57 168.921L89.57 167.921L90.57 168.921C90.6574 169.001 90.7724 169.045 90.8912 169.043C91.0099 169.04 91.1231 168.992 91.2071 168.908C91.2911 168.824 91.3393 168.711 91.3417 168.592C91.3441 168.473 91.3005 168.358 91.2201 168.271Z" fill="white"/>
<path d="M66.6501 117.411C71.7256 117.411 75.84 113.297 75.84 108.221C75.84 103.146 71.7256 99.031 66.6501 99.031C61.5746 99.031 57.46 103.146 57.46 108.221C57.46 113.297 61.5746 117.411 66.6501 117.411Z" fill="#E2EAF4"/>
<path d="M65.3901 113.001C65.2323 113.001 65.0766 112.964 64.9358 112.893C64.7951 112.822 64.6731 112.718 64.5801 112.591L62.07 109.251C61.9893 109.144 61.9304 109.022 61.8967 108.892C61.8631 108.763 61.8553 108.627 61.8739 108.495C61.8925 108.362 61.937 108.234 62.005 108.118C62.073 108.003 62.163 107.902 62.2701 107.821C62.3771 107.74 62.499 107.681 62.6287 107.648C62.7585 107.614 62.8937 107.606 63.0265 107.625C63.1593 107.643 63.2871 107.688 63.4027 107.756C63.5182 107.824 63.6193 107.914 63.7001 108.021L65.34 110.211L69.5601 103.891C69.6336 103.779 69.7284 103.683 69.8391 103.608C69.9497 103.533 70.0741 103.481 70.205 103.454C70.3359 103.427 70.4709 103.426 70.6021 103.451C70.7334 103.477 70.8584 103.527 70.9701 103.601C71.0817 103.675 71.1777 103.769 71.2527 103.88C71.3277 103.991 71.3801 104.115 71.4071 104.246C71.434 104.377 71.4349 104.512 71.4096 104.643C71.3844 104.774 71.3336 104.899 71.26 105.011L66.26 112.531C66.1715 112.669 66.0505 112.783 65.9075 112.863C65.7645 112.944 65.604 112.987 65.4401 112.991L65.3901 113.001Z" fill="white"/>
<path d="M77.9001 124.791H55.8101C54.457 124.791 53.3601 125.888 53.3601 127.241V128.111C53.3601 129.464 54.457 130.561 55.8101 130.561H77.9001C79.2532 130.561 80.3501 129.464 80.3501 128.111V127.241C80.3501 125.888 79.2532 124.791 77.9001 124.791Z" fill="#E2EAF4"/>
<path d="M91.59 136.331H42.1C40.747 136.331 39.6501 137.428 39.6501 138.781V139.651C39.6501 141.004 40.747 142.101 42.1 142.101H91.59C92.9431 142.101 94.0401 141.004 94.0401 139.651V138.781C94.0401 137.428 92.9431 136.331 91.59 136.331Z" fill="#E2EAF4"/>
<path d="M91.59 147.871H42.1C40.747 147.871 39.6501 148.968 39.6501 150.321V151.191C39.6501 152.544 40.747 153.641 42.1 153.641H91.59C92.9431 153.641 94.0401 152.544 94.0401 151.191V150.321C94.0401 148.968 92.9431 147.871 91.59 147.871Z" fill="#E2EAF4"/>
<path d="M185.12 152.231C183.858 152.233 182.623 151.86 181.573 151.161C180.522 150.461 179.703 149.465 179.219 148.299C178.734 147.134 178.606 145.851 178.851 144.612C179.096 143.374 179.703 142.236 180.595 141.343C181.487 140.45 182.624 139.841 183.862 139.594C185.1 139.347 186.383 139.473 187.549 139.956C188.716 140.438 189.713 141.256 190.414 142.305C191.116 143.355 191.49 144.589 191.49 145.851C191.49 147.541 190.819 149.163 189.625 150.359C188.431 151.555 186.81 152.228 185.12 152.231Z" fill="#E2EAF4"/>
<path d="M187.31 147.181L185.98 145.851L187.31 144.521C187.373 144.464 187.424 144.394 187.459 144.316C187.494 144.239 187.514 144.155 187.515 144.07C187.517 143.985 187.502 143.9 187.47 143.821C187.439 143.742 187.391 143.67 187.331 143.61C187.271 143.55 187.199 143.502 187.12 143.471C187.041 143.439 186.956 143.424 186.871 143.426C186.786 143.428 186.702 143.447 186.624 143.482C186.547 143.517 186.477 143.568 186.42 143.631L185.09 144.961L183.78 143.671C183.722 143.611 183.653 143.564 183.577 143.532C183.5 143.499 183.418 143.483 183.335 143.483C183.252 143.483 183.17 143.499 183.093 143.532C183.017 143.564 182.948 143.611 182.89 143.671C182.775 143.79 182.71 143.95 182.71 144.116C182.71 144.282 182.775 144.442 182.89 144.561L184.23 145.891L182.89 147.221C182.775 147.34 182.71 147.5 182.71 147.666C182.71 147.832 182.775 147.992 182.89 148.111C182.948 148.171 183.017 148.218 183.093 148.25C183.17 148.283 183.252 148.299 183.335 148.299C183.418 148.299 183.5 148.283 183.577 148.25C183.653 148.218 183.722 148.171 183.78 148.111L185.12 146.781L186.45 148.111C186.57 148.22 186.727 148.279 186.889 148.275C187.051 148.271 187.205 148.205 187.32 148.091C187.434 147.976 187.501 147.822 187.504 147.66C187.508 147.498 187.449 147.341 187.34 147.221L187.31 147.181Z" fill="white"/>
<path d="M157.34 76.941C164.349 76.941 170.03 71.2595 170.03 64.251C170.03 57.2425 164.349 51.561 157.34 51.561C150.332 51.561 144.65 57.2425 144.65 64.251C144.65 71.2595 150.332 76.941 157.34 76.941Z" fill="#EF636B"/>
<path d="M155.61 70.851C155.391 70.8518 155.175 70.8016 154.979 70.7044C154.783 70.6072 154.612 70.4657 154.48 70.291L151.02 65.671C150.909 65.5226 150.828 65.3538 150.783 65.1742C150.737 64.9947 150.727 64.8079 150.754 64.6245C150.78 64.4411 150.842 64.2647 150.937 64.1054C151.032 63.9461 151.157 63.807 151.305 63.696C151.453 63.585 151.622 63.5044 151.802 63.4587C151.981 63.4129 152.168 63.403 152.352 63.4295C152.535 63.4559 152.711 63.5183 152.871 63.6129C153.03 63.7075 153.169 63.8326 153.28 63.981L155.54 66.981L161.36 58.251C161.462 58.0967 161.593 57.9641 161.747 57.8609C161.9 57.7577 162.072 57.6859 162.254 57.6496C162.435 57.6133 162.622 57.6134 162.803 57.6496C162.984 57.6859 163.157 57.7578 163.31 57.861C163.47 57.964 163.608 58.0981 163.715 58.2554C163.822 58.4126 163.896 58.5898 163.934 58.7763C163.971 58.9629 163.97 59.155 163.932 59.3414C163.893 59.5277 163.818 59.7044 163.71 59.861L156.79 70.241C156.666 70.4286 156.498 70.5837 156.302 70.6933C156.105 70.8029 155.885 70.8638 155.66 70.871L155.61 70.851Z" fill="white"/>
<path d="M173.8 87.141H141.44C140.087 87.141 138.99 88.2379 138.99 89.591V92.661C138.99 94.0141 140.087 95.111 141.44 95.111H173.8C175.153 95.111 176.25 94.0141 176.25 92.661V89.591C176.25 88.2379 175.153 87.141 173.8 87.141Z" fill="#1D2355"/>
<path d="M192.72 103.081H122.51C121.157 103.081 120.06 104.178 120.06 105.531V108.601C120.06 109.954 121.157 111.051 122.51 111.051H192.72C194.073 111.051 195.17 109.954 195.17 108.601V105.531C195.17 104.178 194.073 103.081 192.72 103.081Z" fill="#1D2355"/>
<path d="M192.72 119.011H122.51C121.157 119.011 120.06 120.108 120.06 121.461V124.531C120.06 125.884 121.157 126.981 122.51 126.981H192.72C194.073 126.981 195.17 125.884 195.17 124.531V121.461C195.17 120.108 194.073 119.011 192.72 119.011Z" fill="#1D2355"/>
<path d="M217.38 223.661H211.22L208.3 199.931H217.38V223.661Z" fill="#915C35"/>
<path d="M217.21 221.671L210.64 219.001L210.46 218.921L206.83 221.671C204.783 221.671 202.819 222.484 201.371 223.932C199.923 225.38 199.11 227.344 199.11 229.391V229.671H218.95V221.671H217.21Z" fill="#1D2355"/>
<path d="M269.38 218.501L263.51 220.331L253.67 198.541L262.34 195.841L269.38 218.501Z" fill="#915C35"/>
<path d="M268.63 216.671L261.56 216.071H261.36L258.71 219.781C256.756 220.389 255.123 221.748 254.17 223.559C253.218 225.371 253.023 227.486 253.63 229.441L253.71 229.681L272.65 223.791L270.31 216.121L268.63 216.671Z" fill="#1D2355"/>
<path d="M244.77 102.081L247.27 109.201V113.051L246.92 117.281L250.79 131.391L253.79 162.501L269.08 208.561L257.36 211.941L227.46 136.671L218.01 212.791L207.31 212.521C207.31 212.521 205.47 208.081 205.95 205.671C206.43 203.261 206.44 206.151 206.44 203.261C206.44 200.371 204.35 201.621 205.87 199.261C206.918 197.537 207.42 195.536 207.31 193.521C207.4 192.121 206.44 135.691 206.44 133.761C206.44 131.831 206.1 132.251 206.27 130.351C206.44 128.451 208.56 129.241 207.98 125.951C207.4 122.661 207.21 123.241 207.31 120.781C207.41 118.321 208.73 103.921 208.73 103.921L244.77 102.081Z" fill="#1D2355"/>
<path d="M204.64 104.401L226.13 83.671L232.13 66.801L223.31 62.981C218.8 67.311 213.92 80.771 213.92 80.771L199.13 99.591L198.78 99.721C198.112 100.015 197.531 100.476 197.093 101.06C196.655 101.644 196.376 102.331 196.281 103.055C196.187 103.779 196.281 104.515 196.555 105.192C196.828 105.868 197.272 106.463 197.843 106.918C198.413 107.373 199.092 107.673 199.813 107.789C200.533 107.905 201.272 107.833 201.956 107.58C202.641 107.326 203.249 106.901 203.721 106.344C204.192 105.787 204.513 105.118 204.65 104.401H204.64Z" fill="#915C35"/>
<path d="M220.83 64.871L231.98 68.401C236.13 67.701 239.57 60.931 241.73 55.401C242.434 53.5607 242.412 51.5217 241.67 49.6967C240.927 47.8717 239.519 46.397 237.73 45.571C236.414 44.9643 234.956 44.7364 233.518 44.9131C232.08 45.0897 230.72 45.6639 229.59 46.571L223.86 51.251L220.83 64.871Z" fill="#6C63FF"/>
<path d="M246.66 111.231L246.72 111.141C250.2 106.531 245.45 95.141 244.72 93.451L247.95 92.451L247.39 86.301L247.11 83.551L249.63 81.161V81.101L251.36 68.801L253.62 60.651C254.472 57.5723 254.49 54.3223 253.671 51.2346C252.852 48.1469 251.226 45.3327 248.96 43.081L244.34 38.491L238.8 29.821L229.51 29.581L226.16 35.511C223.042 36.1421 220.246 37.8509 218.262 40.3378C216.278 42.8246 215.233 45.9307 215.31 49.111L215.63 64.901L212.31 84.481L212.22 88.031L208.95 91.491L209.55 94.981L207.1 95.981L205.91 100.981C205.45 101.551 202.43 105.371 202.4 106.441C202.4 106.601 202.51 106.751 202.76 106.931C204.76 108.331 215.64 111.361 220.56 109.541C225.8 107.601 246.33 111.241 246.56 111.281L246.66 111.231Z" fill="#ED467C"/>
<path d="M223.89 61.141L219.14 51.671C212.25 52.141 198.58 60.111 198.58 60.111L172.71 65.591C171.943 65.297 171.111 65.2103 170.3 65.3396C169.488 65.4688 168.725 65.8096 168.087 66.3276C167.448 66.8455 166.958 67.5223 166.664 68.29C166.371 69.0577 166.285 69.8891 166.415 70.7007C166.544 71.5122 166.886 72.2753 167.404 72.9131C167.922 73.5508 168.6 74.0409 169.368 74.3338C170.135 74.6268 170.967 74.7124 171.778 74.582C172.59 74.4516 173.353 74.1098 173.99 73.591L206.89 71.231L223.89 61.141Z" fill="#915C35"/>
<path d="M221.97 62.671L234.37 53.461L236.55 45.591C236.972 44.0451 236.953 42.412 236.495 40.8764C236.037 39.3408 235.159 37.9637 233.96 36.901C232.328 35.4683 230.213 34.7095 228.042 34.7782C225.871 34.8469 223.808 35.738 222.27 37.271C217.6 41.931 212.27 48.421 213.42 52.931L221.97 62.671Z" fill="#ED467C"/>
<path d="M234.48 27.471C240.566 27.471 245.5 22.5372 245.5 16.451C245.5 10.3648 240.566 5.43101 234.48 5.43101C228.394 5.43101 223.46 10.3648 223.46 16.451C223.46 22.5372 228.394 27.471 234.48 27.471Z" fill="#915C35"/>
<path d="M241.73 27.971C239.89 27.111 237.73 27.631 235.73 27.711C233.73 27.791 231.23 27.021 230.79 25.031C230.48 23.561 231.44 21.951 230.79 20.571C230.14 19.191 228.15 18.851 226.56 18.431C224.577 17.8502 222.829 16.6535 221.571 15.014C220.313 13.3745 219.608 11.3772 219.56 9.31103C219.45 10.131 220.86 10.401 221.32 9.72101C221.498 9.34508 221.557 8.92421 221.491 8.5137C221.425 8.10319 221.237 7.72226 220.95 7.42102C220.372 6.82903 219.843 6.19018 219.37 5.51101C219.149 5.16081 219.071 4.73886 219.153 4.33285C219.235 3.92685 219.47 3.56803 219.81 3.33102C220.195 4.10659 220.74 4.79184 221.408 5.34167C222.077 5.89151 222.855 6.29345 223.69 6.52102C223.552 5.98478 223.564 5.42065 223.727 4.89114C223.889 4.36163 224.195 3.88742 224.61 3.52102C225.431 2.80003 226.381 2.24027 227.41 1.87103C229.95 0.77103 232.92 -0.328993 235.41 0.941007C236.044 1.27833 236.594 1.75353 237.019 2.33157C237.445 2.90961 237.736 3.57575 237.87 4.281C242.42 4.661 247.09 9.59103 246.87 14.151C246.59 19.061 246.38 19.461 242.3 27.721" fill="#1D2355"/>
<path d="M292.94 229.901H276.94L276.87 229.781C276.67 229.411 276.47 229.011 276.28 228.611C274.63 225.081 273.94 221.041 273.28 217.481L272.82 214.801C272.763 214.475 272.805 214.14 272.939 213.838C273.074 213.537 273.295 213.282 273.576 213.107C273.856 212.932 274.182 212.844 274.513 212.856C274.843 212.867 275.163 212.977 275.43 213.171L282.73 218.481C283.65 219.151 284.73 219.931 285.73 220.771L286.03 219.351C286.077 219.136 286.167 218.932 286.293 218.752C286.419 218.572 286.58 218.418 286.766 218.3C286.952 218.182 287.159 218.102 287.376 218.064C287.593 218.027 287.815 218.032 288.03 218.081C288.246 218.129 288.451 218.22 288.631 218.349C288.812 218.478 288.964 218.642 289.08 218.831L290.96 221.831C292.32 224.021 293.53 226.191 293.28 228.531V228.671C293.232 229.054 293.138 229.43 293 229.791L292.94 229.901Z" fill="#F0F0F0"/>
<path d="M309 230.251L156.89 230.401C156.751 230.383 156.623 230.314 156.53 230.208C156.437 230.103 156.386 229.967 156.386 229.826C156.386 229.685 156.437 229.549 156.53 229.444C156.623 229.338 156.751 229.269 156.89 229.251L309 229.101C309.14 229.119 309.268 229.188 309.36 229.294C309.453 229.399 309.504 229.535 309.504 229.676C309.504 229.817 309.453 229.953 309.36 230.058C309.268 230.164 309.14 230.233 309 230.251Z" fill="#CACACA"/>
</svg>
