<svg width="64" height="70" viewBox="0 0 64 70" fill="none" xmlns="http://www.w3.org/2000/svg">
<path d="M33.6933 70.0274L33.6222 69.989L3.6488 52.3699V17.526L33.6933 0.0274048L33.7591 0.0657422L63.738 17.526V52.3699L63.6722 52.4137L33.6933 70.0274ZM3.91725 52.2165L33.6933 69.7151L63.4695 52.2165V17.7013L33.6933 0.356107L3.91725 17.7013V52.2165Z" fill="url(#paint0_linear_89_82)"/>
<path d="M33.6933 52.4247L33.6222 52.3863L18.9724 43.7301V26.1603L19.0381 26.1165L33.6933 17.2904L33.7591 17.3288L48.9129 26.1986V43.5L48.8472 43.5384L33.6933 52.4247ZM19.2409 43.5603L33.6933 52.1124L48.6444 43.3466V26.363L33.6933 17.5972L19.2409 26.3027V43.5603Z" fill="url(#paint1_linear_89_82)"/>
<path d="M33.6659 21.9034L29.9077 19.6846V15.2031L33.6659 12.9404L37.4736 15.1647V19.7229L33.6659 21.9034ZM30.1761 19.5312L33.6659 21.5966L37.2052 19.5641V15.3182L33.6659 13.2527L30.1761 15.3565V19.5312Z" fill="url(#paint2_linear_89_82)"/>
<path d="M63.5736 21.9034L59.8208 19.6791V15.2031L60.7522 14.6443L60.8891 14.8744L60.0893 15.3565V19.5312L63.6449 21.635L63.5956 21.7172L63.6668 21.8541L63.5736 21.9034Z" fill="url(#paint3_linear_89_82)"/>
<path d="M3.75283 21.9034L-6.10352e-05 19.6846V15.2031L3.75283 12.9404L7.58785 15.1647V19.7229L3.75283 21.9034ZM0.268385 19.5312L3.75283 21.5966L7.29746 19.5641V15.3182L3.75283 13.2527L0.268385 15.3565V19.5312Z" fill="url(#paint4_linear_89_82)"/>
<path d="M56.0844 60.9658L52.3315 58.7744V54.2929L56.0844 52.0302L59.9194 54.2545V58.8127L56.0844 60.9658ZM52.5999 58.5936L56.0899 60.659L59.629 58.6264V54.3805L56.0899 52.3151L52.5999 54.4189V58.5936Z" fill="url(#paint5_linear_89_82)"/>
<path d="M33.7481 61.0589L26.3849 56.698V48.0199H26.6533V56.55L33.7481 60.7466L40.9525 56.6213V47.9432H41.2154V56.7747L33.7481 61.0589Z" fill="url(#paint6_linear_89_82)"/>
<path d="M56.057 65.524L48.491 61.0425V52.0083L56.057 47.4501L63.727 51.9316V61.1192L63.6559 61.163L56.057 65.524ZM48.7595 60.8891L56.057 65.2117L63.4696 60.9658V52.085L56.057 47.7624L48.7595 52.1452V60.8891Z" fill="url(#paint7_linear_89_82)"/>
<path d="M26.6533 66.7402H26.3849V65.4911L33.7481 61.0535L41.2154 65.4144V65.4911L41.0785 65.4966L41.0182 65.6062L33.7481 61.3657L26.6533 65.639V66.7402Z" fill="url(#paint8_linear_89_82)"/>
<path d="M19.1093 62.1108H18.8409V61.0589L19.8709 60.4399L33.655 52.1343H33.7262L33.7646 52.1507L48.7595 60.9001V61.0699H48.5732L48.5568 61.0918L33.6933 52.4247L19.1093 61.2123V62.1108Z" fill="url(#paint9_linear_89_82)"/>
<path d="M18.0684 61.6068L17.9369 61.3712L18.8409 60.8508V59.9577L18.9724 43.7082L3.71448 34.9644L3.85144 34.7288L19.2408 43.5548V43.637L19.1093 59.9577V61.0096L18.0684 61.6068Z" fill="url(#paint10_linear_89_82)"/>
<path d="M63.4914 35.1561L48.6444 26.3685V8.63974L49.6251 8.04257L49.7675 8.27267L48.9129 8.78766V26.2151L63.4969 34.8439L63.5407 34.8219L63.6722 35.052L63.4914 35.1561Z" fill="url(#paint11_linear_89_82)"/>
<path d="M3.78021 18.6546C4.37628 18.6546 4.85949 18.1714 4.85949 17.5753C4.85949 16.9793 4.37628 16.4961 3.78021 16.4961C3.18414 16.4961 2.70093 16.9793 2.70093 17.5753C2.70093 18.1714 3.18414 18.6546 3.78021 18.6546Z" fill="url(#paint12_linear_89_82)"/>
<path d="M7.43445 20.8132C8.03052 20.8132 8.51373 20.33 8.51373 19.7339C8.51373 19.1378 8.03052 18.6546 7.43445 18.6546C6.83837 18.6546 6.35516 19.1378 6.35516 19.7339C6.35516 20.33 6.83837 20.8132 7.43445 20.8132Z" fill="url(#paint13_linear_89_82)"/>
<path d="M30.0446 20.7693C30.6407 20.7693 31.1239 20.2861 31.1239 19.6901C31.1239 19.094 30.6407 18.6108 30.0446 18.6108C29.4485 18.6108 28.9653 19.094 28.9653 19.6901C28.9653 20.2861 29.4485 20.7693 30.0446 20.7693Z" fill="url(#paint14_linear_89_82)"/>
<path d="M33.6934 14.1786C34.2894 14.1786 34.7726 13.6954 34.7726 13.0993C34.7726 12.5033 34.2894 12.0201 33.6934 12.0201C33.0973 12.0201 32.6141 12.5033 32.6141 13.0993C32.6141 13.6954 33.0973 14.1786 33.6934 14.1786Z" fill="url(#paint15_linear_89_82)"/>
<path d="M48.7814 9.8067C49.3775 9.8067 49.8607 9.32349 49.8607 8.72742C49.8607 8.13134 49.3775 7.64813 48.7814 7.64813C48.1854 7.64813 47.7021 8.13134 47.7021 8.72742C47.7021 9.32349 48.1854 9.8067 48.7814 9.8067Z" fill="url(#paint16_linear_89_82)"/>
<path d="M59.9578 16.4741C60.5538 16.4741 61.037 15.9909 61.037 15.3948C61.037 14.7988 60.5538 14.3156 59.9578 14.3156C59.3617 14.3156 58.8785 14.7988 58.8785 15.3948C58.8785 15.9909 59.3617 16.4741 59.9578 16.4741Z" fill="url(#paint17_linear_89_82)"/>
<path d="M48.6225 44.53C49.2186 44.53 49.7018 44.0468 49.7018 43.4507C49.7018 42.8547 49.2186 42.3715 48.6225 42.3715C48.0264 42.3715 47.5432 42.8547 47.5432 43.4507C47.5432 44.0468 48.0264 44.53 48.6225 44.53Z" fill="url(#paint18_linear_89_82)"/>
<path d="M59.6838 55.3448C60.2798 55.3448 60.7631 54.8616 60.7631 54.2655C60.7631 53.6694 60.2798 53.1862 59.6838 53.1862C59.0877 53.1862 58.6045 53.6694 58.6045 54.2655C58.6045 54.8616 59.0877 55.3448 59.6838 55.3448Z" fill="url(#paint19_linear_89_82)"/>
<path d="M56.0351 61.4589C56.6312 61.4589 57.1144 60.9756 57.1144 60.3796C57.1144 59.7835 56.6312 59.3003 56.0351 59.3003C55.439 59.3003 54.9558 59.7835 54.9558 60.3796C54.9558 60.9756 55.439 61.4589 56.0351 61.4589Z" fill="url(#paint20_linear_89_82)"/>
<path d="M33.8029 62.1163C34.399 62.1163 34.8822 61.6331 34.8822 61.037C34.8822 60.4409 34.399 59.9577 33.8029 59.9577C33.2068 59.9577 32.7236 60.4409 32.7236 61.037C32.7236 61.6331 33.2068 62.1163 33.8029 62.1163Z" fill="url(#paint21_linear_89_82)"/>
<path d="M52.5452 59.3058C53.1413 59.3058 53.6245 58.8226 53.6245 58.2265C53.6245 57.6304 53.1413 57.1472 52.5452 57.1472C51.9492 57.1472 51.4659 57.6304 51.4659 58.2265C51.4659 58.8226 51.9492 59.3058 52.5452 59.3058Z" fill="url(#paint22_linear_89_82)"/>
<path d="M52.5452 55.3448C53.1413 55.3448 53.6245 54.8616 53.6245 54.2655C53.6245 53.6694 53.1413 53.1862 52.5452 53.1862C51.9492 53.1862 51.4659 53.6694 51.4659 54.2655C51.4659 54.8616 51.9492 55.3448 52.5452 55.3448Z" fill="url(#paint23_linear_89_82)"/>
<path d="M18.9778 62.1163C19.5739 62.1163 20.0571 61.6331 20.0571 61.037C20.0571 60.4409 19.5739 59.9577 18.9778 59.9577C18.3818 59.9577 17.8986 60.4409 17.8986 61.037C17.8986 61.6331 18.3818 62.1163 18.9778 62.1163Z" fill="url(#paint24_linear_89_82)"/>
<path d="M26.6972 66.7567C27.2933 66.7567 27.7765 66.2735 27.7765 65.6774C27.7765 65.0813 27.2933 64.5981 26.6972 64.5981C26.1011 64.5981 25.6179 65.0813 25.6179 65.6774C25.6179 66.2735 26.1011 66.7567 26.6972 66.7567Z" fill="url(#paint25_linear_89_82)"/>
<path d="M3.78021 53.3451C4.37628 53.3451 4.85949 52.8619 4.85949 52.2658C4.85949 51.6697 4.37628 51.1865 3.78021 51.1865C3.18414 51.1865 2.70093 51.6697 2.70093 52.2658C2.70093 52.8619 3.18414 53.3451 3.78021 53.3451Z" fill="url(#paint26_linear_89_82)"/>
<path d="M56.1939 13.1705H55.9255V65.3651H56.1939V13.1705Z" fill="url(#paint27_linear_89_82)"/>
<path d="M41.1661 47.8302L41.0311 48.0623L63.5531 61.1651L63.6881 60.9331L41.1661 47.8302Z" fill="url(#paint28_linear_89_82)"/>
<path d="M3.8678 17.47L3.73602 17.7039L19.0574 26.3371L19.1892 26.1032L3.8678 17.47Z" fill="url(#paint29_linear_89_82)"/>
<path d="M33.8303 0.153412H33.5619V17.4219H33.8303V0.153412Z" fill="url(#paint30_linear_89_82)"/>
<defs>
<linearGradient id="paint0_linear_89_82" x1="3.6488" y1="35.0027" x2="63.738" y2="35.0027" gradientUnits="userSpaceOnUse">
<stop stop-color="#EEB55F"/>
<stop offset="0.48" stop-color="#FF5667"/>
<stop offset="1" stop-color="#FF2D7A"/>
</linearGradient>
<linearGradient id="paint1_linear_89_82" x1="18.9724" y1="34.8439" x2="48.9129" y2="34.8439" gradientUnits="userSpaceOnUse">
<stop stop-color="#EEB55F"/>
<stop offset="0.48" stop-color="#FF5667"/>
<stop offset="1" stop-color="#FF2D7A"/>
</linearGradient>
<linearGradient id="paint2_linear_89_82" x1="29.9077" y1="17.4219" x2="37.4736" y2="17.4219" gradientUnits="userSpaceOnUse">
<stop stop-color="#EEB55F"/>
<stop offset="0.48" stop-color="#FF5667"/>
<stop offset="1" stop-color="#FF2D7A"/>
</linearGradient>
<linearGradient id="paint3_linear_89_82" x1="59.8208" y1="18.2711" x2="63.6668" y2="18.2711" gradientUnits="userSpaceOnUse">
<stop stop-color="#EEB55F"/>
<stop offset="0.48" stop-color="#FF5667"/>
<stop offset="1" stop-color="#FF2D7A"/>
</linearGradient>
<linearGradient id="paint4_linear_89_82" x1="-6.10352e-05" y1="17.4219" x2="7.56593" y2="17.4219" gradientUnits="userSpaceOnUse">
<stop stop-color="#EEB55F"/>
<stop offset="0.48" stop-color="#FF5667"/>
<stop offset="1" stop-color="#FF2D7A"/>
</linearGradient>
<linearGradient id="paint5_linear_89_82" x1="52.3315" y1="56.4843" x2="59.8975" y2="56.4843" gradientUnits="userSpaceOnUse">
<stop stop-color="#EEB55F"/>
<stop offset="0.48" stop-color="#FF5667"/>
<stop offset="1" stop-color="#FF2D7A"/>
</linearGradient>
<linearGradient id="paint6_linear_89_82" x1="26.3849" y1="54.5011" x2="41.2209" y2="54.5011" gradientUnits="userSpaceOnUse">
<stop stop-color="#EEB55F"/>
<stop offset="0.48" stop-color="#FF5667"/>
<stop offset="1" stop-color="#FF2D7A"/>
</linearGradient>
<linearGradient id="paint7_linear_89_82" x1="48.491" y1="56.4843" x2="63.738" y2="56.4843" gradientUnits="userSpaceOnUse">
<stop stop-color="#EEB55F"/>
<stop offset="0.48" stop-color="#FF5667"/>
<stop offset="1" stop-color="#FF2D7A"/>
</linearGradient>
<linearGradient id="paint8_linear_89_82" x1="26.3849" y1="63.8969" x2="41.2209" y2="63.8969" gradientUnits="userSpaceOnUse">
<stop stop-color="#EEB55F"/>
<stop offset="0.48" stop-color="#FF5667"/>
<stop offset="1" stop-color="#FF2D7A"/>
</linearGradient>
<linearGradient id="paint9_linear_89_82" x1="18.8409" y1="57.1253" x2="48.7595" y2="57.1253" gradientUnits="userSpaceOnUse">
<stop stop-color="#EEB55F"/>
<stop offset="0.48" stop-color="#FF5667"/>
<stop offset="1" stop-color="#FF2D7A"/>
</linearGradient>
<linearGradient id="paint10_linear_89_82" x1="3.71448" y1="48.1678" x2="19.2408" y2="48.1678" gradientUnits="userSpaceOnUse">
<stop stop-color="#EEB55F"/>
<stop offset="0.48" stop-color="#FF5667"/>
<stop offset="1" stop-color="#FF2D7A"/>
</linearGradient>
<linearGradient id="paint11_linear_89_82" x1="48.6444" y1="21.6021" x2="63.6722" y2="21.6021" gradientUnits="userSpaceOnUse">
<stop stop-color="#EEB55F"/>
<stop offset="0.48" stop-color="#FF5667"/>
<stop offset="1" stop-color="#FF2D7A"/>
</linearGradient>
<linearGradient id="paint12_linear_89_82" x1="2.70641" y1="17.5753" x2="4.85949" y2="17.5753" gradientUnits="userSpaceOnUse">
<stop stop-color="#EEB55F"/>
<stop offset="0.48" stop-color="#FF5667"/>
<stop offset="1" stop-color="#FF2D7A"/>
</linearGradient>
<linearGradient id="paint13_linear_89_82" x1="6.35516" y1="19.7339" x2="8.50825" y2="19.7339" gradientUnits="userSpaceOnUse">
<stop stop-color="#EEB55F"/>
<stop offset="0.48" stop-color="#FF5667"/>
<stop offset="1" stop-color="#FF2D7A"/>
</linearGradient>
<linearGradient id="paint14_linear_89_82" x1="28.9653" y1="19.6901" x2="31.1239" y2="19.6901" gradientUnits="userSpaceOnUse">
<stop stop-color="#EEB55F"/>
<stop offset="0.48" stop-color="#FF5667"/>
<stop offset="1" stop-color="#FF2D7A"/>
</linearGradient>
<linearGradient id="paint15_linear_89_82" x1="32.6141" y1="13.0993" x2="34.7726" y2="13.0993" gradientUnits="userSpaceOnUse">
<stop stop-color="#EEB55F"/>
<stop offset="0.48" stop-color="#FF5667"/>
<stop offset="1" stop-color="#FF2D7A"/>
</linearGradient>
<linearGradient id="paint16_linear_89_82" x1="47.7021" y1="8.72742" x2="49.8552" y2="8.72742" gradientUnits="userSpaceOnUse">
<stop stop-color="#EEB55F"/>
<stop offset="0.48" stop-color="#FF5667"/>
<stop offset="1" stop-color="#FF2D7A"/>
</linearGradient>
<linearGradient id="paint17_linear_89_82" x1="58.8785" y1="15.3948" x2="61.0316" y2="15.3948" gradientUnits="userSpaceOnUse">
<stop stop-color="#EEB55F"/>
<stop offset="0.48" stop-color="#FF5667"/>
<stop offset="1" stop-color="#FF2D7A"/>
</linearGradient>
<linearGradient id="paint18_linear_89_82" x1="47.5487" y1="43.4507" x2="49.7018" y2="43.4507" gradientUnits="userSpaceOnUse">
<stop stop-color="#EEB55F"/>
<stop offset="0.48" stop-color="#FF5667"/>
<stop offset="1" stop-color="#FF2D7A"/>
</linearGradient>
<linearGradient id="paint19_linear_89_82" x1="58.6045" y1="54.2655" x2="60.7631" y2="54.2655" gradientUnits="userSpaceOnUse">
<stop stop-color="#EEB55F"/>
<stop offset="0.48" stop-color="#FF5667"/>
<stop offset="1" stop-color="#FF2D7A"/>
</linearGradient>
<linearGradient id="paint20_linear_89_82" x1="54.9558" y1="60.3796" x2="57.1144" y2="60.3796" gradientUnits="userSpaceOnUse">
<stop stop-color="#EEB55F"/>
<stop offset="0.48" stop-color="#FF5667"/>
<stop offset="1" stop-color="#FF2D7A"/>
</linearGradient>
<linearGradient id="paint21_linear_89_82" x1="32.7236" y1="61.037" x2="34.8767" y2="61.037" gradientUnits="userSpaceOnUse">
<stop stop-color="#EEB55F"/>
<stop offset="0.48" stop-color="#FF5667"/>
<stop offset="1" stop-color="#FF2D7A"/>
</linearGradient>
<linearGradient id="paint22_linear_89_82" x1="51.4659" y1="58.2265" x2="53.6245" y2="58.2265" gradientUnits="userSpaceOnUse">
<stop stop-color="#EEB55F"/>
<stop offset="0.48" stop-color="#FF5667"/>
<stop offset="1" stop-color="#FF2D7A"/>
</linearGradient>
<linearGradient id="paint23_linear_89_82" x1="51.4659" y1="54.2655" x2="53.6245" y2="54.2655" gradientUnits="userSpaceOnUse">
<stop stop-color="#EEB55F"/>
<stop offset="0.48" stop-color="#FF5667"/>
<stop offset="1" stop-color="#FF2D7A"/>
</linearGradient>
<linearGradient id="paint24_linear_89_82" x1="17.8986" y1="61.037" x2="20.0516" y2="61.037" gradientUnits="userSpaceOnUse">
<stop stop-color="#EEB55F"/>
<stop offset="0.48" stop-color="#FF5667"/>
<stop offset="1" stop-color="#FF2D7A"/>
</linearGradient>
<linearGradient id="paint25_linear_89_82" x1="25.6234" y1="65.6774" x2="27.7765" y2="65.6774" gradientUnits="userSpaceOnUse">
<stop stop-color="#EEB55F"/>
<stop offset="0.48" stop-color="#FF5667"/>
<stop offset="1" stop-color="#FF2D7A"/>
</linearGradient>
<linearGradient id="paint26_linear_89_82" x1="2.70641" y1="52.2658" x2="4.85949" y2="52.2658" gradientUnits="userSpaceOnUse">
<stop stop-color="#EEB55F"/>
<stop offset="0.48" stop-color="#FF5667"/>
<stop offset="1" stop-color="#FF2D7A"/>
</linearGradient>
<linearGradient id="paint27_linear_89_82" x1="55.9255" y1="39.2651" x2="56.1939" y2="39.2651" gradientUnits="userSpaceOnUse">
<stop stop-color="#EEB55F"/>
<stop offset="0.48" stop-color="#FF5667"/>
<stop offset="1" stop-color="#FF2D7A"/>
</linearGradient>
<linearGradient id="paint28_linear_89_82" x1="41.0232" y1="54.4873" x2="63.6825" y2="54.4872" gradientUnits="userSpaceOnUse">
<stop stop-color="#EEB55F"/>
<stop offset="0.48" stop-color="#FF5667"/>
<stop offset="1" stop-color="#FF2D7A"/>
</linearGradient>
<linearGradient id="paint29_linear_89_82" x1="3.73101" y1="21.88" x2="19.1861" y2="21.8798" gradientUnits="userSpaceOnUse">
<stop stop-color="#EEB55F"/>
<stop offset="0.48" stop-color="#FF5667"/>
<stop offset="1" stop-color="#FF2D7A"/>
</linearGradient>
<linearGradient id="paint30_linear_89_82" x1="33.5619" y1="8.78768" x2="33.8303" y2="8.78768" gradientUnits="userSpaceOnUse">
<stop stop-color="#EEB55F"/>
<stop offset="0.48" stop-color="#FF5667"/>
<stop offset="1" stop-color="#FF2D7A"/>
</linearGradient>
</defs>
</svg>
