<?xml version="1.0" encoding="iso-8859-1"?>
<!-- Generator: Adobe Illustrator 19.0.0, SVG Export Plug-In . SVG Version: 6.00 Build 0)  -->
<svg version="1.1" width="32" height="32" id="Layer_1" xmlns="http://www.w3.org/2000/svg" xmlns:xlink="http://www.w3.org/1999/xlink" x="0px"
	y="0px" viewBox="0 0 508 508" style="enable-background:new 0 0 508 508;" xml:space="preserve">
	<circle style="fill:#84DBFF;" cx="254" cy="254" r="254" />
	<path style="fill:#ACB3BA;" d="M363.6,292H354v-59.2c0-13.2,5.2-25.6,14.4-35.2C376,190,380,180,380,169.2v-40h9.6v40
	c0,13.2-5.2,25.6-14.4,35.2c-7.6,7.6-11.6,17.6-11.6,28.4V292z" />
	<path style="fill:#2B3B4E;" d="M366.4,332.8h-30.8c-5.6,0-10-4.4-10-10v-33.2c0-5.6,4.4-10,10-10h30.8c5.6,0,10,4.4,10,10v33.2
	C376.8,328,372,332.8,366.4,332.8z" />
	<path style="fill:#324A5E;" d="M318,391.2H146c-12,0-22-9.6-22-22v-226c0-12,9.6-22,22-22h172c12,0,22,9.6,22,22v226.4
	C340,381.6,330,391.2,318,391.2z" />
	<path style="fill:#FFD05B;" d="M286.4,355.2H177.6c-6.8,0-12-5.2-12-12v-74.8c0-6.8,5.2-12,12-12H286c6.8,0,12,5.2,12,12v75.2
	C298.4,350,292.8,355.2,286.4,355.2z" />
	<polygon style="fill:#FFFFFF;" points="233.2,275.2 220.8,297.2 230.4,298.4 219.2,311.6 230.4,311.6 214,336.4 246,307.2 
	234.4,306 247.6,290.4 237.6,290 250,275.2 " />
	<circle style="fill:#FF7058;" cx="383.6" cy="122" r="20.4" />
	<g>
		<path style="fill:#ACB3BA;" d="M198,182c0.8-0.8,0.8-2,0.8-2.8s-0.4-1.6-0.8-2c-0.4-0.4-1.2-0.8-2-0.8c-1.6,0-3.2,1.2-4.8,3.6
		l-4.8-2.8c1.2-2,2.4-3.2,4-4.4c1.6-0.8,3.2-1.6,5.6-1.6c2.4,0,4.4,0.8,6,2c1.6,1.6,2.4,3.2,2.4,6c0,1.2-0.4,2.8-1.2,4
		s-2,2.8-3.6,4.8l-4.8,4.8h10.4v5.2h-18.4v-4.4l7.6-8C196.4,184.4,197.2,182.8,198,182z" />
		<path style="fill:#ACB3BA;" d="M220.4,182c0.8-0.8,0.8-2,0.8-2.8s-0.4-1.6-0.8-2c-0.4-0.4-1.2-0.8-2-0.8c-1.6,0-3.2,1.2-4.8,3.6
		l-4.8-2.8c1.2-2,2.4-3.2,4-4.4c1.6-0.8,3.2-1.6,5.6-1.6c2.4,0,4.4,0.8,6,2c1.6,1.6,2.4,3.2,2.4,6c0,1.2-0.4,2.8-1.2,4
		s-2,2.8-3.6,4.8l-4.8,4.8h10.4v5.2h-18.4v-4.4l7.6-8C218.8,184.4,220,182.8,220.4,182z" />
		<path style="fill:#ACB3BA;" d="M242.8,198.4c-3.6,0-6.4-1.2-8-3.6c-1.6-2.4-2.8-5.6-2.8-9.6s0.8-7.2,2.8-9.6c1.6-2.4,4.4-3.6,8-3.6
		s6.4,1.2,8,3.6c1.6,2.4,2.8,5.6,2.8,9.6s-0.8,7.2-2.8,9.6C249.2,196.8,246.4,198.4,242.8,198.4z M238.8,178.4
		c-0.8,1.6-1.2,3.6-1.2,6.4c0,2.8,0.4,4.8,1.2,6.4c0.8,1.6,2,2.4,4,2.4c1.6,0,3.2-0.8,4-2.4c0.8-1.6,1.2-3.6,1.2-6.4
		c0-2.8-0.4-4.8-1.2-6.4c-0.8-1.6-2-2.4-4-2.4C241.2,176,239.6,176.8,238.8,178.4z" />
	</g>
	<g>
	</g>
	<g>
	</g>
	<g>
	</g>
	<g>
	</g>
	<g>
	</g>
	<g>
	</g>
	<g>
	</g>
	<g>
	</g>
	<g>
	</g>
	<g>
	</g>
	<g>
	</g>
	<g>
	</g>
	<g>
	</g>
	<g>
	</g>
	<g>
	</g>
</svg>